<svg width="148" height="86" viewBox="0 0 148 86" fill="none" xmlns="http://www.w3.org/2000/svg">
<path d="M147.216 77.1254C146.405 82.2372 142 86.0025 136.825 86L107.017 85.9864L80.8983 85.974H80.1143L74.5227 85.9722H73.8012L68.4649 85.9697L67.5524 85.9691L60.1171 85.966L58.8064 85.9647L52.7424 85.9616H51.8367L51.0935 85.961L40.6424 85.956L38.8173 85.9554L30.7439 85.9517H30.284L29.0227 85.951L16.574 85.9449C14.9819 85.9443 13.4406 85.5956 12.0427 84.9538C9.92511 83.9818 8.13711 82.3373 7.00014 80.2099C6.19394 78.7006 5.32466 76.9331 4.48196 74.9583C3.13353 71.7965 1.85311 68.1024 1.00916 64.0799C0.334037 60.8643 -0.061681 57.4385 0.00880354 53.907C0.0205596 53.2726 0.0483702 52.6346 0.092287 51.9941C0.130611 51.4383 0.180691 50.8806 0.243769 50.321C0.445953 48.5212 0.781647 46.7042 1.2738 44.8827C1.87102 42.6737 2.69825 40.4579 3.79819 38.2581C5.10518 35.6434 6.79862 33.0517 8.9477 30.5236C10.1082 29.1578 11.4022 27.81 12.8397 26.4875C38.6009 2.79379 63.5899 12.7608 67.1604 12.7608C84.3716 12.7608 80.2132 1.89665 99.2718 0.23475C139.579 -3.28067 133.584 33.8498 133.584 33.8516C133.584 33.8529 132.988 35.8938 132.805 36.6536C132.557 37.675 132.366 38.6419 132.229 39.5589C132.218 39.6287 132.208 39.6986 132.198 39.7685C132.16 40.0343 132.126 40.2952 132.098 40.5524C131.891 42.3843 131.903 44.0091 132.091 45.4707C132.442 48.2065 133.405 50.3692 134.69 52.2389C135.548 53.4878 136.549 54.605 137.608 55.6739C137.905 55.9738 138.206 56.27 138.51 56.5642C138.904 56.9445 139.301 57.3216 139.699 57.6993C140.229 58.2032 140.76 58.7083 141.282 59.2246C141.393 59.3347 141.505 59.4459 141.615 59.5579C141.806 59.7495 141.994 59.9431 142.18 60.1391C142.948 60.9422 143.68 61.783 144.343 62.6931C144.489 62.8903 144.629 63.0912 144.767 63.2953C144.928 63.5358 145.084 63.7812 145.235 64.0322C145.716 64.8298 146.141 65.6836 146.492 66.6104C147.524 69.3353 147.919 72.6931 147.216 77.1254Z" fill="#EBF3FA"/>
<path opacity="0.2" d="M74.7561 63.5236L63.973 69.9363L19.5816 63.2763L0.00865173 53.9072C0.0204078 53.2728 0.0482183 52.6348 0.0921352 51.9942C0.130459 51.4385 0.180538 50.8807 0.243617 50.3212C0.4458 48.5214 0.781496 46.7043 1.27364 44.8829C1.87087 42.6739 2.6981 40.458 3.79804 38.2583C3.79804 38.2583 16.985 32.7835 19.5817 34.4281C22.1784 36.0727 29.5976 46.0886 32.9362 45.594C36.2748 45.0993 38.7479 40.6923 43.1994 47.0383C47.6509 53.3841 50.124 55.6457 54.2045 53.2166C58.2851 50.7874 60.3872 47.3251 63.8495 49.4272C67.3117 51.5293 74.7561 63.5236 74.7561 63.5236Z" fill="#80B4FF"/>
<path opacity="0.4" d="M137.608 55.6741C127.817 58.962 96.7201 69.2605 89.3888 69.8831C80.6558 70.625 79.4298 63.3999 79.4298 63.3999C79.4298 63.3999 89.1983 49.3035 90.4349 49.5508C91.6714 49.7981 95.0452 55.3365 96.3436 54.4091C97.642 53.4818 103.078 34.6259 105.153 34.4281C107.101 34.2426 109.952 38.7195 110.76 37.9775C111.209 37.5651 113.235 33.3306 115.325 29.6532C116.992 26.7171 118.701 24.1358 119.679 24.1401C120.66 24.1444 121.998 26.2701 123.409 28.965C125.79 33.513 128.378 39.6821 129.813 40.0178C130.521 40.1834 131.35 39.9262 132.229 39.559C132.218 39.6289 132.208 39.6987 132.198 39.7686C132.16 40.0344 132.126 40.2953 132.098 40.5526C131.891 42.3845 131.903 44.0093 132.091 45.4709C132.441 48.2067 133.405 50.3694 134.69 52.239C135.548 53.488 136.549 54.6052 137.608 55.6741Z" fill="#80B4FF"/>
<path opacity="0.4" d="M89.3885 63.6631C89.3885 63.6631 92.9124 57.284 93.4688 58.3041C94.0253 59.3242 95.6018 59.8313 96.3436 58.7432C97.0855 57.655 106.101 47.8874 106.323 50.3137C106.544 52.74 102.835 58.7751 104.319 59.0497C105.803 59.3243 113.963 51.1636 116.838 52.8328C119.713 54.502 122.959 51.4418 126.019 51.5345C129.079 51.6273 128.988 58.6847 128.988 58.6847L104.226 66.2793L92.5415 66.8357L86.9774 66.1866L89.3885 63.6631Z" fill="#80B4FF"/>
<path d="M139.699 57.6995C139.699 57.6995 99.4547 66.0863 95.2554 65.8556C95.2554 65.8556 98.2249 62.9053 101.935 62.7817C105.644 62.658 107.252 59.1562 111.579 58.7432C115.907 58.3302 118.504 59.2576 120.297 58.3302C122.09 57.4028 124.13 52.8894 128.334 53.0131C131.941 53.1195 133.318 53.0434 134.69 52.2391C135.788 53.8379 137.122 55.2216 138.51 56.5645C138.904 56.9447 139.301 57.3218 139.699 57.6995Z" fill="#80B4FF"/>
<path d="M59.3762 62.1158L0.092706 51.9985C0.092706 51.9985 0.0927064 51.9973 0.0920849 51.9942C0.130409 51.4384 0.180489 50.8807 0.243567 50.3212C0.445751 48.5214 0.781445 46.7043 1.27359 44.8829C1.27359 44.8829 7.59592 43.6099 10.6564 44.8829C13.7168 46.1559 13.4386 48.1962 15.8498 48.4745C18.2604 48.7526 20.4473 48.5202 22.2606 49.9632C24.0745 51.4056 26.795 52.4362 29.5561 52.2711C32.3179 52.106 38.2118 51.447 40.5204 53.3018C42.8284 55.1566 47.4036 59.1957 51.3604 59.1339C55.3173 59.072 57.5116 60.125 58.1614 61.0505C58.7907 61.9471 59.3428 62.1071 59.3762 62.1158Z" fill="#AFCDFB"/>
<path d="M147.551 73.8251C147.51 74.8558 147.402 75.9526 147.216 77.1254C146.404 82.2372 142 86.0025 136.824 86L107.017 85.9864L80.8981 85.974H80.1141L74.5225 85.9722H73.801L68.4647 85.9697L67.5521 85.9691L60.1169 85.966L58.8062 85.9647L52.7422 85.9616H51.8365L51.0933 85.961L40.6422 85.9561L38.817 85.9554L30.2837 85.9517L29.0225 85.9511L16.5737 85.9449C14.9817 85.9443 13.4404 85.5956 12.0425 84.9538C9.9249 83.9819 8.13689 82.3374 6.99992 80.2099C4.90216 76.2833 2.38026 70.615 1.00894 64.0799C0.731354 62.7575 0.50136 61.4004 0.331337 60.0143C0.0512635 57.7396 -0.0656242 55.389 0.0363997 52.9938C0.0747234 52.1084 0.142774 51.2169 0.243504 50.3211C6.08051 50.242 21.4976 50.6952 39.8464 56.5272C63.2941 63.9804 84.9222 68.7701 100.689 64.8744C113.804 61.6347 130.091 57.6228 139.699 57.6995C140.229 58.2033 140.76 58.7085 141.281 59.2247C141.393 59.3348 141.505 59.446 141.615 59.558C141.806 59.7496 141.994 59.9432 142.18 60.1392C142.948 60.9423 143.68 61.7831 144.343 62.6932C144.488 62.8905 144.629 63.0913 144.767 63.2954C144.928 63.5359 145.084 63.7813 145.235 64.0324C145.716 64.8299 146.14 65.6837 146.491 66.6105C147.25 68.6144 147.665 70.9608 147.551 73.8251Z" fill="#BFE2A8"/>
<path opacity="0.8" d="M70.0936 26.4191C70.0936 26.4191 71.9051 23.0832 76.2368 23.4539C76.2368 23.4539 82.5258 17.8939 89.2321 22.7126C89.2321 22.7126 96.3609 21.5186 101.64 23.7464C105.16 25.2317 106.323 26.7898 106.323 26.7898L70.0936 26.4191Z" fill="#F8FCFF"/>
<path opacity="0.8" d="M45.9421 34.1674C45.9421 34.1674 47.4765 31.8209 51.1457 32.0816C51.1457 32.0816 56.4727 28.1706 62.1533 31.5601C62.1533 31.5601 68.1917 30.7203 72.6635 32.2873C75.6451 33.3321 76.6299 34.4281 76.6299 34.4281L45.9421 34.1674Z" fill="#F8FCFF"/>
<path opacity="0.8" d="M26.9059 23.5078C26.9059 23.5078 27.9988 21.1613 30.6122 21.422C30.6122 21.422 34.4064 17.5111 38.4524 20.9006C38.4524 20.9006 42.7533 20.0607 45.9384 21.6277C48.062 22.6725 48.7634 23.7685 48.7634 23.7685L26.9059 23.5078Z" fill="#F8FCFF"/>
<path d="M63.5746 64.7379C63.5746 64.7379 40.5614 62.1238 31.2463 58.7432C21.9311 55.3625 21.2539 56.3563 23.5091 58.147C25.7643 59.9377 38.7687 64.1694 33.3793 64.6502C27.99 65.131 18.2908 63.7171 14.6355 67.4579C10.9802 71.1987 5.23787 74.5609 14.6355 75.2867C24.0331 76.0125 51.476 70.8573 51.476 70.8573L63.5746 64.7379Z" fill="#DAED8E"/>
<path d="M88.9509 60.6796C88.9509 60.6796 92.2896 68.717 92.6605 68.9643C93.0314 69.2116 94.3961 69.5251 94.4889 69.8961C94.5816 70.267 96.7146 75.1819 96.7146 75.1819L88.5539 76.7584L82.0624 72.9563L88.9509 60.6796Z" fill="#A36F4B"/>
<path d="M136.824 86L112.201 85.9888L107.017 85.9863L80.8981 85.974H80.1141L74.5226 85.9721H73.801L68.4648 85.9697L67.5522 85.969L60.1169 85.9659L58.8062 85.9647L52.7423 85.9616H51.8365L51.0934 85.961L40.6422 85.956L38.8171 85.9554L30.2838 85.9516L29.0225 85.951L16.5738 85.9448C14.9818 85.9442 13.4405 85.5955 12.0425 84.9538C18.702 81.8526 38.9822 72.5644 55.0701 66.8622C74.6072 59.9377 85.736 56.2281 88.951 60.6795C92.1659 65.131 80.4189 74.5287 86.8488 74.776C93.2788 75.0232 108.735 73.0448 114.547 74.1577C120.347 75.2681 119.743 77.4877 121.339 77.6194C121.345 77.62 121.348 77.62 121.348 77.62C122.956 77.7437 135.321 76.8781 136.805 79.1039C138.288 81.3295 136.824 86 136.824 86Z" fill="#D8A987"/>
<path opacity="0.8" d="M123.409 28.9651V28.9657C123.409 28.9657 121.266 27.2933 120.771 26.7894C120.277 26.2861 119.658 27.4992 119.287 28.0185C118.916 28.5372 118.875 26.9223 118.875 26.4277C118.875 25.9331 115.324 29.6544 115.324 29.6544L115.325 29.6532C116.992 26.717 118.701 24.1358 119.679 24.1401C120.66 24.1445 121.998 26.2701 123.409 28.9651Z" fill="#F8FCFF"/>
<path d="M101.956 40.1862C101.956 40.1862 104.49 33.476 105.809 33.682C107.128 33.8881 108.931 36.9318 108.931 36.9318C108.931 36.9318 107.097 35.3616 106.757 35.8871C106.417 36.4127 106.355 37.4508 105.768 36.9318C105.18 36.4127 104.809 36.338 104.5 36.9318C104.191 37.5256 101.956 40.1862 101.956 40.1862Z" fill="#F8FCFF"/>
<path d="M36.8313 78.6093C35.2238 80.5877 25.3316 81.206 25.6407 82.628C25.8887 83.7674 30.4613 84.5891 30.7439 85.9518H30.2839L29.0226 85.9512L16.5739 85.945C14.9819 85.9444 13.4406 85.5957 12.0427 84.9539C9.92507 83.9819 8.13706 82.3374 7.00009 80.21C6.19389 78.7007 5.32462 76.9332 4.48191 74.9584C4.48191 74.9584 8.70031 70.709 19.0872 72.3716C29.474 74.0341 30.914 69.7229 35.7803 71.0664C40.6466 72.4099 41.9011 71.2656 43.6941 72.3716C45.4871 73.4777 36.8932 75.3325 35.9658 76.198C35.0383 77.0636 38.4388 76.6308 36.8313 78.6093Z" fill="#509B67"/>
<path d="M9.89369 72.8108C9.89369 72.8108 7.77129 67.7296 9.77852 66.6232C11.7857 65.5168 9.55308 70.9855 10.4109 73.0147C10.8358 74.0196 9.89369 72.8108 9.89369 72.8108Z" fill="#509B67"/>
<path d="M8.91483 74.0573C8.91483 74.0573 6.29866 70.8465 7.51834 69.5972C8.73802 68.3479 8.28067 72.81 9.33287 74.0899C9.85396 74.7237 8.91483 74.0573 8.91483 74.0573Z" fill="#509B67"/>
<path d="M10.8413 73.7651C10.8413 73.7651 10.5937 68.7219 12.6941 68.377C14.7946 68.0321 11.1203 72.0822 11.2281 74.0993C11.2816 75.0982 10.8413 73.7651 10.8413 73.7651Z" fill="#509B67"/>
<path d="M18.1758 78.8538C18.1758 78.8538 17.8867 75.811 18.9916 75.5491C20.0965 75.2872 18.7487 78.7179 18.7487 78.7179L18.1758 78.8538Z" fill="#82B378"/>
<path d="M18.9999 78.9304C18.9999 78.9304 20.1833 76.537 21.2451 76.8704C22.3069 77.2037 19.5504 79.1032 19.5504 79.1032L18.9999 78.9304Z" fill="#82B378"/>
<path d="M16.717 79.0215C16.717 79.0215 17.9123 78.362 18.9428 78.5268C19.9733 78.6917 20.1382 78.8566 20.5915 79.0215C21.0449 79.1864 21.6013 79.516 21.354 79.6603C21.1068 79.8046 19.0459 79.5366 18.5512 79.6603C18.0566 79.784 15.4685 79.4735 16.717 79.0215Z" fill="#82B378"/>
<path d="M40.1428 83.1457C40.1428 83.1457 41.5296 76.6864 43.4617 78.2009C45.3938 79.7154 41.2747 81.2068 40.1428 83.1457Z" fill="#82B378"/>
<path d="M39.5755 83.5012C39.5755 83.5012 38.9416 78.8076 40.2239 78.5781C41.5062 78.3486 39.5919 82.0804 39.5755 83.5012Z" fill="#82B378"/>
<path d="M38.2688 83.1312C38.2688 83.1312 39.3766 82.5937 40.1828 82.6434C40.9889 82.6932 43.1588 82.95 42.96 83.3791C42.7612 83.8082 40.5904 83.4369 40.0405 83.5069C39.4907 83.5767 37.6747 83.5368 38.2688 83.1312Z" fill="#82B378"/>
<path d="M113.103 78.5728C113.103 78.5728 113.062 76.3471 114.092 75.9555C115.123 75.564 113.206 77.9958 113.103 78.5728Z" fill="#509B67"/>
<path d="M113.931 78.2561C113.931 78.2561 114.717 75.4402 116.161 75.3357C117.605 75.2312 114.278 77.5689 113.931 78.2561Z" fill="#509B67"/>
<path d="M17.4841 68.6263C17.8986 68.7943 19.3799 68.6584 19.4279 68.5401C19.4758 68.4217 18.5071 67.293 18.0925 67.125C17.6779 66.957 17.2057 67.1569 17.0377 67.5715C16.8696 67.986 17.0695 68.4583 17.4841 68.6263Z" fill="#509B67"/>
<path d="M21.2206 69.3334C20.9879 69.7154 20.8828 71.1991 20.9918 71.2656C21.1008 71.332 22.3712 70.5583 22.604 70.1763C22.8367 69.7943 22.7157 69.296 22.3337 69.0632C21.9518 68.8304 21.4534 68.9514 21.2206 69.3334Z" fill="#509B67"/>
<path d="M19.2244 72.237C19.6505 72.373 21.1171 72.1248 21.1559 72.0031C21.1947 71.8814 20.1429 70.8297 19.7167 70.6938C19.2906 70.5578 18.8349 70.793 18.6989 71.2192C18.563 71.6453 18.7982 72.101 19.2244 72.237Z" fill="#509B67"/>
<path d="M21.3818 73.6729C21.3804 73.6392 21.2164 70.2811 19.3777 68.5473L19.4168 68.5058C21.2725 70.2556 21.4373 73.6365 21.4387 73.6705L21.3818 73.6729Z" fill="#509B67"/>
<path d="M33.1345 65.8629C32.7319 66.1302 31.1349 66.3059 31.0587 66.191C30.9824 66.0761 31.7642 64.6725 32.1667 64.4053C32.5692 64.1381 33.1122 64.2478 33.3794 64.6503C33.6466 65.0528 33.537 65.5957 33.1345 65.8629Z" fill="#509B67"/>
<path d="M29.3324 67.4173C29.6611 67.7714 30.0924 69.3191 29.9913 69.4129C29.8903 69.5067 28.3789 68.9618 28.0501 68.6077C27.7214 68.2537 27.7419 67.7002 28.096 67.3714C28.4501 67.0426 29.0036 67.0633 29.3324 67.4173Z" fill="#509B67"/>
<path d="M32.0715 70.0597C31.6498 70.2956 30.0441 70.3493 29.9768 70.2289C29.9096 70.1085 30.7959 68.7685 31.2175 68.5327C31.6392 68.2968 32.1723 68.4475 32.4081 68.8692C32.6439 69.2908 32.4932 69.8239 32.0715 70.0597Z" fill="#509B67"/>
<path d="M30.0981 72.0448C30.0923 72.0088 29.5413 68.4195 31.1133 66.1878L31.0629 66.1523C29.4765 68.4046 30.0315 72.0183 30.0373 72.0545L30.0981 72.0448Z" fill="#509B67"/>
<path d="M25.1812 73.9607L25.0633 73.9419C24.5986 67.9305 22.763 63.6166 22.7372 63.558L22.8446 63.5117C22.8703 63.571 24.7194 67.9132 25.1812 73.9607Z" fill="#509B67"/>
<path d="M21.4917 62.953C21.7181 63.2094 22.7781 63.622 22.8513 63.5574C22.9245 63.4928 22.6468 62.3897 22.4205 62.1333C22.1941 61.8768 21.8027 61.8524 21.5462 62.0788C21.2898 62.3052 21.2654 62.6965 21.4917 62.953Z" fill="white"/>
<path d="M23.1162 62.059C22.9118 62.3333 22.7262 63.4555 22.8044 63.5139C22.8827 63.5723 23.905 63.0736 24.1094 62.7993C24.3139 62.525 24.2572 62.137 23.9829 61.9326C23.7087 61.7281 23.3206 61.7848 23.1162 62.059Z" fill="white"/>
<path d="M24.3355 63.2522C24.0055 63.1623 22.8931 63.3998 22.8674 63.4941C22.8417 63.5883 23.6798 64.3574 24.0098 64.4473C24.3398 64.5373 24.6802 64.3427 24.7702 64.0126C24.8602 63.6826 24.6656 63.3421 24.3355 63.2522Z" fill="white"/>
<path d="M23.5841 64.74C23.5512 64.3996 22.9346 63.4436 22.8374 63.453C22.7402 63.4624 22.3182 64.5187 22.3511 64.8591C22.384 65.1996 22.6867 65.449 23.0272 65.4161C23.3677 65.3832 23.617 65.0805 23.5841 64.74Z" fill="white"/>
<path d="M21.8968 64.6668C22.1996 64.5078 22.852 63.576 22.8067 63.4896C22.7613 63.4031 21.6238 63.4111 21.3209 63.5701C21.0181 63.729 20.9015 64.1035 21.0604 64.4063C21.2195 64.7093 21.5939 64.8258 21.8968 64.6668Z" fill="white"/>
<path d="M22.6052 63.4575C22.6229 63.3462 22.7275 63.2704 22.8387 63.2881C22.95 63.3058 23.0258 63.4103 23.0081 63.5216C22.9904 63.6329 22.8858 63.7087 22.7746 63.691C22.6633 63.6733 22.5875 63.5687 22.6052 63.4575Z" fill="#F99746"/>
<path d="M25.1476 67.8145C24.811 68.2284 24.4477 69.9648 24.5659 70.0609C24.684 70.1569 26.3098 69.4473 26.6464 69.0334C26.983 68.6195 26.9203 68.0111 26.5064 67.6745C26.0925 67.3379 25.4841 67.4006 25.1476 67.8145Z" fill="#509B67"/>
<path d="M35.9804 74.3561L36.0983 74.3373C36.563 68.326 38.3986 64.0121 38.4244 63.9535L38.317 63.9071C38.2913 63.9665 36.4423 68.3086 35.9804 74.3561Z" fill="#509B67"/>
<path d="M39.6698 63.3484C39.4434 63.6048 38.3834 64.0174 38.3102 63.9528C38.237 63.8882 38.5147 62.7851 38.7411 62.5287C38.9675 62.2722 39.3589 62.2478 39.6153 62.4742C39.8717 62.7005 39.8961 63.0919 39.6698 63.3484Z" fill="white"/>
<path d="M38.0454 62.4544C38.2498 62.7287 38.4354 63.8509 38.3571 63.9093C38.2788 63.9676 37.2565 63.4689 37.0521 63.1946C36.8477 62.9204 36.9043 62.5323 37.1786 62.328C37.4529 62.1235 37.841 62.1802 38.0454 62.4544Z" fill="white"/>
<path d="M36.826 63.6477C37.156 63.5578 38.2684 63.7954 38.2941 63.8896C38.3198 63.9837 37.4818 64.7529 37.1517 64.8428C36.8217 64.9328 36.4813 64.7382 36.3913 64.4081C36.3013 64.0781 36.496 63.7376 36.826 63.6477Z" fill="white"/>
<path d="M37.5775 65.1353C37.6105 64.7949 38.227 63.839 38.3242 63.8484C38.4214 63.8578 38.8435 64.9141 38.8105 65.2545C38.7776 65.595 38.4749 65.8443 38.1344 65.8114C37.794 65.7786 37.5446 65.4759 37.5775 65.1353Z" fill="white"/>
<path d="M39.2648 65.0622C38.9619 64.9032 38.3095 63.9714 38.3549 63.885C38.4003 63.7985 39.5378 63.8064 39.8406 63.9655C40.1435 64.1245 40.2601 64.4989 40.1011 64.8017C39.9421 65.1046 39.5676 65.2212 39.2648 65.0622Z" fill="white"/>
<path d="M38.5565 63.8528C38.5387 63.7416 38.4342 63.6658 38.3229 63.6835C38.2117 63.7012 38.1359 63.8057 38.1536 63.917C38.1714 64.0282 38.2759 64.104 38.3872 64.0864C38.4983 64.0686 38.5742 63.9641 38.5565 63.8528Z" fill="#F99746"/>
<path d="M36.0141 68.2099C36.3507 68.6238 36.714 70.3602 36.5958 70.4562C36.4777 70.5522 34.8518 69.8426 34.5152 69.4287C34.1786 69.0148 34.2413 68.4065 34.6552 68.0699C35.0692 67.7333 35.6775 67.796 36.0141 68.2099Z" fill="#509B67"/>
<path d="M103.569 72.5165C104.112 72.756 106.081 72.6359 106.15 72.4808C106.218 72.3259 104.979 70.79 104.436 70.5504C103.893 70.3108 103.259 70.5567 103.019 71.0996C102.78 71.6425 103.026 72.2769 103.569 72.5165Z" fill="#509B67"/>
<path d="M108.495 73.6055C108.171 74.1025 107.971 76.0657 108.113 76.1582C108.255 76.2507 109.971 75.2762 110.295 74.7791C110.619 74.282 110.479 73.6163 109.982 73.2922C109.485 72.9681 108.819 73.1083 108.495 73.6055Z" fill="#509B67"/>
<path d="M105.73 77.3746C106.29 77.5721 108.244 77.3025 108.301 77.1428C108.357 76.9831 107.005 75.5458 106.446 75.3483C105.886 75.1507 105.272 75.4442 105.075 76.0037C104.877 76.5633 105.17 77.177 105.73 77.3746Z" fill="#509B67"/>
<path d="M108.532 79.3662C108.532 79.3214 108.451 74.8619 106.083 72.4884L106.136 72.435C108.526 74.8305 108.607 79.3201 108.608 79.3652L108.532 79.3662Z" fill="#509B67"/>
<path d="M112.183 79.4991L112.08 79.4827C111.673 74.2217 110.067 70.4464 110.044 70.395L110.138 70.3545C110.161 70.4064 111.779 74.2065 112.183 79.4991Z" fill="#509B67"/>
<path d="M108.954 69.8656C109.152 70.09 110.08 70.4511 110.144 70.3945C110.208 70.3379 109.965 69.3727 109.767 69.1482C109.569 68.9238 109.227 68.9024 109.002 69.1005C108.778 69.2986 108.756 69.6411 108.954 69.8656Z" fill="white"/>
<path d="M110.376 69.0832C110.197 69.3233 110.035 70.3054 110.103 70.3565C110.172 70.4075 111.066 69.9711 111.245 69.7311C111.424 69.491 111.375 69.1514 111.135 68.9725C110.895 68.7936 110.555 68.8432 110.376 69.0832Z" fill="white"/>
<path d="M111.443 70.1273C111.154 70.0486 110.181 70.2566 110.158 70.3391C110.136 70.4215 110.869 71.0946 111.158 71.1733C111.447 71.252 111.745 71.0817 111.824 70.7928C111.902 70.504 111.732 70.2061 111.443 70.1273Z" fill="white"/>
<path d="M110.785 71.4294C110.757 71.1314 110.217 70.2949 110.132 70.3031C110.047 70.3113 109.678 71.2357 109.706 71.5337C109.735 71.8317 110 72.0499 110.298 72.0211C110.596 71.9923 110.814 71.7274 110.785 71.4294Z" fill="white"/>
<path d="M109.309 71.3653C109.574 71.2262 110.145 70.4107 110.105 70.335C110.065 70.2594 109.07 70.2663 108.805 70.4055C108.54 70.5446 108.438 70.8723 108.577 71.1374C108.716 71.4025 109.044 71.5045 109.309 71.3653Z" fill="white"/>
<path d="M109.929 70.307C109.944 70.2097 110.036 70.1433 110.133 70.1588C110.231 70.1743 110.297 70.2658 110.281 70.3632C110.266 70.4605 110.174 70.5269 110.077 70.5114C109.98 70.4959 109.913 70.4044 109.929 70.307Z" fill="#F99746"/>
<path d="M112.154 74.1202C111.859 74.4824 111.541 76.0021 111.645 76.0861C111.748 76.1702 113.171 75.5491 113.465 75.1869C113.76 74.8247 113.705 74.2923 113.343 73.9977C112.981 73.7031 112.448 73.758 112.154 74.1202Z" fill="#509B67"/>
<path d="M136.824 86L112.201 85.9888C112.326 84.8153 114.555 84.2225 114.348 83.0644C114.083 81.5806 103.114 81.0242 107.516 79.131C111.839 77.272 121.01 77.607 121.339 77.6194C121.345 77.62 121.348 77.62 121.348 77.62C122.955 77.7437 135.321 76.8781 136.805 79.1039C138.288 81.3295 136.824 86 136.824 86Z" fill="#509B67"/>
<path d="M63.8269 72.5172C63.8269 72.5172 63.9784 74.8776 64.4351 74.9104C64.4959 74.9148 66.7516 74.9099 66.7516 74.9099L69.6311 74.887C69.6311 74.887 69.6107 74.1932 68.7687 74.0483C67.9267 73.9035 66.5166 73.3151 66.0043 72.2037C65.4653 71.0345 63.8269 72.5172 63.8269 72.5172Z" fill="#AF5919"/>
<path d="M78.4803 70.5165C78.4803 70.5165 78.9197 72.8405 79.3771 72.8172C79.4379 72.814 81.676 72.5329 81.676 72.5329L84.531 72.1574C84.531 72.1574 84.4258 71.4713 83.5723 71.4307C82.719 71.3901 81.2474 70.9788 80.6028 69.9386C79.9247 68.8442 78.4803 70.5165 78.4803 70.5165Z" fill="#AF5919"/>
<path d="M73.3743 47.1256C73.3743 47.1256 72.6316 51.9438 69.8408 60.5002C67.05 69.0565 66.6752 72.7599 66.6752 72.7599L63.6612 72.6819C63.6612 72.6819 63.6152 63.3376 64.9006 59.0352C66.1859 54.7328 65.1463 43.5341 65.1463 43.5341L73.3743 47.1256Z" fill="#163560"/>
<path d="M74.1919 42.752C74.1919 42.752 78.2951 51.0383 79.3388 57.5977C80.3825 64.1572 81.2043 70.1593 81.2043 70.1593C81.2043 70.1593 80.1957 70.53 78.3063 70.6935C78.3063 70.6935 75.109 61.1697 74.7698 58.7978C74.4305 56.4259 64.9019 46.9433 65.6458 44.6028C66.3898 42.2624 74.1919 42.752 74.1919 42.752Z" fill="#1C468A"/>
<path d="M68.2468 26.7678C68.2468 26.7678 64.0092 30.8359 63.8065 32.5108C63.6037 34.1856 65.8623 36.8002 65.8623 36.8002L68.2468 26.7678Z" fill="#ED7D2B"/>
<path d="M68.9741 26.8042L70.5789 27.8514L72.894 27.4147C72.8615 27.2278 72.707 26.4533 72.5662 25.7518C72.5577 25.7104 72.5492 25.669 72.5412 25.6285C72.4207 25.0316 72.3166 24.5188 72.3166 24.5188L70.1513 23.5691L69.3441 23.2151C69.3462 23.2276 69.408 23.8777 69.4166 23.9726C69.5717 25.6578 68.9741 26.8042 68.9741 26.8042Z" fill="#FFB27D"/>
<path d="M72.2983 26.2668C72.2533 26.248 69.5075 25.4442 69.2096 25.5433C68.9117 25.6424 68.7365 26.2196 68.7365 26.2196L73.227 27.2245C73.227 27.2245 72.8722 26.507 72.2983 26.2668Z" fill="#ED7D2B"/>
<path d="M64.9492 44.6944C65.4189 46.8153 73.1604 47.0501 75.1516 45.1197C75.3781 44.8997 75.387 43.8782 75.2985 42.5013C75.1251 39.811 74.5787 35.7646 74.5533 33.6968C74.5408 32.6982 74.4014 31.6771 74.2166 30.75C73.8235 28.7741 73.2271 27.2243 73.2271 27.2243C73.2271 27.2243 69.4435 26.0101 68.7366 26.2196C65.3304 27.2284 64.4795 42.5736 64.9492 44.6944Z" fill="#F99746"/>
<path d="M75.2984 42.5013C75.1251 39.8109 75.0315 35.3687 75.006 33.3008C74.9937 32.3022 74.4014 31.6771 74.2166 30.7501L71.9413 30.3536C71.9413 30.3536 69.7373 39.4412 75.2984 42.5013Z" fill="#ED7D2B"/>
<path d="M71.2152 39.3186C71.2152 39.3186 73.7924 37.0669 74.7562 35.6424L75.4843 36.1345C75.4843 36.1345 73.4526 39.5349 71.5105 40.4314C69.5684 41.3279 71.2152 39.3186 71.2152 39.3186Z" fill="#163560"/>
<path d="M69.579 24.0019C70.0558 24.8056 71.8274 25.4975 72.5662 25.7518C72.5577 25.7104 72.5492 25.669 72.5412 25.6285C72.4206 25.0316 72.3165 24.5188 72.3165 24.5188L70.1513 23.5691C69.6732 23.5636 69.3823 23.6712 69.579 24.0019Z" fill="#FCA56B"/>
<path d="M73.0517 24.2861C73.0517 24.2861 69.7653 25.874 68.8078 23.8121C67.8505 21.7502 66.7815 20.5666 68.8394 19.4655C70.8973 18.3645 71.6732 18.9606 72.1601 19.5711C72.6471 20.1816 73.8819 23.8199 73.0517 24.2861Z" fill="#FFB27D"/>
<path d="M71.9939 19.3835C71.9939 19.3835 72.1475 21.9258 71.6123 21.8941C71.0771 21.8624 70.5944 21.8517 70.7829 22.5968C70.9715 23.342 71.8212 24.1084 70.2416 24.4803C68.662 24.852 65.749 21.0693 66.0721 20.2229C67.0046 17.7808 73.4172 16.3618 71.9939 19.3835Z" fill="#163560"/>
<path d="M66.7021 35.6623C66.7021 35.6623 66.309 35.7097 66.273 36.0794C66.237 36.4492 65.9888 40.9509 66.2139 41.0701C66.4389 41.1892 67.3748 41.141 67.4291 41.0701C67.4835 40.9991 67.6861 36.0589 67.5499 35.761C67.5499 35.761 67.0935 35.5842 66.7021 35.6623Z" fill="#163560"/>
<path d="M75.321 40.7977C75.321 40.7977 75.8637 41.2003 75.9777 41.637C76.1624 42.3444 76.0447 43.0061 75.3506 43.2721C75.0945 43.3702 75.0597 42.7624 74.87 42.5012C74.6803 42.24 74.0036 42.0956 74.1586 41.698C74.3134 41.3003 74.6161 40.5231 74.6161 40.5231L75.321 40.7977Z" fill="#FFB27D"/>
<path d="M74.4178 41.0323C74.4178 41.0323 73.9883 41.5042 73.9442 41.808C73.9 42.1118 73.8825 42.5814 73.8724 42.7818C73.8626 42.9822 73.9633 43.1479 74.1488 42.8214C74.3344 42.4949 74.4937 42.0609 74.6199 42.0615C74.7462 42.0621 74.4178 41.0323 74.4178 41.0323Z" fill="#FFB27D"/>
<path d="M71.444 26.6876C71.444 26.6876 74.1387 27.1641 76.2179 30.2139C78.2971 33.2637 79.0672 35.2142 78.6877 36.3158C78.3083 37.4175 76.4145 40.833 76.032 41.2951C75.7047 41.6907 74.7562 41.6625 74.1357 41.3951C74.1357 41.3951 75.3384 36.3134 74.8545 35.7644C74.6478 35.5298 71.9808 33.2774 71.5585 34.3691C70.8597 36.1755 71.444 26.6876 71.444 26.6876Z" fill="#F99746"/>
<path d="M73.7459 27.7257C73.7459 27.7257 73.3041 26.9455 72.2578 26.7898C71.2115 26.634 70.5789 27.8515 70.5789 27.8515L71.3613 28.1486C71.3613 28.1486 71.8647 27.2245 72.3196 27.2245C72.8939 27.2245 73.3585 27.4197 73.7459 27.7257Z" fill="#163560"/>
<path d="M72.05 31.4649C72.05 31.4649 70.9601 31.4503 69.5636 31.4176C67.1079 31.3614 63.703 31.2511 63.6156 31.0728C63.479 30.7926 63.6607 27.6762 64.5 27.4512C64.573 27.4315 64.6775 27.4152 64.8079 27.4029C66.1635 27.2729 70.308 27.5188 71.264 27.8265C72.3109 28.1641 72.05 31.4649 72.05 31.4649Z" fill="#163560"/>
<path d="M69.5637 31.4177C67.1081 31.3614 63.7032 31.2511 63.6157 31.0728C63.4792 30.7926 63.6608 27.6763 64.5001 27.4513C64.5732 27.4316 64.6776 27.4153 64.8081 27.4029C66.4115 27.4727 68.1897 27.6381 68.7743 27.8265C69.7481 28.1404 69.591 31.0137 69.5637 31.4177Z" fill="#1C468A"/>
<path d="M72.0498 31.4647C72.0498 31.4647 63.638 30.6288 62.1812 31.115C60.7244 31.6013 60.7244 41.5259 61.1796 42.2088C61.6349 42.8917 69.899 43.526 71.0707 43.1633C72.2424 42.8007 72.0498 31.4647 72.0498 31.4647Z" fill="#1C468A"/>
<path d="M69.5653 31.2459C69.5653 31.2459 68.4132 31.3508 68.3076 32.1703C68.202 32.9897 67.4748 42.967 68.1344 43.2309C68.7938 43.4949 71.5368 43.3881 71.6961 43.2309C71.8555 43.0738 72.4491 32.1248 72.0498 31.4646C72.0498 31.4646 70.7123 31.0726 69.5653 31.2459Z" fill="#163560"/>
<path d="M64.3488 28.5263C64.3488 28.5263 64.0804 29.9105 64.4268 30.1213C64.7732 30.3321 65.6146 30.3921 65.8237 30.1453C66.0328 29.8984 65.9876 28.5544 65.9876 28.5544L64.3488 28.5263Z" fill="#163560"/>
<path d="M64.3489 28.5263C64.3489 28.5263 64.4663 29.0861 65.1225 29.0974C65.7789 29.1086 65.9876 28.5544 65.9876 28.5544C65.9876 28.5544 65.097 28.1515 64.3489 28.5263Z" fill="#29589B"/>
<path d="M65.0039 28.879C65.0051 28.8114 65.0608 28.7576 65.1283 28.7588C65.1959 28.76 65.2497 28.8157 65.2486 28.8832C65.2474 28.9508 65.1917 29.0046 65.1242 29.0035C65.0566 29.0023 65.0028 28.9466 65.0039 28.879Z" fill="#F99746"/>
<path d="M66.8265 28.6949C66.8265 28.6949 66.47 30.059 66.8022 30.2916C67.1344 30.5242 67.9701 30.6378 68.1946 30.4049C68.4191 30.172 68.4601 28.8278 68.4601 28.8278L66.8265 28.6949Z" fill="#163560"/>
<path d="M66.8265 28.6949C66.8265 28.6949 66.9078 29.261 67.5621 29.3143C68.2163 29.3675 68.4601 28.8278 68.4601 28.8278C68.4601 28.8278 67.5971 28.3687 66.8265 28.6949Z" fill="#29589B"/>
<path d="M67.4578 29.0887C67.4633 29.0214 67.5223 28.9712 67.5897 28.9767C67.657 28.9822 67.7072 29.0413 67.7017 29.1086C67.6962 29.1759 67.6372 29.226 67.5698 29.2206C67.5024 29.2152 67.4523 29.1561 67.4578 29.0887Z" fill="#F99746"/>
<path d="M62.0218 32.2842C62.0218 32.2842 61.6576 33.5703 61.8625 33.906C62.0673 34.2417 66.6882 34.4694 66.9842 34.1962C67.2801 33.923 67.3256 32.4435 67.3256 32.4435L62.0218 32.2842Z" fill="#163560"/>
<path d="M62.0219 32.2841C62.0219 32.2841 62.6536 33.0809 64.2498 33.1036C65.8461 33.1264 67.3257 32.4435 67.3257 32.4435C67.3257 32.4435 63.5926 31.7833 62.0219 32.2841Z" fill="#29589B"/>
<path d="M64.1388 32.9386C64.2143 32.9386 64.2754 32.8775 64.2754 32.802C64.2754 32.7266 64.2143 32.6655 64.1388 32.6655C64.0634 32.6655 64.0023 32.7266 64.0023 32.802C64.0023 32.8775 64.0634 32.9386 64.1388 32.9386Z" fill="#F99746"/>
<path d="M66.0603 35.6096C66.0603 35.6096 62.2437 35.4466 62.0218 35.6096C61.7999 35.7726 61.7145 41.0309 61.8852 41.287C62.0559 41.543 65.9143 41.6626 65.9143 41.6626L66.0603 35.6096Z" fill="#29589B"/>
<path d="M147.551 73.8251C145.212 73.7114 141.693 73.5308 138.659 73.3336C133.59 73.0034 135.815 71.4374 138.165 69.211C140.514 66.984 130.869 68.2224 123.697 68.7188C116.526 69.2153 105.768 68.9642 109.6 65.8606C113.431 62.7563 141.281 59.2248 141.281 59.2248C141.393 59.3348 141.505 59.4461 141.615 59.5581C141.806 59.7497 141.994 59.9433 142.18 60.1392C142.948 60.9424 143.68 61.7832 144.343 62.6932C144.488 62.8905 144.629 63.0914 144.767 63.2954C144.928 63.536 145.084 63.7814 145.235 64.0324C145.716 64.8299 146.14 65.6838 146.492 66.6105C147.25 68.6144 147.665 70.9607 147.551 73.8251Z" fill="#DAED8E"/>
<path d="M13.3441 56.8463C10.9878 56.8463 7.18057 56.97 8.3423 57.7119C9.50403 58.4538 10.4932 59.5667 6.53632 59.6903C2.62456 59.8127 0.382105 60.01 0.331455 60.0143C0.0513818 57.7397 -0.0655059 55.389 0.036518 52.9939C0.036518 52.9939 3.70099 51.9496 5.92672 52.9939C8.15249 54.0382 9.75132 53.1985 11.4824 54.3114C13.2136 55.4243 16.8613 55.5479 17.6032 56.1662C18.3451 56.7845 15.6996 56.8463 13.3441 56.8463Z" fill="#82B378"/>
<path d="M104.367 82.2732L104.54 79.3242C104.54 79.3242 103.056 78.0894 102.844 78.0046C102.632 77.9198 99.4291 77.4298 99.4291 77.4298L99.5676 80.1996L100.571 82.2122L104.367 82.2732Z" fill="#EDC5A2"/>
<path d="M97.0712 82.1757C97.0712 82.1757 96.8641 80.0285 96.9744 79.7938C97.0847 79.5591 99.0952 77.3619 99.429 77.4298C99.7626 77.4977 101.603 78.1849 101.926 78.445C102.248 78.7052 102.997 80.737 102.984 80.9484C102.972 81.1597 102.908 82.2493 102.908 82.2493L97.0712 82.1757Z" fill="#F9DDBF"/>
<path d="M99.4061 82.9633L99.4289 81.6975C99.4324 81.499 99.3412 81.3112 99.1826 81.1917C98.8404 80.9339 98.2583 80.5022 98.1477 80.4631C98.0486 80.428 97.0845 80.3116 96.3759 80.2292C95.9852 80.1838 95.652 80.5091 95.6877 80.9009L95.792 82.0466C95.7997 82.1318 95.825 82.2143 95.8662 82.2893L96.4202 83.2959C96.5318 83.4987 96.7471 83.6223 96.9783 83.6166L98.8019 83.5716C99.1337 83.5633 99.4001 83.2952 99.4061 82.9633Z" fill="#EDC5A2"/>
<path d="M94.5886 83.6881C94.2677 83.6972 93.9933 83.4597 93.9557 83.1409C93.9004 82.6707 93.8399 82.0608 93.8844 81.955C93.9585 81.7791 95.8948 80.2066 96.1422 80.2465C96.3896 80.2865 97.2407 80.6329 97.4855 80.8146C97.7304 80.9963 98.342 82.4681 98.3392 82.624L98.3326 82.9915C98.3266 83.3226 98.0615 83.5904 97.7305 83.5997L94.5886 83.6881Z" fill="#F9DDBF"/>
<path d="M48.3293 75.3382L48.31 74.2677C48.3069 74.0999 48.3842 73.9411 48.5182 73.8401C48.8077 73.622 49.2999 73.2569 49.3934 73.2239C49.4773 73.1943 50.2926 73.0958 50.8918 73.0261C51.2221 72.9877 51.5039 73.2629 51.4738 73.5941L51.3856 74.563C51.3791 74.6351 51.3577 74.7049 51.3229 74.7682L50.8544 75.6195C50.76 75.791 50.578 75.8955 50.3824 75.8907L48.8403 75.8526C48.5597 75.8456 48.3344 75.6188 48.3293 75.3382Z" fill="#EDC5A2"/>
<path d="M52.4032 75.9511C52.6746 75.9588 52.9066 75.758 52.9384 75.4883C52.9852 75.0907 53.0364 74.5748 52.9987 74.4855C52.936 74.3367 51.2986 73.0069 51.0894 73.0407C50.8801 73.0744 50.1604 73.3675 49.9533 73.5211C49.7462 73.6747 49.2291 74.9194 49.2314 75.0511L49.237 75.3619C49.2421 75.6419 49.4663 75.8683 49.7462 75.8763L52.4032 75.9511Z" fill="#F9DDBF"/>
<path d="M43.9509 76.1251L43.9404 75.543C43.9387 75.4518 43.9807 75.3654 44.0537 75.3105C44.211 75.192 44.4787 74.9934 44.5295 74.9754C44.5751 74.9593 45.0185 74.9057 45.3443 74.8679C45.524 74.847 45.6772 74.9966 45.6608 75.1767L45.6129 75.7036C45.6093 75.7428 45.5977 75.7807 45.5787 75.8152L45.324 76.2781C45.2727 76.3713 45.1737 76.4281 45.0673 76.4256L44.2287 76.4049C44.0762 76.4011 43.9536 76.2778 43.9509 76.1251Z" fill="#EDC5A2"/>
<path d="M46.1663 76.4586C46.3139 76.4627 46.44 76.3535 46.4573 76.2069C46.4828 75.9906 46.5106 75.7102 46.4901 75.6616C46.4561 75.5806 45.5656 74.8576 45.4519 74.8759C45.3381 74.8942 44.9467 75.0536 44.8341 75.1371C44.7215 75.2206 44.4403 75.8975 44.4416 75.9692L44.4446 76.1382C44.4474 76.2904 44.5693 76.4135 44.7215 76.4178L46.1663 76.4586Z" fill="#F9DDBF"/>
<path d="M87.4311 78.0174L87.4207 77.4353C87.419 77.344 87.461 77.2577 87.5339 77.2028C87.6913 77.0842 87.959 76.8857 88.0098 76.8677C88.0554 76.8515 88.4987 76.798 88.8245 76.7601C89.0043 76.7393 89.1575 76.8889 89.141 77.069L89.0931 77.5959C89.0896 77.6351 89.0779 77.673 89.059 77.7074L88.8042 78.1704C88.7529 78.2636 88.6539 78.3204 88.5475 78.3178L87.709 78.2972C87.5564 78.2933 87.4338 78.1701 87.4311 78.0174Z" fill="#EDC5A2"/>
<path d="M89.6465 78.3507C89.7941 78.3548 89.9202 78.2457 89.9375 78.0991C89.963 77.8828 89.9907 77.6023 89.9703 77.5537C89.9362 77.4728 89.0458 76.7497 88.9321 76.768C88.8183 76.7864 88.4269 76.9457 88.3143 77.0293C88.2016 77.1128 87.9204 77.7897 87.9217 77.8613L87.9248 78.0303C87.9275 78.1825 88.0494 78.3057 88.2016 78.31L89.6465 78.3507Z" fill="#F9DDBF"/>
<path d="M32.2535 84.1513L32.243 83.5692C32.2413 83.4779 32.2833 83.3915 32.3562 83.3366C32.5136 83.2181 32.7813 83.0195 32.8322 83.0015C32.8777 82.9854 33.3211 82.9318 33.6469 82.894C33.8266 82.8731 33.9798 83.0227 33.9634 83.2028L33.9155 83.7297C33.912 83.7689 33.9004 83.8069 33.8814 83.8413L33.6266 84.3042C33.5753 84.3975 33.4764 84.4543 33.37 84.4517L32.5314 84.431C32.3787 84.4272 32.2562 84.3039 32.2535 84.1513Z" fill="#EDC5A2"/>
<path d="M34.4689 84.4846C34.6165 84.4888 34.7426 84.3796 34.7599 84.233C34.7854 84.0167 34.8132 83.7362 34.7927 83.6876C34.7586 83.6067 33.8682 82.8836 33.7544 82.902C33.6407 82.9203 33.2493 83.0796 33.1367 83.1632C33.0241 83.2467 32.7428 83.9236 32.7441 83.9952L32.7471 84.1643C32.7499 84.3165 32.8718 84.4396 33.024 84.4439L34.4689 84.4846Z" fill="#F9DDBF"/>
<path d="M45.6693 74.4259L45.662 74.0205C45.6609 73.9569 45.6901 73.8968 45.7409 73.8585C45.8505 73.7759 46.037 73.6376 46.0724 73.6251C46.1041 73.6139 46.413 73.5765 46.6399 73.5502C46.7651 73.5356 46.8717 73.6398 46.8604 73.7653L46.8269 74.1323C46.8245 74.1596 46.8164 74.1861 46.8032 74.21L46.6257 74.5325C46.59 74.5975 46.5211 74.6371 46.447 74.6352L45.8628 74.6208C45.7566 74.6182 45.6712 74.5322 45.6693 74.4259Z" fill="#EDC5A2"/>
<path d="M47.2125 74.6581C47.3153 74.661 47.4032 74.585 47.4153 74.4828C47.433 74.3322 47.4524 74.1368 47.4381 74.103C47.4144 74.0466 46.7942 73.543 46.7149 73.5557C46.6356 73.5685 46.3631 73.6795 46.2847 73.7377C46.2062 73.7959 46.0103 74.2674 46.0112 74.3173L46.0133 74.435C46.0153 74.541 46.1002 74.6268 46.2062 74.6298L47.2125 74.6581Z" fill="#F9DDBF"/>
</svg>
