<svg width="869" height="336" viewBox="0 0 869 336" fill="none" xmlns="http://www.w3.org/2000/svg">
<g filter="url(#filter0_d_343_220)">
<g clip-path="url(#clip0_343_220)">
<path d="M865 0H4V328H865V0Z" fill="white"/>
<path d="M4 328C4 328 30.3477 252.074 266.969 247.136C424.244 243.854 554.749 198.653 594.431 156.417C662.263 84.2171 658.125 -6.55371 865 -2.21133e-05V328H4Z" fill="#D6EDF2"/>
<mask id="mask0_343_220" style="mask-type:luminance" maskUnits="userSpaceOnUse" x="4" y="0" width="861" height="328">
<path d="M865 0H4V328H865V0Z" fill="white"/>
</mask>
<g mask="url(#mask0_343_220)">
<path d="M413.467 127.19L421.238 135.569L422.31 126.624C434.596 126.662 444.048 135.991 445.079 137.047L445.128 137.014C444.609 135.567 439.886 122.063 441.302 113.568L450.143 113.001L443.207 106.335C443.207 106.335 446.026 94.8961 462.969 91.4395C462.969 91.4395 462.057 104.956 464.387 113.632L457.381 116.981L464.706 118.611C464.706 118.611 457.165 127.633 454.763 133.722C458.186 130.148 464.844 124.487 473.542 123.34L475.743 132.076L482.383 122.773C482.383 122.773 502.244 123.312 503.84 143.643C503.84 143.643 479.666 140.442 470.148 144.311L463.606 137.978L464.126 146.106C464.126 146.106 461.641 146.433 458.84 146.662C459.476 147.043 460.109 147.43 460.734 147.829L462.889 149.276C463.602 149.767 464.28 150.305 464.978 150.818L466.02 151.599C466.366 151.861 466.689 152.149 467.025 152.423L469.025 154.094C469.686 154.659 470.303 155.269 470.945 155.857L471.901 156.747C472.222 157.042 472.539 157.341 472.834 157.66L474.646 159.543L475.553 160.487C475.845 160.81 476.123 161.145 476.41 161.473C481.031 166.706 485.026 172.5 488.47 178.602L490.951 183.24L493.192 187.994L493.75 189.188C493.93 189.587 494.085 189.996 494.254 190.4L495.248 192.832L496.242 195.27C496.415 195.675 496.562 196.087 496.704 196.5L497.14 197.739L498.883 202.704L500.391 207.735L501.141 210.259L501.781 212.803L503.049 217.904C503.162 218.329 503.254 218.757 503.336 219.185L503.596 220.47L504.117 223.041L504.638 225.617C504.811 226.476 504.995 227.334 505.118 228.198L505.942 233.377L506.354 235.972C506.503 236.837 506.572 237.703 506.685 238.571C508.476 252.442 509.127 266.417 509.065 280.359L492.129 279.372C493.566 266.144 494.327 252.844 494.001 239.578C493.98 238.749 494.001 237.912 493.946 237.089L493.811 234.61L493.545 229.643C493.515 228.812 493.426 227.99 493.346 227.167L493.108 224.697L492.869 222.222L492.751 220.984C492.716 220.569 492.671 220.157 492.607 219.751L491.914 214.837L491.563 212.376L491.104 209.942L490.181 205.062L489.032 200.241L488.744 199.033C488.652 198.629 488.554 198.227 488.431 197.833L487.738 195.456L487.044 193.074C486.925 192.678 486.819 192.276 486.69 191.884L486.283 190.716L484.647 186.033L482.773 181.442C480.137 175.379 476.951 169.537 473.097 164.128C472.859 163.789 472.627 163.442 472.383 163.106L471.618 162.126L470.085 160.158C469.835 159.823 469.564 159.509 469.289 159.199L468.469 158.259C467.916 157.638 467.386 156.99 466.814 156.387L465.072 154.593C464.778 154.298 464.496 153.985 464.192 153.702L463.273 152.852C462.656 152.291 462.057 151.703 461.421 151.161L459.493 149.553C458.315 148.614 457.103 147.714 455.862 146.85C455.401 146.868 454.953 146.88 454.527 146.882C451.662 151.793 452.655 167.429 452.655 167.429L445.786 164.402L449.454 171.254C442.446 176.867 435.191 188.301 435.191 188.301C423.578 175.476 428.068 164.585 428.068 164.585L437.6 163.322L430.808 157.626C432.511 154.253 435.739 150.803 438.933 147.921C436.523 148.011 434.545 148.005 434.545 148.005L434.025 139.876L428.344 146.993C418.411 144.372 394.842 150.633 394.842 150.633C393.837 130.261 413.467 127.19 413.467 127.19Z" fill="#D6EDF2"/>
<path d="M803.784 232.916C798.558 222.162 837.711 235.551 842.788 218.055C842.788 218.055 853.418 202.07 851.125 191.871C851.125 191.871 820.685 212.816 813.069 201.889C805.453 190.963 842.07 196.84 848.96 185.041C848.96 185.041 856.762 164.923 840.769 150.837C824.776 136.751 823.829 130.383 823.829 130.383C823.829 130.383 774.876 145.193 770.277 160.693C770.277 160.693 773.112 172.124 786.107 180.857C799.103 189.59 777.818 190.282 768.993 180.23C760.168 170.177 758.512 168.297 758.512 168.297L748.837 190.685C748.837 190.685 754.487 202.351 776.198 208.282C797.909 214.215 755.513 214.818 744.201 200.506C744.201 200.506 738.986 231.82 778.872 236.389L779.345 234.894L781.486 228.561C784.398 220.142 787.659 211.855 791.184 203.699C792.907 199.603 794.822 195.591 796.691 191.568C797.651 189.567 798.671 187.594 799.657 185.608L801.147 182.635L802.728 179.707L805.896 173.865L809.267 168.139L810.954 165.282L812.75 162.489L816.334 156.913L813.167 162.734L811.585 165.64L810.114 168.606L807.184 174.533L804.463 180.558L803.111 183.57L801.85 186.623C801.017 188.661 800.152 190.683 799.348 192.729C797.789 196.846 796.189 200.939 794.784 205.106C791.896 213.406 789.282 221.795 787.028 230.272L785.383 236.636L784.95 238.457C792.78 244.697 821.182 264.312 834.785 232.802C834.786 232.804 809.01 243.669 803.784 232.916ZM793.058 167.015C789.782 164.216 788.135 160.761 789.38 159.301C790.625 157.841 794.29 158.927 797.567 161.726C800.843 164.526 802.49 167.98 801.245 169.44C800.001 170.902 796.335 169.816 793.058 167.015ZM784.101 203.338C782.826 204.833 778.969 203.631 775.485 200.654C772.001 197.677 770.21 194.051 771.485 192.556C772.76 191.061 776.616 192.263 780.101 195.24C783.583 198.217 785.374 201.843 784.101 203.338ZM809.65 181.838C809.308 178.823 814.514 175.754 821.279 174.983C828.044 174.212 833.805 176.032 834.149 179.047C834.491 182.062 829.285 185.131 822.52 185.901C815.755 186.673 809.993 184.853 809.65 181.838ZM804.666 216.213C801.615 216.085 799.205 214.477 799.283 212.623C799.36 210.768 801.896 209.368 804.947 209.496C807.999 209.625 810.408 211.232 810.331 213.086C810.253 214.942 807.716 216.341 804.666 216.213Z" fill="white"/>
<path d="M732.463 187.481C723.217 182.948 756.913 171.261 751.097 156.678C751.097 156.678 749.855 140.174 742.896 134.46C742.896 134.46 733.303 164.853 722.342 161.471C711.381 158.089 739.374 142.643 737.808 130.969C737.808 130.969 732.455 113.156 714.129 112.074C695.802 110.992 691.786 107.168 691.786 107.168C691.786 107.168 666.364 143.218 671.447 156.193C671.447 156.193 679.427 162.457 692.883 161.492C706.339 160.527 692.241 172.297 680.921 170.15C669.601 168.004 667.479 167.606 667.479 167.606L672.762 187.954C672.762 187.954 682.779 192.882 700.674 185.387C718.568 177.893 690.079 200.81 674.812 197.09C674.812 197.09 687.852 221.137 717.374 203.068L716.904 201.801L715.004 196.362C712.524 189.095 710.352 181.733 708.427 174.318C707.429 170.621 706.605 166.878 705.745 163.152C705.338 161.282 704.986 159.4 704.605 157.527L704.043 154.716L703.567 151.888L702.627 146.235L701.885 140.555L701.518 137.718L701.259 134.868L700.742 129.175L701.673 134.812L702.137 137.626L702.708 140.423L703.855 146.006L705.197 151.544L705.872 154.309L706.633 157.053C707.146 158.88 707.629 160.713 708.167 162.531C709.288 166.156 710.369 169.786 711.621 173.364C714.054 180.538 716.72 187.625 719.678 194.582L721.93 199.78L722.6 201.247C731.225 201.331 760.914 199.582 753.469 170.949C753.469 170.949 741.708 192.015 732.463 187.481ZM690.275 148.395C686.565 148.232 683.618 146.759 683.69 145.105C683.763 143.452 686.829 142.245 690.538 142.408C694.248 142.571 697.195 144.043 697.123 145.697C697.05 147.351 693.984 148.559 690.275 148.395ZM703.423 177.833C703.348 179.525 700.091 180.756 696.147 180.583C692.204 180.409 689.066 178.897 689.141 177.204C689.215 175.512 692.472 174.28 696.416 174.454C700.36 174.627 703.497 176.14 703.423 177.833ZM709.399 149.659C707.57 147.792 709.482 142.943 713.671 138.828C717.859 134.713 722.739 132.89 724.568 134.758C726.397 136.625 724.485 141.474 720.296 145.589C716.108 149.704 711.229 151.527 709.399 149.659ZM724.216 175.664C722.075 177.197 719.587 177.384 718.656 176.082C717.727 174.781 718.709 172.484 720.85 170.951C722.991 169.418 725.479 169.231 726.409 170.533C727.339 171.834 726.357 174.131 724.216 175.664Z" fill="white"/>
<path d="M424.397 165.953L376.197 155.429L375.963 156.499L363.75 212.572L411.951 223.097L424.397 165.953Z" fill="#D6EDF2"/>
<path d="M419.762 168.607L379.27 159.764L369.805 203.209L410.298 212.052L419.762 168.607Z" fill="white"/>
<mask id="mask1_343_220" style="mask-type:luminance" maskUnits="userSpaceOnUse" x="369" y="159" width="51" height="54">
<path d="M419.762 168.607L379.27 159.764L369.805 203.209L410.298 212.052L419.762 168.607Z" fill="white"/>
</mask>
<g mask="url(#mask1_343_220)">
<path d="M379.953 155.751L374.9 158.782L408.181 214.391L413.234 211.359L379.953 155.751Z" fill="#D6EDF2"/>
<path d="M375.304 168.662L372.818 170.244L399.899 212.906L402.385 211.324L375.304 168.662Z" fill="#D6EDF2"/>
</g>
<path d="M361.819 190.506L318.393 213.944L318.913 214.908L346.112 265.427L389.538 241.988L361.819 190.506Z" fill="#D6EDF2"/>
<path d="M360.018 195.517L323.537 215.207L344.612 254.348L381.092 234.658L360.018 195.517Z" fill="white"/>
<mask id="mask2_343_220" style="mask-type:luminance" maskUnits="userSpaceOnUse" x="323" y="195" width="59" height="60">
<path d="M360.018 195.517L323.537 215.207L344.612 254.348L381.092 234.658L360.018 195.517Z" fill="white"/>
</mask>
<g mask="url(#mask2_343_220)">
<path d="M323.392 198.699L319.343 204.341L381.282 248.899L385.33 243.257L323.392 198.699Z" fill="#D6EDF2"/>
<path d="M324.417 214.849L322.467 217.722L371.661 251.185L373.61 248.312L324.417 214.849Z" fill="#D6EDF2"/>
</g>
<path d="M432.258 236.404L385.286 221.302L384.953 222.345L367.427 276.988L414.399 292.089L432.258 236.404Z" fill="#D6EDF2"/>
<path d="M427.417 238.573L387.957 225.888L374.379 268.226L413.84 280.911L427.417 238.573Z" fill="white"/>
<mask id="mask3_343_220" style="mask-type:luminance" maskUnits="userSpaceOnUse" x="374" y="225" width="54" height="56">
<path d="M427.417 238.573L387.957 225.888L374.379 268.226L413.84 280.911L427.417 238.573Z" fill="white"/>
</mask>
<g mask="url(#mask3_343_220)">
<path d="M388.982 221.983L383.663 224.515L411.466 283.06L416.785 280.528L388.982 221.983Z" fill="#D6EDF2"/>
<path d="M383.115 234.393L380.49 235.729L403.36 280.792L405.985 279.456L383.115 234.393Z" fill="#D6EDF2"/>
</g>
<path d="M553.736 151.384L611.945 133.898L585.52 316.274L526.85 336.944L553.736 151.384Z" fill="#B9DEE6"/>
<path d="M662.791 167.223L721 149.736L694.576 332.114L635.906 352.784L662.791 167.223Z" fill="#B9DEE6"/>
<path d="M530.751 285.402C527.266 292.902 527.475 299.737 524.45 301.3C521.425 302.862 514.496 298.253 515.014 291.923C515.532 285.593 515.905 269.213 510.314 266.411C504.723 263.608 504.161 264.728 504.742 255.204C505.322 245.68 508.386 242.924 509.696 237.109C511.005 231.295 512.423 218.291 512.423 218.291C512.423 218.291 503.153 213.742 501.7 212.731C500.247 211.72 490.112 206.245 490.965 200.364L476.465 300.434L526.851 336.943L535.055 280.318C533.657 280.889 532.276 282.122 530.751 285.402Z" fill="#97C5CF"/>
<path d="M525.118 224.94C519.529 222.126 513.562 238.473 517.92 241.508C522.278 244.543 530.665 247.362 532.51 248.431C533.413 248.953 536.573 249.422 539.417 250.21L542.827 226.675C539.195 227.887 535.015 228.378 535.015 228.378C535.015 228.378 530.708 227.753 525.118 224.94Z" fill="#97C5CF"/>
<path d="M530.865 154.921C535.426 167.592 533.172 174.871 537.7 176.729C542.229 178.588 541.718 182.116 541.718 182.116C541.718 182.116 546.044 177.803 550.078 176.628L553.735 151.382L502.889 118.056L498.745 146.652C498.745 146.654 526.305 142.25 530.865 154.921Z" fill="#97C5CF"/>
<path d="M647.149 253.894C647.149 253.894 636.307 237.187 636.378 240.946C636.451 244.706 635.664 254.388 629.925 258.186C624.186 261.985 627.786 264.053 623.88 273.985C619.973 283.918 609.513 290.119 608.304 289.944C607.096 289.768 599.602 281.885 599.602 281.885C599.602 281.885 605.033 265.689 605.047 259.205C605.056 255.069 599.102 255.722 594.194 256.411L585.521 316.274L635.907 352.783L649.439 259.382C648.076 256.156 647.149 253.894 647.149 253.894Z" fill="#97C5CF"/>
<path d="M621.81 173.315C631.184 170.353 625.079 178.422 628.871 182.061C632.662 185.699 634.83 181.383 640.927 179.75C647.024 178.118 657.087 189.557 657.951 189.991C658.162 190.097 658.641 190.541 659.328 191.128L662.792 167.223L611.945 133.896L605.274 179.935C609.081 176.581 613.883 175.821 621.81 173.315Z" fill="#97C5CF"/>
<path d="M603.734 227.823C612.148 229.354 615.578 220.587 616.703 219.207C617.829 217.827 612.532 211.807 610.646 205.665C609.293 201.262 605.391 199.19 602.699 197.712L598.399 227.392C600.119 227.375 601.91 227.491 603.734 227.823Z" fill="#B9DEE6"/>
<path d="M544.371 254.156C545.009 252.205 542.384 251.032 539.417 250.21L535.054 280.319C536.853 279.585 538.681 279.95 540.879 278.468C544.787 275.832 543.12 257.977 544.371 254.156Z" fill="#26A8C4"/>
<path d="M544.981 225.823C548.846 223.982 551.51 208.358 548.061 199.05C544.611 189.742 558.732 180.585 554.431 177.158C553.214 176.189 551.668 176.165 550.078 176.629L542.826 226.675C543.582 226.423 544.315 226.14 544.981 225.823Z" fill="#26A8C4"/>
<path d="M532.51 248.429C530.666 247.361 522.279 244.542 517.92 241.507C513.562 238.472 519.529 222.125 525.118 224.939C530.707 227.752 535.015 228.377 535.015 228.377C535.015 228.377 539.194 227.886 542.827 226.674L550.079 176.628C546.045 177.803 541.719 182.116 541.719 182.116C541.719 182.116 542.23 178.588 537.701 176.729C533.173 174.87 535.427 167.592 530.866 154.921C526.305 142.25 498.746 146.653 498.746 146.653L490.965 200.364C490.113 206.245 500.248 211.72 501.7 212.731C503.153 213.742 512.423 218.291 512.423 218.291C512.423 218.291 511.005 231.296 509.696 237.109C508.387 242.924 505.322 245.681 504.742 255.204C504.161 264.726 504.724 263.608 510.314 266.411C515.905 269.213 515.532 285.593 515.014 291.923C514.496 298.253 521.425 302.862 524.45 301.299C527.475 299.737 527.266 292.902 530.751 285.402C532.276 282.122 533.657 280.889 535.054 280.318L539.417 250.209C536.572 249.421 533.412 248.953 532.51 248.429Z" fill="#208EA6"/>
<path d="M584.907 230.03C582.315 230.889 578.584 239.611 579.227 241.558C579.87 243.505 585.845 255.49 588.13 256.748C588.957 257.203 591.408 256.802 594.193 256.411L598.398 227.392C592.18 227.454 586.937 229.357 584.907 230.03Z" fill="#26A8C4"/>
<path d="M603.271 182.049C599.115 187.313 598.712 194.358 600.304 196.133C600.756 196.636 601.635 197.129 602.697 197.711L605.273 179.934C604.579 180.548 603.912 181.237 603.271 182.049Z" fill="#26A8C4"/>
<path d="M660.127 281.411C661.94 281.674 678.861 281.971 683.923 276.838C688.985 271.706 691.289 264.32 693.895 256.977C696.501 249.635 698.946 237.02 698.404 227.985C697.862 218.95 703.586 207.12 702.65 200.807C701.714 194.495 696.325 188.403 693.441 187.735C687.583 186.378 675.598 193.79 669.853 195.118C665.518 196.12 661.439 192.938 659.327 191.129L649.438 259.383C652.806 267.357 658.837 281.224 660.127 281.411Z" fill="#26A8C4"/>
<path d="M605.047 259.205C605.034 265.688 599.602 281.885 599.602 281.885C599.602 281.885 607.097 289.768 608.304 289.944C609.513 290.119 619.973 283.918 623.88 273.985C627.787 264.053 624.186 261.986 629.925 258.186C635.664 254.387 636.45 244.706 636.378 240.946C636.306 237.187 647.149 253.894 647.149 253.894C647.149 253.894 648.076 256.157 649.439 259.383L659.328 191.129C658.641 190.542 658.161 190.098 657.95 189.992C657.088 189.558 647.024 178.119 640.927 179.751C634.829 181.384 632.662 185.702 628.871 182.062C625.08 178.424 631.184 170.354 621.809 173.316C613.883 175.821 609.081 176.582 605.274 179.936L602.698 197.714C605.391 199.191 609.292 201.263 610.645 205.666C612.531 211.808 617.828 217.828 616.702 219.208C615.577 220.588 612.147 229.355 603.733 227.824C601.909 227.492 600.117 227.377 598.398 227.393L594.193 256.412C599.102 255.722 605.056 255.069 605.047 259.205Z" fill="#208EA6"/>
<path d="M686.927 305.068C681.968 300.255 678.474 301.679 674.761 301.757C671.048 301.835 666.097 295.557 663.588 297.972C661.078 300.387 655.33 303.876 655.364 307.895C655.399 311.915 652.509 310.569 657.032 315.55C661.554 320.531 667.337 321.061 672.741 317.831C678.144 314.601 685.481 315.049 685.481 315.049C685.481 315.049 689.602 307.665 686.927 305.068Z" fill="#26A8C4"/>
<path d="M593.876 174.509C594.578 169.67 594.017 169.278 592.774 165.084C591.531 160.888 592.037 155.268 583.888 156.16C579.796 156.607 575.777 156.542 572.572 156.804C568.852 157.108 566.214 160.561 566.809 164.251C567.277 167.147 568.023 171 569.148 174.874C571.41 182.672 562.558 184.166 563.943 192.705C565.328 201.245 563.794 211.831 569.061 211.669C574.327 211.507 582.152 206.468 582.824 195.448C583.494 184.427 593.175 179.348 593.876 174.509Z" fill="#26A8C4"/>
<path d="M616.899 233.457C616.92 233.681 616.926 233.816 616.926 233.816C616.926 233.816 616.926 233.678 616.899 233.457Z" fill="#208EA6"/>
<path d="M622.071 231.023C617.878 230.415 616.926 233.815 616.926 233.815C615.572 231.132 610.765 230.221 609.904 234.598C609.043 238.974 615.033 246.879 615.033 246.879C615.033 246.879 619.485 244.44 623.366 240.557C627.245 236.675 626.263 231.632 622.071 231.023ZM615.718 242.148C613.768 241.865 612.418 240.053 612.701 238.101C612.983 236.148 614.793 234.796 616.742 235.079C618.692 235.362 620.042 237.174 619.76 239.127C619.477 241.079 617.667 242.432 615.718 242.148Z" fill="#E9B50A"/>
<path d="M609.904 234.598C610.766 230.221 615.571 231.132 616.925 233.815C616.925 233.815 616.92 233.68 616.898 233.456C616.782 232.545 616.158 230.165 612.784 229.674C608.591 229.065 606.218 233.62 608.837 238.447C611.455 243.273 615.032 246.878 615.032 246.878C615.032 246.878 609.043 238.974 609.904 234.598Z" fill="#F0C741"/>
<path d="M832.959 229.105C830.661 228.603 829.203 226.33 829.705 224.029L836.812 191.402C838.058 185.68 834.424 180.011 828.71 178.764L782.661 168.71C776.947 167.462 771.285 171.1 770.039 176.822L762.933 209.45C762.432 211.751 760.162 213.21 757.863 212.709C755.565 212.208 754.107 209.935 754.608 207.633L761.714 175.006C763.961 164.69 774.172 158.126 784.475 160.376L830.524 170.431C840.828 172.68 847.382 182.904 845.135 193.22L838.028 225.848C837.528 228.148 835.258 229.607 832.959 229.105Z" fill="#B88E08"/>
<path d="M877.248 224.239L730.71 192.245L730.027 192.095C726.944 191.569 713.997 190.938 703.088 214.217L686.866 288.695C686.866 288.695 682.9 300.089 720.707 313.916C758.513 327.743 821.965 343.083 821.965 343.083C821.965 343.083 820.882 343.067 818.923 343.023L849.904 349.787C862.718 352.584 875.371 344.453 878.166 331.623L895.392 252.534C898.184 239.705 890.062 227.037 877.248 224.239Z" fill="#E9B50A"/>
<path d="M720.706 313.917C682.9 300.089 686.865 288.696 686.865 288.696L703.087 214.218C713.997 190.938 726.944 191.57 730.026 192.097L719.616 189.824C706.802 187.026 694.149 195.158 691.354 207.988L674.128 287.077C671.334 299.907 679.457 312.575 692.27 315.372L818.919 343.024C820.878 343.069 821.96 343.084 821.96 343.084C821.96 343.084 758.512 327.744 720.706 313.917Z" fill="#F0D98B"/>
<path d="M749.353 190.464L733.63 187.03C732.689 186.825 731.761 187.421 731.556 188.363L702.521 321.674C702.316 322.616 702.911 323.546 703.852 323.751L719.575 327.183C720.516 327.388 721.444 326.792 721.649 325.85L750.684 192.539C750.889 191.598 750.293 190.669 749.353 190.464Z" fill="#B88E08"/>
<path d="M865.67 215.86L849.947 212.427C849.006 212.222 848.078 212.818 847.873 213.76L818.838 347.071C818.633 348.013 819.228 348.943 820.169 349.148L835.892 352.58C836.833 352.785 837.761 352.189 837.965 351.247L867.001 217.936C867.206 216.995 866.61 216.065 865.67 215.86Z" fill="#B88E08"/>
<path d="M737.388 260.716L733.023 280.754L710.53 275.843L714.895 255.804L737.388 260.716ZM738.385 256.569L715.714 251.619C713.464 251.128 711.243 252.556 710.752 254.809L706.349 275.024C705.859 277.277 707.285 279.5 709.535 279.992L732.205 284.942C734.456 285.433 736.676 284.005 737.168 281.752L741.57 261.537C742.061 259.284 740.635 257.059 738.385 256.569Z" fill="#208EA6"/>
<path d="M853.905 286.156L849.54 306.194L827.047 301.283L831.41 281.244L853.905 286.156ZM854.901 282.009L832.231 277.059C829.98 276.568 827.76 277.996 827.268 280.249L822.866 300.464C822.375 302.717 823.801 304.94 826.051 305.432L848.722 310.382C850.972 310.873 853.193 309.445 853.684 307.192L858.087 286.977C858.577 284.724 857.151 282.499 854.901 282.009Z" fill="#208EA6"/>
<path d="M826.384 234.04L763.688 220.349L756.465 253.507L819.16 267.199L826.384 234.04Z" fill="#F0D98B"/>
<path d="M819.96 237.974L767.891 226.603L762.887 249.573L814.956 260.944L819.96 237.974Z" fill="white"/>
<path d="M371.675 212.066L349.467 219.02C346.986 219.797 345.604 222.44 346.38 224.924L351.391 240.97L382.583 231.203L377.571 215.158C376.796 212.672 374.155 211.289 371.675 212.066Z" fill="#B88E08"/>
<path d="M371.608 215.208L351.31 221.564C349.717 222.063 348.828 223.762 349.327 225.358L353.952 240.168L380.024 232.004L375.399 217.196C374.899 215.598 373.202 214.71 371.608 215.208Z" fill="#F5D160"/>
<path d="M489.949 192.607L337.543 240.329C332.036 242.055 328.966 247.923 330.69 253.437L362.33 354.733C364.052 360.247 369.914 363.32 375.422 361.595L527.828 313.873C533.335 312.149 536.404 306.279 534.681 300.765L503.041 199.47C501.319 193.955 495.458 190.883 489.949 192.607Z" fill="#E9B50A"/>
<path d="M473.744 296.585C484.494 273.883 474.827 246.754 452.153 235.991C429.479 225.227 402.383 234.906 391.633 257.608C380.883 280.31 390.549 307.439 413.224 318.202C435.898 328.965 462.994 319.287 473.744 296.585Z" fill="#B88E08"/>
<path d="M460.187 291.227C467.98 276.011 461.978 257.351 446.781 249.548C431.584 241.745 412.947 247.755 405.153 262.97C397.36 278.186 403.362 296.846 418.559 304.649C433.756 312.452 452.394 306.442 460.187 291.227Z" fill="#208EA6"/>
<mask id="mask4_343_220" style="mask-type:luminance" maskUnits="userSpaceOnUse" x="401" y="246" width="63" height="63">
<path d="M460.187 291.227C467.98 276.011 461.978 257.351 446.781 249.548C431.584 241.745 412.947 247.755 405.153 262.97C397.36 278.186 403.362 296.846 418.559 304.649C433.756 312.452 452.394 306.442 460.187 291.227Z" fill="white"/>
</mask>
<g mask="url(#mask4_343_220)">
<path d="M404.498 243.34L400.01 250.85L473.152 294.673L477.64 287.163L404.498 243.34Z" fill="#D6EDF2"/>
<path d="M396.377 259.909L394.453 263.128L467.595 306.95L469.518 303.732L396.377 259.909Z" fill="#D6EDF2"/>
</g>
<path d="M381.306 293.189C375.834 275.67 379.757 257.466 390.214 243.994L386.858 233.152L350.222 244.624C343.642 246.683 339.978 253.693 342.035 260.281L368.433 344.793C370.193 350.426 376.18 353.565 381.807 351.803L419.892 339.877L416.355 328.45C400.213 323.288 386.748 310.612 381.306 293.189Z" fill="#F5D160"/>
<path d="M484.34 260.927C478.869 243.409 465.285 230.686 449.024 225.58L445.613 214.756L481.542 203.506C488.512 201.324 495.929 205.211 498.108 212.19L524.064 295.285C525.945 301.31 522.594 307.721 516.576 309.605L479.198 321.309L475.602 309.9C485.93 296.449 489.782 278.349 484.34 260.927Z" fill="#F5D160"/>
<path d="M481.336 207.71L470.342 211.153L474.702 225.113L493.985 219.075L492.217 213.413C490.785 208.83 485.913 206.276 481.336 207.71Z" fill="#208EA6"/>
<mask id="mask5_343_220" style="mask-type:luminance" maskUnits="userSpaceOnUse" x="330" y="192" width="206" height="171">
<path d="M489.946 192.608L337.546 240.328C332.037 242.053 328.967 247.924 330.69 253.44L362.329 354.73C364.052 360.246 369.915 363.319 375.425 361.594L527.825 313.874C533.334 312.149 536.403 306.278 534.68 300.762L503.042 199.472C501.319 193.956 495.455 190.883 489.946 192.608Z" fill="white"/>
</mask>
<g mask="url(#mask5_343_220)">
<path opacity="0.3" d="M347.247 237.291C347.247 237.291 349.292 306.555 380.706 325.819C412.12 345.083 487.496 326.502 487.496 326.502L350.099 369.524C350.099 369.524 277.007 247.078 347.247 237.291Z" fill="white"/>
</g>
<path d="M526.296 88.2205H611.193C611.193 88.2205 616.47 50.1136 589.425 51.434C562.38 52.7544 560.402 73.2281 560.402 73.2281C560.402 73.2281 537.044 60.2858 526.296 88.2205Z" fill="#D6EDF2"/>
<path d="M817.999 85.6627H894.422C894.422 85.6627 899.96 65.2899 889.253 62.5387C878.546 59.7875 873.378 67.1801 873.378 67.1801C873.378 67.1801 875.594 51.2857 859.718 49.0675C843.843 46.8493 836.089 69.1922 836.089 69.1922C836.089 69.1922 829.444 61.8501 821.322 67.2873C813.199 72.7256 817.999 85.6627 817.999 85.6627Z" fill="white"/>
<path d="M731.672 52.6881C731.672 52.6881 732.407 42.0713 724.942 36.7738C717.993 31.8433 711.665 36.7738 711.665 36.7738C710.523 31.7739 706.681 27.7433 696.815 28.7357C696.815 28.7357 696.834 4.4343 670 5.74945C643.167 7.06356 645.772 31.7603 645.772 31.7603C645.772 31.7603 624.938 30.6175 625.458 52.6881H731.672Z" fill="white"/>
<path d="M495.068 46.0661C495.068 46.0661 495.548 39.1308 490.672 35.67C486.133 32.4499 481.999 35.67 481.999 35.67C481.253 32.4037 478.743 29.7713 472.298 30.4188C472.298 30.4188 472.309 14.5445 454.781 15.4034C437.252 16.2623 438.953 32.3953 438.953 32.3953C438.953 32.3953 425.343 31.6489 425.683 46.0661H495.068Z" fill="#D6EDF2"/>
</g>
<path d="M41.6405 139.312L56.057 134.948C57.149 135.893 58.0121 136.615 58.4016 136.886C59.8937 137.925 61.7963 138.405 62.6468 137.353C63.4973 136.301 62.631 134.539 61.3049 133.294C60.9584 132.969 60.0743 132.275 58.9224 131.403L60.1751 116.377C60.2118 115.941 59.9241 115.543 59.4999 115.441L59.4653 115.433C59.019 115.326 58.5644 115.579 58.4195 116.015L55.953 123.44L53.033 127.055C51.2438 125.753 49.6572 124.614 48.8592 124.048L48.9117 121.643L45.6315 118.985L44.9238 121.597C43.9043 121.099 43.0622 120.869 42.7598 121.244C42.4574 121.62 42.8574 122.395 43.5557 123.29L41.1522 124.528L44.4324 127.185L46.7708 126.631C47.49 127.293 48.9348 128.61 50.5791 130.09L47.6591 133.704L40.9212 137.669C40.5254 137.902 40.3731 138.399 40.5705 138.813L40.5863 138.846C40.7742 139.241 41.2226 139.439 41.6405 139.312Z" fill="black"/>
<path d="M78.2275 145.499L83.5216 67.9412L258.162 72.5489V151.389L78.2275 145.499Z" fill="#F5D160"/>
<path d="M112.515 218.972L107.757 140.494L303.718 130.508L305.179 210.04L112.515 218.972Z" fill="#F5D160"/>
<path d="M69.2102 138.728L74.5043 61.1699L249.143 65.7776V144.617L69.2102 138.728Z" fill="#208EA6"/>
<path d="M103.498 212.2L98.7393 133.723L294.701 123.737L296.161 203.267L103.498 212.2Z" fill="#208EA6"/>
<path d="M88.3685 160.302L26.4563 189L43.0809 212.2L88.3685 160.302Z" fill="#F5D160"/>
<path d="M84.9297 180.964L59.7056 212.2L78.2276 214.637L84.9297 180.964Z" fill="#F5D160"/>
<path d="M268.757 106.349L294.092 62.7278L305.179 79.9468L268.757 106.349Z" fill="#F5D160"/>
<path d="M282.898 106.349L311.561 95.6351V109.665L282.898 106.349Z" fill="#F5D160"/>
<path d="M612.701 238.102C612.701 238.102 651.001 155.488 602.746 102.65C554.491 49.8129 525.537 121.164 544.839 123.737C564.141 126.309 585.052 21.6291 480.498 52.2287C375.946 82.8273 335.733 65.1122 318.843 35.3189C301.954 5.52553 342.167 7.94137 342.971 23.2407C343.776 38.54 245.696 73.6328 172.435 39.9172C112.149 12.1717 58.0917 7.13504 40.4842 45.7865C22.8778 84.4379 37.414 105.89 40.4842 114.59" stroke="black" stroke-width="1.0692" stroke-miterlimit="10" stroke-dasharray="3.97 3.97"/>
<path d="M119.67 164.084L122.989 163.868C123.74 163.804 124.158 163.746 124.243 163.694L123.088 150.107C123.068 149.352 123.389 148.68 124.051 148.089C124.713 147.499 125.353 147.177 125.972 147.124C126.59 147.072 127.093 147.229 127.481 147.597C127.912 147.96 128.141 148.564 128.168 149.407C128.196 150.25 128.564 154.848 129.274 163.199L137.006 162.273C138.331 162.16 139.06 162.877 139.191 164.423C139.289 165.572 139.009 166.464 138.351 167.098C137.737 167.729 137.034 168.1 136.242 168.212C135.495 168.321 134.746 168.407 133.995 168.471L129.946 168.749C130.1 170.561 130.581 174.124 131.389 179.441C132.241 184.753 132.845 188.195 133.201 189.767C133.554 191.295 133.684 192.307 133.593 192.805C133.498 193.258 133.281 193.588 132.943 193.795C132.391 194.109 131.629 194.307 130.657 194.39C129.685 194.473 129.065 193.992 128.799 192.946C127.423 187.233 126.15 179.331 124.981 169.239C124.587 169.317 123.065 169.469 120.414 169.695C117.762 169.921 116.371 169.26 116.24 167.714C116.052 165.505 117.195 164.295 119.67 164.084ZM151.153 182.83L151.8 189.651C151.867 190.446 151.554 191.208 150.859 191.934C150.208 192.657 149.53 193.049 148.823 193.109C147.806 193.196 147.098 192.455 146.698 190.887C146.624 190.537 146.173 187.327 145.345 181.256C144.514 175.14 143.508 170.375 142.327 166.96C141.787 165.314 141.504 164.337 141.477 164.028C141.354 162.57 142.175 161.765 143.943 161.615C144.694 161.551 145.315 161.787 145.805 162.324C146.296 162.861 146.612 163.435 146.753 164.046C146.934 164.609 147.112 165.395 147.287 166.403C147.462 167.412 147.582 168.047 147.649 168.309C148.389 166.02 149.64 164.245 151.402 162.982C153.164 161.719 155.149 160.994 157.359 160.805C160.982 160.497 162.872 161.27 163.03 163.126C163.109 164.054 162.841 164.833 162.227 165.464C161.654 166.047 160.947 166.374 160.108 166.446C156.352 166.766 153.802 168.185 152.459 170.703C151.115 173.22 150.68 177.263 151.153 182.83ZM184.787 158.535C186.731 158.369 187.844 159.943 188.126 163.257C188.156 163.611 188.188 163.986 188.222 164.384L188.483 169.035C188.563 170.497 188.663 171.935 188.783 173.348L191.051 188.243C191.145 189.347 190.065 189.995 187.811 190.187C187.679 190.199 187.348 190.227 186.817 190.272C186.331 190.314 185.961 190.145 185.706 189.766C185.496 189.383 185.432 188.899 185.516 188.314C185.644 187.724 185.545 187.087 185.22 186.403C183.372 188.741 180.768 190.053 177.41 190.339C171.18 190.87 167.656 186.32 166.837 176.687C166.383 171.341 167.033 167.213 168.789 164.304C170.588 161.392 173.366 159.775 177.122 159.455C178.889 159.305 180.683 159.463 182.503 159.931C183.009 159.087 183.771 158.622 184.787 158.535ZM178.407 165.154C175.889 165.368 174.073 166.257 172.959 167.821C171.846 169.384 171.455 172.11 171.785 175.999C172.341 182.538 174.387 185.657 177.921 185.356C178.849 185.277 179.83 184.77 180.863 183.837C181.94 182.899 182.655 181.882 183.007 180.784C183.643 178.326 183.842 175.683 183.601 172.855C183.361 170.028 182.833 168.003 182.017 166.782C181.245 165.557 180.042 165.014 178.407 165.154ZM213.629 155.744C214.248 155.691 214.73 155.872 215.077 156.288C215.42 156.659 215.612 157.088 215.654 157.574L215.644 158.242C214.19 163.128 213.147 167.089 212.515 170.125C212.117 172.25 211.807 173.834 211.584 174.877C211.405 175.916 211.093 177.745 210.648 180.364C210.203 182.983 209.902 184.678 209.745 185.448C209.254 187.003 208.236 187.846 206.689 187.978C205.938 188.042 205.367 187.601 204.975 186.655C203.185 182.357 200.684 177.542 197.472 172.208C194.259 166.874 192.42 163.826 191.955 163.065C191.53 162.255 191.289 161.519 191.233 160.856C191.177 160.194 191.409 159.528 191.931 158.861C192.497 158.19 193.156 157.822 193.907 157.758C194.658 157.694 195.332 158.037 195.93 158.787C196.499 159.718 198.1 162.318 200.732 166.589C203.409 170.856 205.321 174.231 206.466 176.715C206.488 176.446 206.596 175.881 206.789 175.019C208.378 167.006 209.737 161.26 210.865 157.782C211.515 156.525 212.436 155.845 213.629 155.744ZM228.353 155.09C230.694 154.89 232.984 155.385 235.221 156.574C237.459 157.763 238.664 159.374 238.836 161.406C239.005 163.395 238.309 165.412 236.747 167.459C235.182 169.462 232.98 170.784 230.142 171.426C228.92 171.709 227.072 171.955 224.597 172.166C225.403 175.88 226.563 178.274 228.078 179.346C228.561 179.795 229.178 179.987 229.93 179.923C232.669 179.689 234.893 178.632 236.603 176.751C238.308 174.825 239.558 173.828 240.354 173.761C240.707 173.731 241.266 174.017 242.029 174.619C242.792 175.222 243.198 175.81 243.247 176.385C243.345 177.534 242.094 179.309 239.494 181.711C238.343 182.833 236.914 183.823 235.207 184.68C233.54 185.49 231.956 185.959 230.453 186.087C226.609 186.414 223.571 184.181 221.339 179.386C219.931 176.436 219.071 173.126 218.76 169.459C218.448 165.792 219.041 162.559 220.539 159.761C222.037 156.963 224.641 155.406 228.353 155.09ZM229.073 159.635C227.394 159.778 226.039 160.85 225.007 162.852C224.622 163.552 224.33 165.09 224.131 167.466C230.317 166.939 233.28 165.151 233.021 162.102C232.863 160.246 231.547 159.424 229.073 159.635ZM243.98 141.475C243.97 139.784 244.143 138.679 244.5 138.159C244.896 137.592 245.559 137.268 246.487 137.189C248.387 137.027 249.402 137.719 249.534 139.266C249.635 140.459 249.789 143.583 249.997 148.639C250.248 153.691 250.543 158.206 250.881 162.182C251.219 166.159 251.646 169.349 252.162 171.753C253.053 175.95 253.984 178.007 254.956 177.924C255.928 177.841 256.599 177.094 256.968 175.683C257.144 175.134 257.458 174.64 257.911 174.201C258.359 173.717 258.959 173.444 259.71 173.38C261.256 173.248 262.14 174.486 262.362 177.092C262.482 178.506 261.829 179.986 260.403 181.532C259.017 183.03 257.573 183.843 256.071 183.971C254.569 184.099 253.333 183.959 252.364 183.552C251.435 183.097 250.64 182.386 249.979 181.419C249.363 180.448 248.838 179.513 248.406 178.615C248.014 177.67 247.694 176.518 247.445 175.159C246.992 172.973 246.492 169.455 245.947 164.606C245.441 159.709 245.001 155.051 244.625 150.632C244.246 146.17 244.031 143.117 243.98 141.475ZM269.904 136.529L271.228 159.18C271.435 161.61 271.592 163.199 271.7 163.947C271.572 164.536 271.262 165.074 270.769 165.561C270.321 166.045 269.787 166.313 269.169 166.365C268.55 166.418 268.001 165.975 267.521 165.037C265.911 153.959 264.784 144.62 264.138 137.02C264.442 135.882 265.411 135.243 267.046 135.103C268.68 134.964 269.633 135.439 269.904 136.529ZM268.936 179.336C268.206 178.597 267.807 177.83 267.739 177.035C267.672 176.239 267.919 175.484 268.481 174.769C269.044 174.053 269.833 173.652 270.849 173.565C271.909 173.475 272.677 173.61 273.153 173.97C273.673 174.326 273.989 175.167 274.102 176.493C274.301 178.834 273.428 180.088 271.484 180.254C270.512 180.337 269.663 180.031 268.936 179.336Z" fill="white"/>
<path d="M94.7481 113.581L94.8146 108.393L95.4133 80.5891C95.4133 80.057 95.7015 79.6357 96.278 79.3253C96.8544 79.0149 97.5861 78.8597 98.473 78.8597C100.602 78.8597 101.666 79.6135 101.666 81.1212C101.666 81.609 101.4 85.3339 100.868 92.296C100.38 99.2581 100.136 103.426 100.136 104.801C100.136 104.801 100.136 107.151 100.136 111.852C100.136 115.178 100.358 116.996 100.801 117.306C101.466 117.528 102.242 117.639 103.129 117.639L112.708 116.974C114.792 116.974 115.834 117.727 115.834 119.235C115.834 120.432 115.257 121.319 114.104 121.896C112.996 122.428 111.887 122.738 110.779 122.827C109.67 122.871 108.317 122.894 106.721 122.894C99.759 122.894 95.9897 122.672 95.4133 122.228C95.1028 121.962 94.9255 120.965 94.8811 119.235C94.8368 117.461 94.7924 116.22 94.7481 115.51C94.7481 114.801 94.7481 114.158 94.7481 113.581ZM129.807 92.0299C132.157 92.0299 134.397 92.7173 136.525 94.092C138.654 95.4666 139.718 97.1739 139.718 99.2137C139.718 101.209 138.853 103.16 137.124 105.067C135.394 106.93 133.088 108.06 130.206 108.46C128.964 108.637 127.102 108.726 124.619 108.726C125.106 112.495 126.06 114.978 127.479 116.175C127.922 116.663 128.521 116.907 129.275 116.907C132.024 116.907 134.33 116.042 136.193 114.313C138.055 112.539 139.385 111.652 140.184 111.652C140.538 111.652 141.07 111.985 141.78 112.65C142.489 113.315 142.844 113.936 142.844 114.513C142.844 115.665 141.447 117.328 138.654 119.501C137.412 120.521 135.904 121.386 134.131 122.095C132.401 122.761 130.783 123.093 129.275 123.093C125.417 123.093 122.579 120.61 120.761 115.643C119.608 112.584 119.031 109.213 119.031 105.533C119.031 101.852 119.896 98.6816 121.625 96.0209C123.355 93.3603 126.082 92.0299 129.807 92.0299ZM130.14 96.6196C128.454 96.6196 127.013 97.573 125.816 99.4798C125.373 100.145 124.951 101.653 124.552 104.003C130.76 104.003 133.864 102.473 133.864 99.4133C133.864 97.5508 132.623 96.6196 130.14 96.6196ZM148.394 91.7639L151.72 91.8304C152.474 91.8304 152.895 91.8082 152.984 91.7639V78.128C153.028 77.3741 153.405 76.7312 154.115 76.199C154.824 75.6669 155.489 75.4008 156.11 75.4008C156.731 75.4008 157.219 75.6004 157.573 75.9995C157.973 76.3986 158.15 77.0194 158.106 77.8619C158.061 78.7045 158.039 83.3163 158.039 91.6974L165.821 91.4313C167.152 91.4313 167.817 92.2073 167.817 93.7594C167.817 94.9123 167.462 95.777 166.753 96.3535C166.088 96.93 165.356 97.2404 164.558 97.2848C163.804 97.3291 163.05 97.3513 162.296 97.3513L158.239 97.2848C158.239 99.1029 158.416 102.695 158.771 108.06C159.17 113.426 159.48 116.907 159.702 118.504C159.924 120.056 159.968 121.075 159.835 121.563C159.702 122.007 159.458 122.317 159.103 122.495C158.527 122.761 157.751 122.894 156.775 122.894C155.8 122.894 155.223 122.361 155.046 121.297C154.159 115.488 153.56 107.506 153.25 97.3513C152.851 97.3956 151.321 97.4178 148.66 97.4178C146 97.4178 144.669 96.6418 144.669 95.0897C144.669 92.8725 145.911 91.7639 148.394 91.7639ZM172.323 74.4031C172.323 73.7823 172.545 73.2723 172.989 72.8732C173.476 72.4741 174.009 72.2745 174.585 72.2745C175.206 72.2745 175.76 72.4963 176.248 72.9397C176.78 73.3388 177.046 73.8931 177.046 74.6026C177.046 77.0416 176.603 79.3918 175.716 81.6534C174.829 83.9149 173.654 85.0457 172.19 85.0457C170.727 85.0457 169.995 84.2919 169.995 82.7841C169.995 82.1633 170.372 81.0547 171.126 79.4583C171.924 77.8619 172.323 76.1768 172.323 74.4031ZM185.343 100.211C185.343 97.5952 186.274 95.511 188.136 93.9589C189.999 92.4069 192.149 91.6308 194.588 91.6308C197.072 91.6308 199.444 92.0743 201.706 92.9612C203.967 93.8481 205.098 95.0232 205.098 96.4866C205.098 97.2404 204.81 97.8391 204.233 98.2825C203.657 98.7259 203.147 98.9477 202.703 98.9477C202.304 98.9477 201.972 98.9477 201.706 98.9477C201.484 98.9033 200.597 98.482 199.045 97.6838C197.537 96.8856 196.14 96.4866 194.854 96.4866C193.568 96.4866 192.46 96.8191 191.529 97.4843C190.642 98.1051 190.198 99.0364 190.198 100.278C190.198 101.52 190.708 102.495 191.728 103.205C192.792 103.914 194.633 104.535 197.249 105.067C199.865 105.555 201.861 106.264 203.235 107.196C204.654 108.127 205.364 109.856 205.364 112.384C205.364 116.065 204.388 118.681 202.437 120.233C200.53 121.741 198.202 122.495 195.453 122.495C192.704 122.495 190.353 122.118 188.402 121.364C186.495 120.61 185.542 119.479 185.542 117.971C185.542 116.242 186.407 115.377 188.136 115.377C188.58 115.377 189.555 115.688 191.063 116.308C192.571 116.929 194.056 117.24 195.52 117.24C197.027 117.24 198.158 116.774 198.912 115.843C199.71 114.867 200.109 113.759 200.109 112.517C200.109 111.275 199.599 110.389 198.579 109.856C197.559 109.28 196.007 108.814 193.923 108.46C191.839 108.105 190.309 107.728 189.334 107.329C186.673 106.264 185.343 103.892 185.343 100.211Z" fill="white"/>
</g>
</g>
<defs>
<filter id="filter0_d_343_220" x="0" y="0" width="869" height="336" filterUnits="userSpaceOnUse" color-interpolation-filters="sRGB">
<feFlood flood-opacity="0" result="BackgroundImageFix"/>
<feColorMatrix in="SourceAlpha" type="matrix" values="0 0 0 0 0 0 0 0 0 0 0 0 0 0 0 0 0 0 127 0" result="hardAlpha"/>
<feOffset dy="4"/>
<feGaussianBlur stdDeviation="2"/>
<feComposite in2="hardAlpha" operator="out"/>
<feColorMatrix type="matrix" values="0 0 0 0 0 0 0 0 0 0 0 0 0 0 0 0 0 0 0.25 0"/>
<feBlend mode="normal" in2="BackgroundImageFix" result="effect1_dropShadow_343_220"/>
<feBlend mode="normal" in="SourceGraphic" in2="effect1_dropShadow_343_220" result="shape"/>
</filter>
<clipPath id="clip0_343_220">
<rect x="4" width="861" height="328" rx="20" fill="white"/>
</clipPath>
</defs>
</svg>
