<svg width="128" height="73" viewBox="0 0 128 73" fill="none" xmlns="http://www.w3.org/2000/svg">
<path d="M60.3879 46.6888L63.459 44.9501C64.2968 44.4199 64.5473 43.3097 64.0184 42.4701C63.4895 41.6305 62.3814 41.3795 61.5436 41.9095L58.4725 43.6482L60.3879 46.6888Z" fill="#252538"/>
<path d="M46.8843 42.5924C48.0937 41.7887 46.6299 40.2656 46.6299 40.2656L46.4836 38.7961C46.4836 38.7961 45.183 38.9835 45.5951 40.2368C45.5951 40.2368 44.0849 39.1503 43.2951 39.3114C42.9241 39.3871 42.0747 40.5888 41.9662 41.3719C41.9432 41.5379 42.0604 41.689 42.2267 41.7078C42.626 41.7529 43.4115 41.9211 43.9652 42.5488C44.7365 43.4233 46.2298 44.155 46.8843 42.5924Z" fill="#FFB692"/>
<path d="M45.5951 40.2368C45.5951 40.2368 44.9101 41.0732 45.6515 42.0906C45.6515 42.0906 45.1555 41.0813 45.6629 40.2864L45.5951 40.2368Z" fill="#D88D87"/>
<path d="M44.4618 42.0708C44.4618 42.0708 44.5943 41.2039 45.1439 40.5205C45.1439 40.5205 44.2418 40.8017 44.4618 42.0708Z" fill="#D88D87"/>
<path d="M44.5214 41.7437L44.5249 41.6723C44.5249 41.6723 43.2123 40.9779 42 41.2C41.9941 41.2241 41.9886 41.2481 41.9837 41.2716C42.4497 41.2361 43.5611 41.2204 44.5214 41.7437Z" fill="#D88D87"/>
<path d="M44.8387 40.807L44.9213 40.7267C44.9213 40.7267 43.8741 39.6719 42.7566 39.7698C42.5818 39.9868 42.4037 40.2589 42.2599 40.5388C42.6207 40.5207 43.6931 40.5372 44.6036 41.2634L44.6512 41.1888C44.6512 41.1888 43.6014 40.1241 42.3624 40.4041L42.6856 39.864C42.6856 39.864 43.8846 39.8002 44.8387 40.807Z" fill="#D88D87"/>
<path d="M73.4914 41.3556L69.7385 42.8164C68.7055 43.2778 68.243 44.4929 68.7053 45.5301C69.1677 46.5675 70.3796 47.0341 71.4126 46.5726L75.1654 45.1118L73.4914 41.3556Z" fill="#252538"/>
<path d="M62.7007 53.8297L65.5598 54.3701C67.6685 54.7688 69.0694 56.8195 68.6726 58.9275C68.2757 61.0356 66.2258 62.4341 64.1169 62.0356L61.2579 61.4952C59.1489 61.0965 57.7482 59.0458 58.1451 56.9378C58.5419 54.8295 60.592 53.431 62.7007 53.8297Z" fill="#9BC630"/>
<path d="M57.6831 55.821C58.644 56.5373 60.4475 57.6884 62.996 58.2503C65.6074 58.826 67.7747 58.5123 68.9522 58.2548C68.8816 56.4379 68.811 54.6213 68.7401 52.8045L71.0391 45.723C71.437 43.8744 70.843 42.1778 68.9937 41.7785L65.39 41.0003C63.0058 40.4854 61.6026 41.0884 61.0898 43.4716L60.0635 51.1947L57.6831 55.821Z" fill="#252538"/>
<path d="M69.4131 42.7509C69.221 43.7999 67.6435 44.3883 65.8896 44.065C64.1356 43.742 62.8696 42.6296 63.0617 41.5807C63.2538 40.5317 64.8314 39.9432 66.5852 40.2664C68.339 40.5896 69.6052 41.7019 69.4131 42.7509Z" fill="#9BC630"/>
<path d="M65.9637 43.6604C66.7401 43.8034 67.4967 43.7595 68.0938 43.5368C68.3976 43.4235 68.9204 43.1612 69.0092 42.6765C69.1563 41.8732 68.0228 40.9567 66.5341 40.6753L66.5109 40.671C65.7346 40.5278 64.9781 40.5719 64.3811 40.7946C64.0772 40.908 63.5542 41.1704 63.4655 41.655C63.3184 42.4583 64.4517 43.3745 65.9399 43.6559C65.9403 43.6559 65.9637 43.6604 65.9637 43.6604Z" fill="#FFB692"/>
<path d="M68.0576 40.8633L65.2169 40.3168C62.8253 39.8567 60.5145 41.4266 60.0554 43.8232L57.633 55.8C59.1563 56.4155 61.0794 57.0489 63.3495 57.4798C65.5557 57.8987 67.5242 58.0188 69.1341 58.0125C69.9416 54.0201 70.7491 50.0278 71.5564 46.0356C72.0158 43.639 70.4492 41.3232 68.0576 40.8633ZM69.8114 43.1887C69.6545 44.2828 67.8335 44.9258 65.7441 44.6248C63.6548 44.3238 62.0884 43.1928 62.2453 42.0987C62.4022 41.0046 64.2231 40.3616 66.3125 40.6626C68.4019 40.9636 69.9685 42.0946 69.8114 43.1887Z" fill="#EF3F1D"/>
<path d="M59.0393 48.8474L58.7554 50.2505L70.2705 52.3942L70.5544 50.9911L59.0393 48.8474Z" fill="#F2C50A"/>
<path d="M58.1217 53.3841L69.6368 55.5276L69.9205 54.1245L58.4053 51.981L58.1217 53.3841Z" fill="#F2C50A"/>
<path d="M78.0814 28.5907L78.3745 28.7985C79.1952 29.381 80.3318 29.1862 80.913 28.3638C81.4942 27.5413 81.2999 26.4023 80.4791 25.8199L80.1861 25.6119C79.3651 25.0295 78.2288 25.2242 77.6476 26.0467C77.0661 26.8693 77.2605 28.0083 78.0814 28.5907Z" fill="#FFB692"/>
<path d="M63.8107 8.01536L63.2485 8.50222L89.5156 38.9584L90.0777 38.4715L63.8107 8.01536Z" fill="#F7F7F7"/>
<path d="M66.1194 11.384C65.3097 12.0695 64.0986 11.9673 63.4146 11.1556L56.1043 2.48204L59.037 0L66.3473 8.6736C67.0313 9.48524 66.9291 10.6986 66.1194 11.384Z" fill="#F2C50A"/>
<path d="M88.5056 37.384C89.3153 36.6986 90.5264 36.8008 91.2104 37.6124L98.5205 46.286L95.5877 48.7681L88.2776 40.0945C87.5937 39.2828 87.6956 38.0695 88.5056 37.384Z" fill="#F2C50A"/>
<path d="M89.075 38.8401L85.2735 34.4319L86.2178 33.6142L90.0192 38.0223C90.5111 38.5758 89.55 39.4083 89.075 38.8401Z" fill="#252538"/>
<path d="M64.2516 8.14277L68.0531 12.5509L67.1088 13.3687L63.3074 8.96053C62.8155 8.40726 63.7767 7.57461 64.2516 8.14277Z" fill="#252538"/>
<path d="M80.1936 26.9493L78.0452 24.9577C78.0452 24.9577 76.4617 26.8084 77.2159 27.5093C78.0448 28.2795 78.7607 26.8677 78.7607 26.8677C78.7607 26.8677 79.4148 27.5497 80.1936 26.9493Z" fill="#FFB692"/>
<path d="M77.2159 27.5093C77.3484 27.6062 77.4917 27.6989 77.6537 27.7069C77.813 27.7175 77.9652 27.6588 78.093 27.5684C78.3488 27.3849 78.534 27.1012 78.6694 26.8212L78.7341 26.6991L78.835 26.7965C78.9148 26.8736 79.0218 26.9468 79.1285 26.9978C79.2369 27.0498 79.3529 27.0821 79.4697 27.0896C79.5863 27.0971 79.7048 27.0843 79.8155 27.0413C79.9286 27.0052 80.0312 26.9381 80.1309 26.8679L80.1242 27.0247C79.7575 26.7021 79.4105 26.3583 79.067 26.0106C78.721 25.6655 78.381 25.3138 78.0452 24.9577C78.4256 25.2654 78.8024 25.5772 79.1726 25.8962C79.5452 26.2125 79.9142 26.5325 80.2636 26.8738L80.3568 26.9648L80.2565 27.0309C80.1421 27.1122 80.0214 27.1903 79.8833 27.2354C79.7487 27.287 79.5996 27.3045 79.4551 27.2948C79.31 27.2852 79.1683 27.245 79.0399 27.1834C78.9103 27.1198 78.7963 27.0445 78.6869 26.9389L78.8523 26.9142C78.7611 27.0666 78.6602 27.2007 78.5448 27.3286C78.43 27.4552 78.2988 27.5707 78.1474 27.6555C77.9974 27.7403 77.8185 27.7879 77.6471 27.7577C77.4727 27.7306 77.337 27.6182 77.2159 27.5093Z" fill="#D88D87"/>
<path d="M80.6336 27.7312C80.8324 27.9006 81.1334 27.8762 81.3025 27.6771L82.4908 26.1456C82.6599 25.9464 82.6355 25.6447 82.4368 25.4753C82.238 25.3058 81.937 25.3301 81.7679 25.5295L80.5797 27.061C80.4105 27.2601 80.4348 27.5619 80.6336 27.7312Z" fill="#FFB692"/>
<path d="M81.3269 26.0979C81.147 26.386 80.9578 26.6677 80.7589 26.9417L80.6134 27.1426C80.5762 27.2026 80.5528 27.2713 80.5512 27.3415C80.5408 27.4826 80.6136 27.6217 80.7305 27.6959C80.845 27.775 81.0034 27.7789 81.1279 27.7161C81.1938 27.6824 81.2372 27.642 81.2917 27.5692L81.4545 27.3755C81.6719 27.1173 81.8921 26.8612 82.1263 26.6155C81.9464 26.9036 81.7523 27.1814 81.5555 27.4569L81.4075 27.6635C81.365 27.7287 81.2891 27.814 81.2038 27.8582C81.0316 27.9563 80.8053 27.9502 80.6372 27.8405C80.4671 27.7338 80.3686 27.5278 80.3861 27.3302C80.3934 27.2313 80.4311 27.1359 80.4873 27.0557C80.5473 26.9801 80.5957 26.9222 80.6521 26.8557C80.8676 26.5959 81.0927 26.3436 81.3269 26.0979Z" fill="#D88D87"/>
<path d="M79.9726 27.048C80.1714 27.2175 80.4724 27.193 80.6415 26.9937L81.8298 25.4622C81.9989 25.263 81.9745 24.9614 81.7757 24.7919C81.577 24.6224 81.276 24.6467 81.1069 24.8461L79.9187 26.3777C79.7496 26.5769 79.774 26.8785 79.9726 27.048Z" fill="#FFB692"/>
<path d="M80.6659 25.4145C80.486 25.7027 80.2968 25.9843 80.098 26.2584L79.9525 26.4592C79.9152 26.5192 79.8918 26.5879 79.8902 26.6581C79.8798 26.7992 79.9527 26.9381 80.0695 27.0125C80.184 27.0916 80.3424 27.0955 80.4669 27.0325C80.5331 26.9988 80.5762 26.9585 80.6307 26.8859L80.7935 26.6921C81.0109 26.434 81.2311 26.1778 81.4653 25.9321C81.2854 26.2202 81.0913 26.498 80.8945 26.7735L80.7465 26.9801C80.704 27.0453 80.6281 27.1306 80.5428 27.1748C80.3707 27.2729 80.1444 27.2668 79.9763 27.1571C79.8061 27.0504 79.7076 26.8445 79.7251 26.6469C79.7325 26.548 79.7701 26.4525 79.8263 26.3724C79.8863 26.2967 79.9347 26.2388 79.9911 26.1723C80.2066 25.9125 80.4317 25.6602 80.6659 25.4145Z" fill="#D88D87"/>
<path d="M79.3309 26.3236C79.5298 26.4931 79.8308 26.4686 79.9999 26.2694L81.1881 24.7379C81.3572 24.5386 81.3328 24.237 81.134 24.0675C80.9352 23.8981 80.6342 23.9225 80.4651 24.1218L79.2768 25.6533C79.1079 25.8523 79.1321 26.1542 79.3309 26.3236Z" fill="#FFB692"/>
<path d="M80.0243 24.6901C79.8442 24.9783 79.6551 25.2599 79.4561 25.534L79.3106 25.7349C79.2734 25.7948 79.25 25.8636 79.2483 25.9337C79.238 26.0746 79.3108 26.2139 79.4276 26.2881C79.5422 26.3673 79.7005 26.3711 79.8251 26.3083C79.891 26.2747 79.9343 26.2343 79.9889 26.1615L80.1517 25.9678C80.369 25.7096 80.5892 25.4535 80.8235 25.2077C80.6436 25.4959 80.4494 25.7736 80.2526 26.0491L80.1047 26.2557C80.0621 26.321 79.9862 26.4062 79.901 26.4505C79.7288 26.5486 79.5025 26.5424 79.3344 26.4327C79.1643 26.3261 79.0658 26.1201 79.0833 25.9225C79.0906 25.8236 79.1283 25.7282 79.1844 25.648C79.2445 25.5723 79.2929 25.5144 79.3493 25.448C79.565 25.1881 79.7901 24.9359 80.0243 24.6901Z" fill="#D88D87"/>
<path d="M78.3926 26.0175C78.5914 26.187 78.8924 26.1625 79.0615 25.9635L80.2498 24.432C80.4189 24.2327 80.3945 23.9311 80.1956 23.7616C79.9968 23.5922 79.6958 23.6166 79.5267 23.8159L78.3385 25.3474C78.1695 25.5465 78.1938 25.8481 78.3926 26.0175Z" fill="#FFB692"/>
<path d="M79.0859 24.384C78.906 24.6722 78.7168 24.9538 78.5177 25.2279L78.3724 25.4288C78.3352 25.4889 78.3118 25.5575 78.3102 25.6276C78.2998 25.7687 78.3726 25.9078 78.4895 25.982C78.604 26.0612 78.7624 26.065 78.8869 26.0022C78.953 25.9686 78.9962 25.9282 79.0507 25.8554L79.2135 25.6617C79.4309 25.4035 79.6511 25.1474 79.8853 24.9016C79.7054 25.1898 79.5113 25.4675 79.3145 25.743L79.1665 25.9496C79.124 26.0149 79.0481 26.1001 78.9628 26.1444C78.7906 26.2425 78.5643 26.2363 78.3962 26.1266C78.2261 26.02 78.1276 25.814 78.1451 25.6164C78.1524 25.5175 78.1901 25.4221 78.2463 25.3419C78.3063 25.2662 78.3547 25.2083 78.4109 25.1418C78.6266 24.882 78.8517 24.6298 79.0859 24.384Z" fill="#D88D87"/>
<path d="M73.9669 32.1344C75.4795 30.8264 75.6476 28.5373 74.3424 27.0216C73.0371 25.5058 70.7528 25.3373 69.2402 26.6453C67.7276 27.9532 67.5595 30.2423 68.8647 31.7581C70.17 33.2739 72.4543 33.4423 73.9669 32.1344Z" fill="#252538"/>
<path d="M71.7475 33.0132C73.743 32.9135 75.28 31.2116 75.1805 29.2119C75.081 27.2122 73.3827 25.672 71.3872 25.7717C69.3917 25.8714 67.8547 27.5733 67.9542 29.573C68.0537 31.5726 69.752 33.1129 71.7475 33.0132Z" fill="#252538"/>
<path d="M71.2321 30.388C71.2294 31.2847 70.5019 32.0094 69.6071 32.0068C68.7123 32.0041 67.989 31.2751 67.9916 30.3784C67.9943 29.4817 68.7218 28.7569 69.6166 28.7596C70.5115 28.7622 71.2347 29.4913 71.2321 30.388Z" fill="#9BC630"/>
<path d="M66.248 28.9694L66.4415 28.97C67.6829 28.9737 68.6846 30.5517 68.6789 32.4948L68.6506 42.1273L63.9618 42.1134L63.9901 32.4809C63.9956 30.5379 65.0066 28.9658 66.248 28.9694Z" fill="#FFB692"/>
<path d="M66.248 28.9694L66.4415 28.97C67.6829 28.9737 68.6848 30.4369 68.6795 32.2382L68.6602 38.8193C68.6563 40.1167 67.6036 41.1655 66.3089 41.1617C65.0142 41.1578 63.9675 40.1028 63.9714 38.8054L63.9907 32.2244C63.996 30.4231 65.0066 28.9658 66.248 28.9694Z" fill="#D88D87"/>
<path d="M63.6535 36.8785L69.0035 36.8942C70.2693 36.8979 71.2986 35.8727 71.3023 34.604L71.3069 32.9948C71.3151 30.2458 69.0977 28.011 66.3547 28.0028C63.6114 27.9946 61.3812 30.2167 61.3731 32.9655L61.3684 34.5747C61.3645 35.8433 62.3877 36.8748 63.6535 36.8785Z" fill="#252538"/>
<path d="M62.1946 35.9551L70.4734 35.983C70.8889 35.9843 71.227 35.6476 71.2282 35.2311C71.2294 34.8147 70.8934 34.476 70.4779 34.4748L62.1993 34.4468C61.7837 34.4456 61.4457 34.7823 61.4445 35.1987C61.4431 35.6153 61.779 35.9539 62.1946 35.9551Z" fill="#D88D87"/>
<path d="M70.4746 35.5947C70.6759 35.5954 70.8401 35.4318 70.8405 35.2301C70.8411 35.0284 70.6779 34.8639 70.4766 34.8632L62.1979 34.8353C61.9966 34.8347 61.8324 34.9982 61.832 35.1999C61.8313 35.4016 61.9946 35.5662 62.1958 35.5668L70.4746 35.5947Z" fill="#AA635F"/>
<path d="M66.3172 40.7365C66.7682 40.7365 69.9129 40.3576 69.9197 37.4207L70.542 32.5431C70.5485 30.9262 68.7507 29.1138 66.5266 29.1073L66.1796 29.1063C63.9555 29.0997 62.1472 30.9013 62.1405 33.1302L62.7394 37.3959C62.7327 39.7209 65.6644 40.7365 66.3172 40.7365Z" fill="#FFB692"/>
<path d="M66.5266 29.1073L66.1796 29.1063C64.3984 29.101 62.8863 30.2571 62.3505 31.862C64.1599 33.7634 65.1023 33.5699 70.393 33.7106L70.542 32.5431C70.5485 30.9262 68.7507 29.1138 66.5266 29.1073Z" fill="#D88D87"/>
<path d="M63.366 35.0023C63.366 35.5317 63.7728 35.8142 64.2748 35.8142C64.7767 35.8142 65.1835 35.5317 65.1835 35.0023C65.1835 34.4729 64.7767 34.2145 64.2748 34.2145C63.7728 34.2145 63.366 34.4729 63.366 35.0023Z" fill="white"/>
<path d="M65.1552 35.0023C65.1342 34.7825 65.0396 34.5786 64.8695 34.4615C64.7012 34.3432 64.4871 34.2965 64.2748 34.2963C64.0624 34.2959 63.8483 34.3428 63.6796 34.4609C63.5094 34.5784 63.4144 34.7825 63.3945 35.0025H63.3379C63.3267 34.8861 63.3412 34.7652 63.3819 34.6499C63.4252 34.5359 63.4997 34.4313 63.5949 34.3522C63.7872 34.1913 64.0388 34.135 64.2748 34.133C64.5111 34.1344 64.7624 34.1907 64.9554 34.3514C65.0508 34.4307 65.1247 34.5357 65.1684 34.6495C65.2089 34.765 65.2232 34.8861 65.2118 35.0023H65.1552Z" fill="#252538"/>
<path d="M64.0909 34.3334C64.459 34.3338 64.7573 34.6332 64.7569 35.0023C64.7565 35.3712 64.4578 35.6702 64.0896 35.6698C63.7215 35.6694 63.4232 35.37 63.4236 35.0011C63.4238 34.6318 63.7225 34.333 64.0909 34.3334Z" fill="#252538"/>
<path d="M68.8378 35.0023C68.8378 35.5317 68.431 35.8142 67.9292 35.8142C67.4273 35.8142 67.0203 35.5317 67.0203 35.0023C67.0203 34.4729 67.4271 34.2145 67.9292 34.2145C68.4312 34.2145 68.8378 34.4729 68.8378 35.0023Z" fill="white"/>
<path d="M66.992 35.0023C66.9806 34.8859 66.9949 34.765 67.0354 34.6495C67.0791 34.5355 67.1532 34.4305 67.2485 34.3514C67.4412 34.1905 67.6927 34.1344 67.929 34.133C68.165 34.135 68.4166 34.1911 68.6089 34.3522C68.7041 34.4313 68.7786 34.5359 68.8219 34.6499C68.8628 34.7652 68.8771 34.8861 68.8659 35.0025H68.8093C68.7892 34.7827 68.6943 34.5786 68.5242 34.4609C68.3555 34.3428 68.1414 34.2959 67.929 34.2963C67.7165 34.2965 67.5024 34.3434 67.3343 34.4615C67.1642 34.5786 67.0696 34.7827 67.0486 35.0023H66.992Z" fill="#252538"/>
<path d="M67.6935 34.3334C67.3254 34.3338 67.027 34.6332 67.0274 35.0023C67.0278 35.3712 67.3266 35.6702 67.6947 35.6698C68.0629 35.6694 68.3612 35.37 68.3608 35.0011C68.3606 34.6318 68.0619 34.333 67.6935 34.3334Z" fill="#252538"/>
<path d="M66.7899 36.5816H65.411C65.3463 36.5816 65.2938 36.6342 65.2938 36.699C65.2938 37.1444 65.655 37.5056 66.1005 37.5056C66.5462 37.5056 66.9074 37.1444 66.9074 36.699C66.9072 36.634 66.8547 36.5816 66.7899 36.5816Z" fill="#BA726E"/>
<path d="M66.1003 37.5672C66.341 37.5672 66.5364 37.3716 66.5364 37.1303V35.1192C66.5364 34.8779 66.3412 34.6824 66.1003 34.6824C65.8595 34.6824 65.6644 34.8779 65.6644 35.1192V37.1303C65.6644 37.3716 65.8595 37.5672 66.1003 37.5672Z" fill="#D88D87"/>
<path d="M63.5196 33.4828C63.6714 33.4347 64.9179 33.3707 64.9739 33.3707C65.0298 33.3707 65.1816 33.8112 65.1816 33.8112C65.1816 33.8112 63.5835 33.731 63.5035 33.8112C63.4236 33.8913 62.9602 34.3157 62.9602 34.2916C62.9602 34.2676 63.3678 33.5308 63.5196 33.4828Z" fill="#2B2B3A"/>
<path d="M67.2267 33.3707C67.2826 33.3707 68.5291 33.4347 68.6809 33.4828C68.8327 33.531 69.2404 34.2676 69.2404 34.2916C69.2404 34.3157 68.777 33.8913 68.697 33.8112C68.617 33.731 67.0189 33.8112 67.0189 33.8112C67.0189 33.8112 67.1707 33.3707 67.2267 33.3707Z" fill="#2B2B3A"/>
<path d="M65.5665 37.8665C65.9399 37.851 66.4645 37.8043 66.9692 37.6738C67.3012 37.588 67.5317 38.0246 67.3237 38.3533C67.1023 38.7031 66.7478 39.0137 66.1884 38.9988C65.7299 38.9865 65.4539 38.8334 65.2883 38.6435C65.0536 38.3749 65.2335 37.8802 65.5665 37.8665Z" fill="#252538"/>
<path d="M66.1884 38.9988C66.7478 39.0137 67.1023 38.7031 67.3237 38.3533C67.3549 38.304 67.3748 38.2524 67.3874 38.2004C67.2008 38.0888 66.9428 38.0228 66.5826 38.0591C66.0262 38.1153 65.7167 38.4683 65.5443 38.8434C65.5441 38.8442 65.5439 38.8448 65.5435 38.8456C65.703 38.9323 65.9122 38.9914 66.1884 38.9988Z" fill="#FF9292"/>
<path d="M65.9755 38.515C66.0193 38.615 66.2305 38.6239 66.4473 38.535C66.664 38.4461 66.8042 38.293 66.7604 38.193C66.7167 38.0931 66.5057 38.0841 66.2887 38.173C66.072 38.2622 65.9318 38.4151 65.9755 38.515Z" fill="#FFABAB"/>
<path d="M65.5665 37.8665C65.9399 37.851 66.4645 37.8043 66.9692 37.6738C67.1731 37.621 67.3382 37.7656 67.3874 37.9612C67.0744 38.1822 66.6178 38.3376 66.1013 38.3713C65.7702 38.3927 65.4568 38.3613 65.1853 38.2889C65.2079 38.075 65.3565 37.8751 65.5665 37.8665Z" fill="white"/>
<path d="M66.6603 30.8633C67.2299 32.0353 68.4151 32.7805 69.7161 32.7844L71.3027 32.7891C71.2025 30.1355 69.0289 28.0108 66.3547 28.0028C65.2057 27.9993 64.147 28.3876 63.3037 29.0416C61.7473 30.2489 62.6529 32.7636 64.6212 32.7693L66.6548 32.7752L66.6603 30.8633Z" fill="#252538"/>
<path d="M66.7686 30.9058C66.7694 31.0412 66.7552 31.1792 66.767 31.3144C66.7855 31.4484 66.7916 31.5867 66.8382 31.7146C66.8667 31.8489 66.9322 31.9682 66.9892 32.0924C67.0643 32.2056 67.1367 32.3227 67.2358 32.4187C67.4249 32.6182 67.6612 32.7744 67.9168 32.8874C68.1732 32.9987 68.4473 33.0772 68.7279 33.1082C68.4455 33.0941 68.1652 33.0326 67.8974 32.9349C67.6302 32.8358 67.376 32.6902 67.1636 32.4917C67.0527 32.3963 66.9674 32.2768 66.8795 32.1591C66.8097 32.0304 66.7313 31.904 66.6915 31.7615C66.633 31.6242 66.6166 31.4778 66.5883 31.333C66.5669 31.1876 66.5724 31.0408 66.5637 30.8937L66.7686 30.9058Z" fill="#252538"/>
<path d="M95.289 54.0901H92.3371C90.1598 54.0901 88.3786 55.8753 88.3786 58.0569C88.3786 60.2388 90.1598 62.0238 92.3371 62.024H95.289C97.4663 62.024 99.2476 60.2388 99.2476 58.0572C99.2476 55.8751 97.4663 54.0901 95.289 54.0901Z" fill="#875330"/>
<path d="M88.1816 57.1068C88.1789 57.6114 88.4624 58.0765 88.9164 58.2941C89.9217 58.7756 91.3819 59.3028 93.1941 59.4302C95.745 59.6095 97.7941 58.9126 99.0176 58.3488C99.4785 58.1363 99.7714 57.6721 99.7742 57.1637C99.7987 52.5794 99.8233 48.3784 99.8477 43.8213C99.8617 41.1894 97.7439 39.0436 95.1174 39.0296L92.7212 39.0169C90.2685 39.0039 88.2697 40.9857 88.2567 43.4435L88.1816 57.1068Z" fill="#252538"/>
<path d="M90.4964 40.3494C90.8505 41.3744 90.3084 42.4929 89.2856 42.8478L85.9237 44.0138L84.6416 40.3021L88.0035 39.1358C89.0263 38.7812 90.1425 39.3244 90.4964 40.3494Z" fill="#252538"/>
<path d="M97.742 40.8005C97.2612 41.7722 97.6572 42.9505 98.6269 43.4326L101.814 45.0168L103.556 41.4979L100.368 39.9138C99.3988 39.4319 98.2229 39.829 97.742 40.8005Z" fill="#252538"/>
<path d="M97.2349 40.3455C97.2349 41.254 93.7346 43.1973 93.7346 43.1973C93.7346 43.1973 90.2343 41.254 90.2343 40.3455C90.2343 39.437 91.8015 38.7004 93.7346 38.7004C95.6677 38.7004 97.2349 39.437 97.2349 40.3455Z" fill="#F2C50A"/>
<path d="M93.7346 42.7297C92.1037 41.801 90.6808 40.7077 90.6411 40.3423C90.6413 39.8288 91.818 39.1081 93.7346 39.1081C95.6512 39.1081 96.8279 39.8288 96.8279 40.3453C96.7884 40.7085 95.3655 41.8016 93.7346 42.7297Z" fill="#FFB692"/>
<path d="M95.6689 38.5369L92.7765 38.5028C90.3414 38.4741 88.3442 40.4289 88.3155 42.869L88.0462 55.0865C89.6539 55.4222 91.6587 55.7044 93.9693 55.726C96.2145 55.747 98.1733 55.5164 99.7567 55.2245C99.8465 51.152 99.9362 47.0795 100.026 43.007C100.055 40.567 98.1041 38.5656 95.6689 38.5369ZM97.8059 40.5148C97.8446 41.6195 96.1659 42.5751 94.0566 42.6493C91.947 42.7236 90.2056 41.8883 90.167 40.7836C90.1283 39.6789 91.807 38.7231 93.9165 38.6488C96.0257 38.5748 97.7671 39.4101 97.8059 40.5148Z" fill="#EF3F1D"/>
<path d="M88.2027 47.9944L88.1712 49.4256L99.8831 49.4935L99.9147 48.0623L88.2027 47.9944Z" fill="#F2C50A"/>
<path d="M88.1008 52.622L99.8127 52.6899L99.8442 51.2587L88.1323 51.1908L88.1008 52.622Z" fill="#F2C50A"/>
<path d="M93.6296 26.9256H93.8305C95.118 26.9256 96.1618 28.5593 96.1618 30.5748V40.566H91.2985V30.5748C91.2982 28.5595 92.342 26.9256 93.6296 26.9256Z" fill="#FFB692"/>
<path d="M93.6296 26.9256H93.8305C95.118 26.9256 96.1618 28.4402 96.1618 30.3087V37.1348C96.1618 38.4806 95.0731 39.5716 93.7301 39.5716C92.3872 39.5716 91.2985 38.4806 91.2985 37.1348V30.3087C91.2982 28.4404 92.342 26.9256 93.6296 26.9256Z" fill="#D88D87"/>
<path d="M91.1118 35.0914H96.3535C97.5939 35.0914 98.5992 34.0838 98.5992 32.8411V29.7831C98.5992 27.0898 96.4203 24.9063 93.7326 24.9063C91.0449 24.9063 88.866 27.0898 88.866 29.7831V32.8411C88.8662 34.0838 89.8717 35.0914 91.1118 35.0914Z" fill="#252538"/>
<path d="M88.808 32.3208H98.6617C99.0927 32.3208 99.4423 31.9707 99.4423 31.5386C99.4423 31.1066 99.0929 30.7563 98.6617 30.7563H88.808C88.3769 30.7563 88.0273 31.1064 88.0273 31.5386C88.0273 31.9707 88.3767 32.3208 88.808 32.3208Z" fill="#D88D87"/>
<path d="M98.6615 31.9181C98.8703 31.9181 99.04 31.748 99.04 31.5388C99.04 31.3295 98.8703 31.1595 98.6615 31.1595H88.8078C88.5992 31.1595 88.4292 31.3295 88.4292 31.5388C88.4292 31.748 88.599 31.9181 88.8078 31.9181H98.6615Z" fill="#AA635F"/>
<path d="M93.7346 38.2381C96.1411 38.2381 98.0919 36.2832 98.0919 33.8717V29.7268C98.0919 27.4151 96.2216 25.5407 93.9145 25.5407H93.5547C91.2478 25.5407 89.3774 27.4149 89.3774 29.7268V33.8717C89.3776 36.2832 91.3284 38.2381 93.7346 38.2381Z" fill="#FFB692"/>
<path d="M98.0919 29.8441V29.7268C98.0919 27.4151 96.2216 25.5407 93.9145 25.5407H93.5547C92.2098 25.5407 91.0164 26.1805 90.2524 27.1697L98.0919 29.8441Z" fill="#D88D87"/>
<path d="M92.6261 35.9859C92.6656 36.2141 93.1383 36.3228 93.6823 36.2286C94.2263 36.1344 94.6355 35.8731 94.5961 35.6449C94.5568 35.4167 94.0838 35.308 93.5397 35.4022C92.9959 35.4965 92.5868 35.7577 92.6261 35.9859Z" fill="#D88D87"/>
<path d="M94.5794 33.4294L94.6819 33.5104C94.6292 33.5738 93.9133 34.395 92.4354 34.271L92.5608 34.1605L92.4708 34.0581L92.1149 34.3718L92.2653 34.3905C92.4344 34.4115 92.5942 34.4211 92.7452 34.4211C94.0903 34.4211 94.7297 33.6684 94.7892 33.595L94.9416 33.7151C94.9416 33.7151 94.9829 33.3232 94.5794 33.4294Z" fill="#8C5C53"/>
<path d="M95.9593 31.2261C95.9605 31.7211 95.5808 31.9858 95.1117 31.987C94.6427 31.9882 94.2617 31.7252 94.2605 31.2302C94.2593 30.7353 94.639 30.4928 95.1081 30.4918C95.5771 30.4908 95.9581 30.7314 95.9593 31.2261Z" fill="white"/>
<path d="M94.2275 31.2304C94.1986 31.0145 94.2733 30.7602 94.4619 30.6082C94.6453 30.4537 94.884 30.3986 95.1077 30.3968C95.3313 30.3982 95.57 30.452 95.754 30.6056C95.943 30.7567 96.0192 31.0098 95.9921 31.2259L95.9264 31.2261C95.9032 31.021 95.8098 30.8391 95.6549 30.7336C95.5006 30.6274 95.304 30.586 95.1083 30.5868C94.9127 30.5874 94.7163 30.6301 94.5629 30.7369C94.409 30.8432 94.3162 31.0249 94.2932 31.23L94.2275 31.2304Z" fill="#252538"/>
<path d="M94.8333 30.6588C94.4892 30.66 94.2112 30.9406 94.2122 31.2855C94.2135 31.6303 94.4935 31.9091 94.8376 31.9079C95.1817 31.9067 95.4597 31.6261 95.4587 31.2812C95.4575 30.9364 95.1775 30.6576 94.8333 30.6588Z" fill="#252538"/>
<path d="M95.8751 29.7166L95.071 29.466C94.8948 29.4112 94.7076 29.5097 94.6526 29.6863C94.5979 29.8629 94.6962 30.0505 94.8724 30.1055L95.6765 30.3562C95.8527 30.4112 96.0399 30.3125 96.0949 30.1359C96.1496 29.9593 96.0513 29.7715 95.8751 29.7166Z" fill="#252538"/>
<path d="M90.8446 31.2388C90.8459 31.7335 91.2268 31.9966 91.6959 31.9956C92.165 31.9943 92.5447 31.7294 92.5435 31.2347C92.5423 30.7398 92.1613 30.4993 91.6922 30.5003C91.2232 30.5016 90.8434 30.744 90.8446 31.2388Z" fill="white"/>
<path d="M92.5107 31.2347C92.4867 31.0296 92.3929 30.8485 92.2387 30.7428C92.0848 30.6366 91.8882 30.5952 91.6926 30.5954C91.4969 30.5954 91.3005 30.6378 91.1468 30.7449C90.9926 30.8511 90.9 31.0334 90.8778 31.2388L90.8119 31.239C90.7838 31.023 90.8587 30.7693 91.0469 30.6174C91.2301 30.4628 91.4686 30.4078 91.6922 30.4053C91.9159 30.4059 92.1548 30.4598 92.339 30.6135C92.5284 30.7646 92.6043 31.0185 92.5765 31.2347H92.5107Z" fill="#252538"/>
<path d="M91.4657 30.6672C91.8099 30.6666 92.0893 30.9459 92.0899 31.2908C92.0905 31.6356 91.8117 31.9156 91.4676 31.9162C91.1234 31.9167 90.844 31.6375 90.8434 31.2926C90.843 30.9478 91.1216 30.6678 91.4657 30.6672Z" fill="#252538"/>
<path d="M90.9216 29.7289L91.7244 29.4742C91.9002 29.4183 92.0881 29.516 92.1438 29.6924C92.1996 29.8688 92.1021 30.0568 91.9261 30.1127L91.1232 30.3674C90.9472 30.4233 90.7596 30.3256 90.7038 30.1492C90.6483 29.9728 90.7457 29.7848 90.9216 29.7289Z" fill="#252538"/>
<path d="M93.9035 33.1796L92.9135 33.1831C92.7503 33.1837 92.6174 33.0515 92.6168 32.8878C92.6161 32.7242 92.748 32.5911 92.9114 32.5904L93.9015 32.587C94.0647 32.5864 94.1976 32.7185 94.1982 32.8823C94.1986 33.0458 94.0667 33.179 93.9035 33.1796Z" fill="#BA726E"/>
<path d="M93.4104 33.2846C93.1676 33.2854 92.97 33.0888 92.9692 32.8456L92.9633 31.1652C92.9625 30.9219 93.1587 30.7239 93.4015 30.723C93.6443 30.7222 93.8419 30.9188 93.8427 31.1621L93.8486 32.8425C93.8494 33.0858 93.6532 33.2838 93.4104 33.2846Z" fill="#D88D87"/>
<path d="M95.1327 27.9035L98.0298 28.9119C98.8444 26.5616 97.6037 23.9945 95.2583 23.1782L92.3614 22.1698C91.5465 24.5201 92.7873 27.0872 95.1327 27.9035Z" fill="#252538"/>
<path d="M92.2684 27.4249L94.3934 27.5841C94.5222 25.8601 93.2318 24.3579 91.5115 24.2291L89.3865 24.0698C89.2577 25.7938 90.5479 27.296 92.2684 27.4249Z" fill="#252538"/>
<path d="M90.334 26.5569C92.7328 27.203 94.5989 25.9568 94.5989 25.9568C94.5989 25.9568 96.6199 26.8659 98.0872 26.1354C97.9036 25.5261 97.5929 24.9602 97.1747 24.4774C96.3769 25.1535 95.357 25.5412 94.1146 25.0956C94.1146 25.0956 92.375 26.9709 89.4205 24.8025C89.5296 25.4818 89.8556 26.0946 90.334 26.5569Z" fill="#464668"/>
<path d="M33.8144 42.7499C34.3807 43.5232 34.2143 44.6099 33.4426 45.1775L30.9065 47.0426L28.8558 44.2425L31.3919 42.3773C32.1636 41.81 33.2482 41.9766 33.8144 42.7499Z" fill="#252538"/>
<path d="M40.818 53.1928H37.97C35.8692 53.1928 34.1504 54.9152 34.1504 57.0204C34.1504 59.1256 35.8692 60.848 37.97 60.848H40.818C42.9188 60.848 44.6376 59.1256 44.6376 57.0204C44.6378 54.9154 42.919 53.193 40.818 53.1928Z" fill="#252538"/>
<path d="M33.4347 57.2885C33.5122 57.769 33.8559 58.1667 34.3225 58.3013C35.3557 58.5992 36.8289 58.868 38.574 58.7002C41.0301 58.464 42.8693 57.4739 43.9441 56.7422C44.3488 56.4665 44.554 55.9781 44.4758 55.494C43.7711 51.1274 43.1272 47.1254 42.4269 42.785C42.0224 40.278 39.6662 38.5736 37.1645 38.9792L34.882 39.3493C32.5457 39.728 30.9584 41.9329 31.3363 44.2739L33.4347 57.2885Z" fill="#252538"/>
<path d="M39.3709 39.8184C39.5618 40.6739 38.2408 41.698 36.4207 42.1059C34.6003 42.5137 32.9701 42.1507 32.779 41.2953C32.5881 40.4398 33.909 39.4156 35.7294 39.0076C37.5495 38.5999 39.18 38.9627 39.3709 39.8184Z" fill="#FFB692"/>
<path d="M42.1715 41.0622C41.8439 39.1544 40.0349 37.8741 38.1311 38.2024L36.5399 38.4769L38.1358 38.8114C38.8855 38.9684 39.1548 39.902 38.6043 40.4357L36.5471 42.4299C35.7393 43.213 34.4469 43.1771 33.6837 42.3504L32.8058 41.3995C32.3962 40.9557 32.4947 40.2468 33.0099 39.9324L34.9436 38.7522L34.521 38.825C32.0667 39.2484 30.4195 41.5852 30.8418 44.0449L33.2759 58.0743C34.6699 58.2517 36.5961 58.3476 38.8418 57.9995C41.4094 57.6012 43.4284 56.7722 44.777 56.0907C43.8682 50.7993 43.0802 46.3536 42.1715 41.0622ZM42.1377 46.1088C42.259 46.957 41.6711 47.7431 40.8247 47.8649C39.9784 47.9866 39.1938 47.3973 39.0724 46.5491L38.4604 42.2696C38.3391 41.4215 38.9268 40.6353 39.7734 40.5136C40.6198 40.392 41.4043 40.981 41.5258 41.8293L42.1377 46.1088Z" fill="#EF3F1D"/>
<path d="M32.2319 52.0563L43.7912 50.3961C43.709 49.9244 43.6272 49.4547 43.5456 48.9853L31.9873 50.6453L32.2319 52.0563Z" fill="#F2C50A"/>
<path d="M32.7464 55.0214L44.3063 53.3612C44.2241 52.8865 44.1427 52.4168 44.0617 51.9504L32.5018 53.6106L32.7464 55.0214Z" fill="#F2C50A"/>
<path d="M38.0087 34.1746L33.71 34.1504L33.673 40.7833L37.9716 40.8074L38.0087 34.1746Z" fill="#FFB692"/>
<path d="M35.824 39.9823C34.637 39.9756 33.6801 39.0059 33.6868 37.8164L33.7074 34.1513L38.0058 34.1756L37.9852 37.8407C37.9787 39.0304 37.0111 39.9891 35.824 39.9823Z" fill="#D88D87"/>
<path d="M40.6028 30.8814C41.2429 28.202 39.5942 25.51 36.9205 24.8686C34.2467 24.2272 31.5604 25.8793 30.9203 28.5587C30.2803 31.238 31.9289 33.93 34.6027 34.5714C37.2764 35.2128 39.9628 33.5607 40.6028 30.8814Z" fill="#54321A"/>
<path d="M40.3646 32.8025L31.1283 32.7503C30.7242 32.7481 30.3986 32.4179 30.4008 32.0131C30.403 31.6081 30.7325 31.2818 31.1367 31.2841L40.3732 31.3363C40.7773 31.3385 41.1029 31.6687 41.1007 32.0737C41.098 32.4785 40.7688 32.8048 40.3646 32.8025Z" fill="#D88D87"/>
<path d="M30.7838 32.0152C30.7848 31.8222 30.9419 31.6666 31.1344 31.6679L40.3709 31.7201C40.5634 31.7211 40.7187 31.8785 40.7175 32.0714C40.7165 32.2644 40.5594 32.42 40.3669 32.4189L31.1306 32.3667C30.9379 32.3655 30.7826 32.2081 30.7838 32.0152Z" fill="#AA635F"/>
<path d="M35.7117 38.9498C33.456 38.937 31.6377 37.0945 31.6505 34.8341L31.6762 30.2899C31.6884 28.1229 33.4513 26.3761 35.6138 26.3883L35.951 26.3901C38.1134 26.4024 39.8567 28.169 39.8445 30.336L39.8188 34.8802C39.8062 37.1406 37.9673 38.9627 35.7117 38.9498Z" fill="#54321A"/>
<path d="M35.7182 37.7958C33.4625 37.7829 31.6442 35.9404 31.657 33.6799L31.6827 29.1357C31.6949 26.9687 33.4579 25.2218 35.6203 25.234L35.9575 25.2359C38.1199 25.2481 39.8632 27.0148 39.851 29.1817L39.8253 33.7259C39.8127 35.9865 37.9738 37.8084 35.7182 37.7958Z" fill="#FFB692"/>
<path d="M39.8418 30.0411L31.6754 29.633L31.68 28.7998C33.7743 28.7998 37.3041 28.7998 39.8487 28.7998L39.8418 30.0411Z" fill="#D88D87"/>
<path d="M36.6647 36.6791C36.6635 36.8961 36.243 37.0698 35.7255 37.0669C35.208 37.0641 34.7896 36.8857 34.7908 36.6687C34.792 36.4517 35.2125 36.2779 35.73 36.281C36.2475 36.2836 36.6659 36.4621 36.6647 36.6791Z" fill="#D88D87"/>
<path d="M38.8896 25.8391C38.1507 26.2451 37.6472 27.029 37.6421 27.9335C37.6346 29.2607 38.7024 30.3427 40.0268 30.3503C40.2655 30.3517 40.4955 30.3168 40.7134 30.253C40.7309 30.087 40.7407 29.9188 40.7415 29.7483C40.7507 28.17 40.0262 26.7597 38.8896 25.8391Z" fill="#54321A"/>
<path d="M32.702 25.8042C33.4363 26.2186 33.931 27.0082 33.9257 27.9125C33.9182 29.2397 32.8386 30.3097 31.514 30.3021C31.2755 30.3007 31.0455 30.2634 30.8284 30.1971C30.8127 30.0309 30.805 29.8625 30.806 29.692C30.8149 28.114 31.5551 26.7119 32.702 25.8042Z" fill="#54321A"/>
<path d="M35.6398 29.1962L38.3629 29.2117C38.3753 27.0025 36.5983 25.2016 34.3938 25.1892L31.6707 25.1739C31.6583 27.3829 33.4353 29.1838 35.6398 29.1962Z" fill="#54321A"/>
<path d="M36.0818 28.1741L38.1883 28.8C38.694 27.091 37.7215 25.295 36.0161 24.7883L33.9096 24.1624C33.4041 25.8713 34.3767 27.6674 36.0818 28.1741Z" fill="#54321A"/>
<path d="M36.5127 28.025L38.3629 29.2117C39.3216 27.7104 38.8847 25.7145 37.3865 24.7538L35.5358 23.5671C34.5771 25.0682 35.0145 27.0641 36.5127 28.025Z" fill="#54321A"/>
<path d="M38.3668 25.7382C37.034 26.7976 34.7418 28.0132 32.0492 26.8981C32.3628 27.5654 32.8555 28.1315 33.465 28.5351C35.2267 28.8294 37.3477 28.2345 38.8424 27.0474C38.7809 26.5845 38.6198 26.1368 38.3668 25.7382Z" fill="#875330"/>
<path d="M36.5725 34.4289C36.1744 34.384 35.617 34.2945 35.0873 34.1167C34.7389 33.9996 34.4595 34.4491 34.6571 34.8164C34.8673 35.2071 35.2231 35.566 35.8222 35.5925C36.3132 35.6141 36.6199 35.4712 36.8114 35.2809C37.0823 35.0111 36.9274 34.4689 36.5725 34.4289Z" fill="#252538"/>
<path d="M35.8222 35.5925C35.2231 35.566 34.8673 35.2071 34.6571 34.8164C34.6274 34.7613 34.6099 34.7042 34.6001 34.6477C34.8079 34.5427 35.0889 34.4915 35.4713 34.5576C36.0621 34.6597 36.3663 35.0609 36.5222 35.4747C36.5224 35.4755 36.5226 35.4763 36.5228 35.4771C36.346 35.5581 36.1181 35.6056 35.8222 35.5925Z" fill="#FF9292"/>
<path d="M36.0861 35.0913C36.0318 35.1949 35.8053 35.1883 35.5804 35.0768C35.3553 34.9652 35.2172 34.7909 35.2713 34.6873C35.3256 34.5837 35.5519 34.5902 35.777 34.7018C36.0021 34.8135 36.1405 34.9879 36.0861 35.0913Z" fill="#FFABAB"/>
<path d="M36.5725 34.4289C36.1744 34.384 35.617 34.2945 35.0873 34.1167C34.8734 34.0447 34.6858 34.1868 34.6184 34.3922C34.9363 34.6522 35.4131 34.8531 35.9628 34.9281C36.3153 34.9762 36.6525 34.9662 36.9484 34.9094C36.94 34.6789 36.7962 34.454 36.5725 34.4289Z" fill="white"/>
<path d="M33.278 31.7861C33.2767 32.2811 33.6563 32.5458 34.1256 32.547C34.5946 32.5482 34.9756 32.2852 34.9768 31.7902C34.978 31.2953 34.5983 31.0528 34.1292 31.0518C33.6599 31.0506 33.279 31.2912 33.278 31.7861Z" fill="white"/>
<path d="M34.9438 31.7902C34.9209 31.5849 34.8281 31.4034 34.6742 31.2971C34.5208 31.1901 34.3244 31.1476 34.1288 31.147C33.933 31.146 33.7365 31.1876 33.5822 31.2939C33.4273 31.3995 33.3339 31.5812 33.3107 31.7864L33.2448 31.7861C33.2177 31.57 33.2938 31.3169 33.4829 31.1658C33.6666 31.012 33.9056 30.9582 34.1292 30.9568C34.3529 30.9586 34.5916 31.0135 34.7749 31.1682C34.9638 31.3202 35.0383 31.5745 35.0094 31.7904L34.9438 31.7902Z" fill="#252538"/>
<path d="M34.4037 31.2186C34.7479 31.2198 35.0259 31.5004 35.0246 31.8453C35.0234 32.1901 34.7434 32.4689 34.3993 32.4677C34.0551 32.4665 33.777 32.1859 33.7782 31.841C33.7796 31.4962 34.0596 31.2176 34.4037 31.2186Z" fill="#252538"/>
<path d="M33.3622 30.2764L34.1663 30.0258C34.3425 29.971 34.5297 30.0695 34.5847 30.2461C34.6394 30.4227 34.5411 30.6103 34.3649 30.6653L33.5608 30.916C33.3846 30.9708 33.1974 30.8723 33.1424 30.6957C33.0875 30.5191 33.186 30.3313 33.3622 30.2764Z" fill="#54321A"/>
<path d="M38.3924 31.7986C38.3912 32.2935 38.0103 32.5564 37.5412 32.5554C37.0721 32.5541 36.6924 32.2892 36.6936 31.7945C36.6948 31.2996 37.0758 31.0591 37.5448 31.0602C38.0139 31.0614 38.3937 31.3039 38.3924 31.7986Z" fill="white"/>
<path d="M36.6606 31.7945C36.6327 31.5785 36.7086 31.3244 36.8981 31.1733C37.0823 31.0196 37.3212 30.9657 37.5448 30.9651C37.7685 30.9676 38.007 31.0226 38.1902 31.1772C38.3784 31.3291 38.4535 31.5828 38.4252 31.7988L38.3593 31.7986C38.3371 31.5934 38.2445 31.4111 38.0902 31.3047C37.9366 31.1976 37.74 31.1552 37.5444 31.1552C37.3489 31.155 37.1523 31.1964 36.9984 31.3026C36.8442 31.4081 36.7504 31.5892 36.7263 31.7945H36.6606Z" fill="#252538"/>
<path d="M37.7713 31.227C37.4272 31.2264 37.1478 31.5057 37.1472 31.8506C37.1466 32.1954 37.4254 32.4754 37.7695 32.476C38.1136 32.4765 38.3931 32.1973 38.3937 31.8524C38.3943 31.5076 38.1157 31.2276 37.7713 31.227Z" fill="#252538"/>
<path d="M38.3155 30.2887L37.5127 30.034C37.3369 29.9781 37.149 30.0758 37.0933 30.2522C37.0375 30.4284 37.135 30.6166 37.311 30.6725L38.1138 30.9272C38.2899 30.9831 38.4775 30.8854 38.5333 30.709C38.589 30.5328 38.4916 30.3446 38.3155 30.2887Z" fill="#54321A"/>
<path d="M35.3338 33.9925L36.3238 33.9959C36.4872 33.9966 36.6199 33.8644 36.6205 33.7007C36.6211 33.5371 36.4893 33.4039 36.3258 33.4033L35.3358 33.3999C35.1726 33.3992 35.0397 33.5316 35.0391 33.6951C35.0385 33.8589 35.1703 33.9919 35.3338 33.9925Z" fill="#BA726E"/>
<path d="M35.8266 34.0975C36.0694 34.0983 36.267 33.9017 36.2678 33.6584L36.2738 31.978C36.2746 31.7348 36.0784 31.5367 35.8356 31.5359C35.5928 31.5351 35.3954 31.7317 35.3944 31.975L35.3885 33.6554C35.3877 33.8989 35.5839 34.0967 35.8266 34.0975Z" fill="#D88D87"/>
<path d="M40.2936 40.1791C39.4024 40.5289 38.9627 41.5363 39.3117 42.4293L40.4586 45.3647L43.686 44.0983L42.5391 41.1629C42.1903 40.2701 41.1847 39.8296 40.2936 40.1791Z" fill="#252538"/>
<path d="M45.9182 37.044L9.06641 53.0691L9.3622 53.7521L46.214 37.727L45.9182 37.044Z" fill="#F7F7F7"/>
<path d="M12.957 51.8654C13.3678 52.8447 12.9087 53.9722 11.9317 54.384L1.48803 58.785L0 55.239L10.4437 50.838C11.4207 50.4263 12.5459 50.8861 12.957 51.8654Z" fill="#F2C50A"/>
<path d="M44.4038 38.2206C43.9929 37.2413 44.4518 36.1138 45.429 35.702L55.8727 31.301L57.3607 34.847L46.9171 39.248C45.94 39.6599 44.8149 39.1999 44.4038 38.2206Z" fill="#F2C50A"/>
<path d="M45.9606 38.1109L40.6271 40.43L40.1304 39.2827L45.4638 36.9636C46.1378 36.6585 46.6438 37.8264 45.9606 38.1109Z" fill="#252538"/>
<path d="M9.31219 52.6836L14.6456 50.3645L15.1424 51.5116L9.80894 53.8307C9.13514 54.1362 8.62923 52.9683 9.31219 52.6836Z" fill="#252538"/>
<path d="M18.2782 51.6545L17.9815 51.7534C17.1502 52.0306 16.2521 51.5797 15.9758 50.7468C15.6992 49.914 16.1489 49.0138 16.9803 48.7369L17.2772 48.638C18.1085 48.3611 19.0064 48.8115 19.2829 49.6446C19.5593 50.4775 19.1095 51.3774 18.2782 51.6545Z" fill="#FFB692"/>
<path d="M16.9503 49.7755L19.1915 48.5581C19.1915 48.5581 20.1303 50.4618 19.3432 50.8906C18.4781 51.3619 18.1773 50.016 18.1773 50.016C18.1773 50.016 17.4786 50.4501 16.9503 49.7755Z" fill="#FFB692"/>
<path d="M19.3432 50.8906C19.2174 50.9561 19.079 51.0211 18.9262 51.0062C18.7754 50.9944 18.6352 50.9157 18.5273 50.8117C18.4182 50.7073 18.3325 50.5817 18.2632 50.4501C18.1936 50.3174 18.1376 50.1822 18.0938 50.0343L18.2222 50.0884C18.1079 50.1536 17.9955 50.1924 17.873 50.2181C17.7517 50.2423 17.6241 50.2456 17.5002 50.2225C17.3767 50.1997 17.2552 50.153 17.153 50.0806C17.0466 50.0131 16.9621 49.9217 16.8832 49.8285L16.8156 49.7539L16.9096 49.6999C17.2782 49.4878 17.6581 49.2965 18.0401 49.1093C18.4207 48.9194 18.8051 48.7369 19.1915 48.5581C18.8311 48.785 18.4683 49.0075 18.1018 49.2235C17.7367 49.4421 17.3696 49.6568 16.991 49.8504L17.0175 49.7221C17.0867 49.8031 17.1595 49.8822 17.2477 49.9374C17.3323 49.998 17.4302 50.0347 17.5307 50.0535C17.6315 50.0722 17.7369 50.0702 17.8401 50.0496C17.9414 50.0294 18.0478 49.9907 18.1323 49.9425L18.2338 49.8846L18.2609 49.9966C18.3157 50.2625 18.4117 50.5419 18.5892 50.7521C18.6781 50.8559 18.7945 50.9383 18.9315 50.9634C19.0703 50.9918 19.2105 50.944 19.3432 50.8906Z" fill="#D88D87"/>
<path d="M16.4111 50.3406C16.2069 50.4407 15.958 50.3553 15.8581 50.1506L15.1841 48.6015C15.0842 48.3969 15.1697 48.1475 15.3738 48.0474C15.5781 47.9473 15.8268 48.0327 15.9267 48.2375L16.6007 49.7865C16.7006 49.9911 16.6154 50.2405 16.4111 50.3406Z" fill="#FFB692"/>
<path d="M16.1768 48.8124C16.3205 49.0709 16.4554 49.3326 16.581 49.5985L16.6766 49.8028C16.7065 49.8822 16.7177 49.9703 16.7027 50.0549C16.6752 50.2244 16.5486 50.3759 16.3832 50.4287C16.2189 50.4848 16.0279 50.4414 15.9043 50.3225C15.8421 50.267 15.7969 50.1797 15.7747 50.1153L15.6939 49.9091C15.5865 49.6342 15.4818 49.3583 15.3907 49.0766C15.5344 49.3352 15.6646 49.5991 15.7922 49.8642L15.8876 50.0631C15.918 50.1361 15.946 50.1805 15.9949 50.2234C16.0873 50.3041 16.223 50.3353 16.3378 50.2929C16.4536 50.255 16.5456 50.1522 16.5673 50.0298C16.581 49.9697 16.5759 49.906 16.5572 49.8469L16.4772 49.646C16.3681 49.3719 16.2682 49.0938 16.1768 48.8124Z" fill="#D88D87"/>
<path d="M17.1158 49.9064C16.9117 50.0066 16.6628 49.9209 16.5629 49.7164L15.8889 48.1673C15.7889 47.9628 15.8742 47.7134 16.0785 47.6132C16.2826 47.5131 16.5315 47.5986 16.6314 47.8033L17.3055 49.3524C17.4054 49.5569 17.3199 49.8063 17.1158 49.9064Z" fill="#FFB692"/>
<path d="M16.8816 48.3782C17.0252 48.6368 17.1602 48.8984 17.2857 49.1643L17.3814 49.3687C17.4113 49.448 17.4225 49.5361 17.4074 49.6207C17.3799 49.7902 17.2534 49.9417 17.0879 49.9945C16.9237 50.0508 16.7326 50.0072 16.6091 49.8883C16.547 49.8328 16.5016 49.7455 16.4794 49.6811L16.3986 49.4749C16.2912 49.2 16.1866 48.9241 16.0954 48.6425C16.2391 48.9011 16.3693 49.165 16.4969 49.4301L16.5924 49.6289C16.6227 49.7019 16.6508 49.7464 16.6996 49.7892C16.792 49.8699 16.9278 49.9011 17.0425 49.8589C17.1583 49.821 17.2503 49.7182 17.2721 49.5959C17.2857 49.5357 17.2806 49.4721 17.2619 49.4129L17.1819 49.2121C17.0728 48.9378 16.9727 48.6596 16.8816 48.3782Z" fill="#D88D87"/>
<path d="M17.813 49.4335C17.6089 49.5337 17.36 49.4482 17.2601 49.2435L16.5861 47.6944C16.4861 47.4897 16.5714 47.2405 16.7757 47.1403C16.9798 47.0402 17.2287 47.1256 17.3287 47.3304L18.0027 48.8794C18.1024 49.084 18.0171 49.3334 17.813 49.4335Z" fill="#FFB692"/>
<path d="M17.5788 47.9053C17.7224 48.1639 17.8574 48.4255 17.9829 48.6914L18.0786 48.8958C18.1085 48.9751 18.1197 49.0632 18.1046 49.1478C18.0771 49.3173 17.9506 49.4688 17.7851 49.5216C17.6209 49.5777 17.4298 49.5343 17.3063 49.4152C17.2442 49.3597 17.1988 49.2724 17.1768 49.208L17.0961 49.0018C16.9886 48.7269 16.884 48.451 16.7928 48.1694C16.9365 48.4279 17.0667 48.6918 17.1943 48.9569L17.2898 49.1558C17.3201 49.2288 17.3482 49.2732 17.397 49.3161C17.4894 49.3968 17.6252 49.428 17.7399 49.3856C17.8555 49.3477 17.9477 49.2449 17.9695 49.1225C17.9831 49.0624 17.978 48.9987 17.9593 48.9396L17.8793 48.7387C17.7701 48.4649 17.6699 48.1867 17.5788 47.9053Z" fill="#D88D87"/>
<path d="M18.6708 49.3777C18.4667 49.4778 18.2178 49.3923 18.1178 49.1876L17.444 47.6385C17.3441 47.434 17.4294 47.1846 17.6337 47.0844C17.838 46.9843 18.0867 47.0698 18.1866 47.2745L18.8606 48.8236C18.9602 49.0281 18.8749 49.2775 18.6708 49.3777Z" fill="#FFB692"/>
<path d="M18.4365 47.8494C18.5802 48.108 18.7151 48.3696 18.8407 48.6355L18.9363 48.8399C18.9663 48.9192 18.9775 49.0073 18.9624 49.0919C18.9349 49.2614 18.8083 49.4129 18.6429 49.4658C18.4787 49.5218 18.2876 49.4784 18.164 49.3593C18.1018 49.3038 18.0566 49.2165 18.0344 49.1521L17.9536 48.9459C17.8462 48.671 17.7416 48.3951 17.6504 48.1135C17.7941 48.3721 17.9243 48.636 18.0519 48.9011L18.1474 49.0999C18.1777 49.1729 18.2058 49.2174 18.2546 49.2602C18.347 49.341 18.4827 49.3722 18.5975 49.3297C18.7133 49.2918 18.8053 49.189 18.8271 49.0667C18.8407 49.0065 18.8356 48.9429 18.8169 48.8837L18.7369 48.6829C18.6278 48.409 18.5277 48.1308 18.4365 47.8494Z" fill="#D88D87"/>
<path d="M32.9582 44.8885L33.236 44.7445C34.014 44.3412 34.3185 43.3819 33.9159 42.6022C33.5134 41.8226 32.5563 41.5175 31.7781 41.9209L31.5003 42.0651C30.7223 42.4685 30.4179 43.4276 30.8204 44.2074C31.2232 44.9868 32.1802 45.2919 32.9582 44.8885Z" fill="#FFB692"/>
<path d="M32.5415 42.6241L30.1073 43.3835C30.1073 43.3835 30.8133 45.3857 31.669 45.1198C32.6094 44.8275 31.8573 43.6725 31.8573 43.6725C31.8573 43.6725 32.6552 43.4743 32.5415 42.6241Z" fill="#FFB692"/>
<path d="M31.669 45.1198C31.8038 45.0751 31.9468 45.0213 32.0429 44.9014C32.1395 44.7849 32.1811 44.6293 32.1821 44.4792C32.1837 44.3281 32.1536 44.179 32.1078 44.0373C32.0614 43.8948 32.0038 43.7604 31.9287 43.6256L31.8776 43.7555C32.004 43.7188 32.11 43.6653 32.214 43.5952C32.316 43.525 32.4072 43.4357 32.4774 43.3307C32.5472 43.2261 32.5987 43.1064 32.6182 42.9826C32.6442 42.859 32.6377 42.7346 32.6263 42.6131L32.6204 42.5125L32.5162 42.5423C32.1074 42.6587 31.7057 42.7982 31.3054 42.9418C30.9041 43.0825 30.505 43.2308 30.1073 43.3835C30.5211 43.2832 30.9338 43.1782 31.3438 43.0658C31.7549 42.9563 32.1646 42.8425 32.5671 42.7058L32.457 42.6355C32.4666 42.7417 32.4725 42.8492 32.4505 42.951C32.4348 43.054 32.3927 43.1498 32.3359 43.235C32.2792 43.3205 32.2041 43.3947 32.1174 43.4543C32.0321 43.513 31.9303 43.5621 31.8369 43.5893L31.7248 43.6217L31.7859 43.7192C31.9377 43.9441 32.0704 44.208 32.097 44.4819C32.1092 44.6181 32.0868 44.7592 32.0093 44.8751C31.9322 44.9946 31.7997 45.0619 31.669 45.1198Z" fill="#D88D87"/>
<path d="M33.3217 42.6312C33.5356 42.5545 33.6481 42.3163 33.5716 42.1018L32.9344 40.5372C32.8579 40.3227 32.62 40.2101 32.4061 40.2868C32.1921 40.3635 32.0795 40.6019 32.1562 40.8162L32.7934 42.3808C32.8699 42.5953 33.1078 42.7079 33.3217 42.6312Z" fill="#FFB692"/>
<path d="M32.3927 41.3968C32.4774 41.6805 32.5704 41.9599 32.6727 42.2356L32.7519 42.4469C32.7877 42.5237 32.8429 42.5933 32.9139 42.6414C33.0543 42.7399 33.2509 42.7548 33.4041 42.673C33.559 42.5943 33.6612 42.4269 33.6622 42.2552C33.6658 42.1717 33.6351 42.0783 33.6044 42.0176L33.5134 41.8157C33.3919 41.5467 33.2676 41.2791 33.13 41.0173C33.2145 41.3008 33.3123 41.5785 33.4129 41.8548L33.4884 42.062C33.5193 42.1346 33.5315 42.1858 33.5281 42.2509C33.5214 42.3736 33.4489 42.4927 33.3386 42.5456C33.2307 42.6022 33.093 42.5965 32.9904 42.5268C32.9379 42.4946 32.896 42.4466 32.8667 42.3918L32.7788 42.1942C32.6593 41.9246 32.5303 41.6587 32.3927 41.3968Z" fill="#D88D87"/>
<path d="M32.5197 42.8341C32.7338 42.7574 32.8461 42.519 32.7696 42.3047L32.1324 40.7401C32.0559 40.5256 31.818 40.413 31.6039 40.4897C31.3898 40.5664 31.2775 40.8046 31.354 41.0191L31.9912 42.5837C32.0679 42.7982 32.3058 42.9108 32.5197 42.8341Z" fill="#FFB692"/>
<path d="M31.5907 41.5997C31.6754 41.8832 31.7684 42.1628 31.8707 42.4385L31.9501 42.6498C31.9859 42.7266 32.0411 42.7962 32.1121 42.8443C32.2525 42.9428 32.4491 42.9577 32.6023 42.8759C32.7572 42.7972 32.8593 42.6298 32.8604 42.4581C32.864 42.3747 32.8333 42.2813 32.8026 42.2205L32.7116 42.0186C32.5901 41.7496 32.4658 41.4818 32.3282 41.2202C32.4127 41.5037 32.5105 41.7814 32.6111 42.058L32.6866 42.2652C32.7175 42.3378 32.7297 42.3889 32.7263 42.454C32.7195 42.5768 32.6471 42.6959 32.5368 42.7489C32.4289 42.8056 32.2912 42.7999 32.1886 42.7301C32.1361 42.6979 32.0942 42.65 32.0649 42.5951L31.9769 42.3975C31.8573 42.1275 31.7283 41.8616 31.5907 41.5997Z" fill="#D88D87"/>
<path d="M31.6953 43.0046C31.9094 42.9279 32.0217 42.6895 31.9452 42.4752L31.308 40.9106C31.2315 40.6961 30.9936 40.5833 30.7797 40.6602C30.5656 40.7369 30.4533 40.9751 30.5298 41.1896L31.167 42.7542C31.2433 42.9687 31.4812 43.0815 31.6953 43.0046Z" fill="#FFB692"/>
<path d="M30.7661 41.7704C30.8508 42.0539 30.9438 42.3335 31.0461 42.609L31.1255 42.8202C31.1613 42.8971 31.2165 42.9667 31.2875 43.0148C31.4279 43.1133 31.6245 43.1282 31.7777 43.0464C31.9324 42.9677 32.0345 42.8003 32.0358 42.6286C32.0394 42.5451 32.0087 42.4517 31.978 42.391L31.887 42.1891C31.7655 41.9201 31.6412 41.6525 31.5036 41.3907C31.5881 41.6742 31.6859 41.9519 31.7865 42.2284L31.862 42.4356C31.8929 42.5082 31.9051 42.5594 31.9017 42.6245C31.8949 42.7472 31.8225 42.8663 31.7122 42.9194C31.6043 42.9761 31.4666 42.9703 31.364 42.9006C31.3115 42.8684 31.2696 42.8205 31.2403 42.7658L31.1523 42.5682C31.0327 42.298 30.9037 42.0321 30.7661 41.7704Z" fill="#D88D87"/>
<path d="M31.0567 43.5815C31.2708 43.5048 31.3831 43.2664 31.3066 43.0521L30.6694 41.4876C30.5929 41.273 30.3552 41.1602 30.1411 41.2371C29.927 41.3138 29.8145 41.552 29.8912 41.7665L30.5284 43.3311C30.6049 43.5454 30.8426 43.6582 31.0567 43.5815Z" fill="#FFB692"/>
<path d="M30.1277 42.3471C30.2122 42.6306 30.3052 42.9102 30.4077 43.1859L30.4871 43.3972C30.5229 43.4741 30.5781 43.5436 30.6491 43.5917C30.7895 43.6902 30.9861 43.7051 31.1393 43.6233C31.2942 43.5446 31.3964 43.3772 31.3974 43.2055C31.401 43.1221 31.3703 43.0287 31.3396 42.9679L31.2486 42.766C31.1271 42.497 31.0028 42.2295 30.8652 41.9676C30.9497 42.2511 31.0475 42.5288 31.1481 42.8054L31.2238 43.0126C31.2547 43.0852 31.2669 43.1363 31.2635 43.2014C31.2567 43.3242 31.1843 43.4433 31.074 43.4961C30.9661 43.5528 30.8284 43.5471 30.7258 43.4773C30.6733 43.4451 30.6314 43.3972 30.6021 43.3425L30.5142 43.1449C30.3943 42.8749 30.2653 42.609 30.1277 42.3471Z" fill="#D88D87"/>
<path d="M67.5604 73H42.536C35.846 73 29.1035 71.5054 23.0376 68.6779L19.7671 67.1533C16.4041 65.5859 14.946 61.5833 16.5104 58.2132C18.0747 54.8432 22.0687 53.3818 25.4318 54.9494L28.7024 56.4742C33.0061 58.4803 37.7897 59.5405 42.536 59.5405H67.5604C71.2695 59.5405 74.2761 62.5534 74.2761 66.2703C74.2761 69.9871 71.2695 73 67.5604 73Z" fill="#F2C50A"/>
<path d="M84.6605 73H59.6357C55.9266 73 52.9201 69.9871 52.9201 66.2703C52.9201 62.5534 55.9266 59.5405 59.6357 59.5405H84.6605C89.4069 59.5405 94.1905 58.4803 98.4942 56.4742L101.765 54.9494C105.127 53.3822 109.122 54.8432 110.686 58.2132C112.251 61.5831 110.792 65.5857 107.429 67.1533L104.159 68.6781C98.0931 71.5054 91.3506 73 84.6605 73Z" fill="#F2C50A"/>
<path d="M104.159 68.6781L107.429 67.1533C109.551 66.1646 110.913 64.2069 111.238 62.0505C110.65 62.6731 109.938 63.1985 109.116 63.5819L105.719 65.1652C99.4202 68.1014 92.4181 69.6535 85.4707 69.6535H41.7255C34.778 69.6535 27.776 68.1014 21.4767 65.165L18.0802 63.5819C17.2574 63.1983 16.546 62.6731 15.9583 62.0505C16.2835 64.2069 17.6459 66.1646 19.7671 67.1533L23.0376 68.6779C29.1035 71.5054 35.846 73 42.536 73H84.6605C91.3506 73 98.0931 71.5054 104.159 68.6781Z" fill="#FC8E44"/>
<path d="M68.14 65.594H39.4556C32.8166 65.594 26.1258 64.1111 20.1061 61.3052L16.3571 59.5577C16.0651 59.4215 15.9385 59.074 16.0743 58.7811C16.21 58.4885 16.557 58.3616 16.849 58.4976L20.598 60.2451C26.4646 62.9798 32.9853 64.4253 39.4556 64.4253H68.14C68.4621 64.4253 68.723 64.6868 68.723 65.0096C68.723 65.3326 68.4621 65.594 68.14 65.594Z" fill="#EF3F1D"/>
<path d="M87.7408 65.594H59.0561C58.7342 65.594 58.4729 65.3326 58.4729 65.0098C58.4729 64.687 58.734 64.4255 59.0561 64.4255H87.7406C94.2108 64.4255 100.732 62.9801 106.598 60.2453L110.347 58.4979C110.64 58.3618 110.986 58.4887 111.122 58.7813C111.258 59.0742 111.131 59.4217 110.839 59.5579L107.09 61.3054C101.071 64.1111 94.3797 65.594 87.7408 65.594Z" fill="#EF3F1D"/>
<path d="M108.005 59.5842L108.3 59.6888C109.126 59.9821 110.033 59.5491 110.325 58.7216C110.618 57.8942 110.186 56.9855 109.36 56.6922L109.065 56.5874C108.24 56.2942 107.333 56.7271 107.04 57.5545C106.748 58.3824 107.18 59.2909 108.005 59.5842Z" fill="#FFB692"/>
<path d="M93.1711 50.9381L92.9318 50.7364C92.2613 50.1716 92.1746 49.1688 92.7383 48.4969C93.302 47.8249 94.3026 47.738 94.9732 48.3029L95.2127 48.5046C95.8832 49.0695 95.9699 50.0722 95.4062 50.7442C94.8423 51.4161 93.8417 51.503 93.1711 50.9381Z" fill="#FFB692"/>
<path d="M83.222 42.4699L82.8366 43.1065L117.182 63.9822L117.567 63.3457L83.222 42.4699Z" fill="#F7F7F7"/>
<path d="M86.4502 44.9552C85.8901 45.8572 84.7065 46.1335 83.8064 45.5723L74.1865 39.5751L76.2143 36.3087L85.8342 42.3059C86.7345 42.8671 87.0102 44.0532 86.4502 44.9552Z" fill="#F2C50A"/>
<path d="M115.737 62.7863C116.297 61.8843 117.48 61.608 118.38 62.1692L128 68.1664L125.972 71.4328L116.352 65.4356C115.452 64.8744 115.177 63.6883 115.737 62.7863Z" fill="#F2C50A"/>
<path d="M116.726 63.996L111.755 60.9748L112.402 59.9056L117.373 62.9268C118.011 63.3015 117.352 64.39 116.726 63.996Z" fill="#252538"/>
<path d="M83.6774 42.4475L88.6484 45.4687L88.0013 46.5379L83.0303 43.5167C82.3923 43.142 83.051 42.0535 83.6774 42.4475Z" fill="#252538"/>
<path d="M109.37 57.7315L107.153 56.4704C107.153 56.4704 106.177 58.3553 106.956 58.7995C107.811 59.2877 108.138 57.9476 108.138 57.9476C108.138 57.9476 108.828 58.3957 109.37 57.7315Z" fill="#FFB692"/>
<path d="M106.956 58.7995C107.08 58.8674 107.217 58.9353 107.37 58.9235C107.521 58.9147 107.663 58.8386 107.773 58.7367C107.884 58.6345 107.972 58.5105 108.044 58.3804C108.116 58.2489 108.175 58.1149 108.221 57.968L108.092 58.0196C108.205 58.0871 108.317 58.1281 108.438 58.1561C108.559 58.1826 108.687 58.1883 108.811 58.1677C108.935 58.1473 109.058 58.103 109.161 58.0327C109.269 57.9672 109.355 57.8775 109.436 57.7859L109.505 57.7129L109.412 57.657C109.048 57.4376 108.671 57.2392 108.293 57.0444C107.916 56.8472 107.536 56.6568 107.153 56.4704C107.509 56.7045 107.867 56.9343 108.229 57.1574C108.59 57.3832 108.953 57.605 109.328 57.8061L109.304 57.6774C109.233 57.7572 109.158 57.8349 109.069 57.8883C108.983 57.9472 108.885 57.9819 108.784 57.9988C108.683 58.0156 108.578 58.0115 108.475 57.9888C108.374 57.9666 108.269 57.9258 108.185 57.8761L108.085 57.8163L108.055 57.9277C107.995 58.1926 107.894 58.4699 107.713 58.6767C107.622 58.7789 107.504 58.8588 107.366 58.8812C107.227 58.9061 107.087 58.8553 106.956 58.7995Z" fill="#D88D87"/>
<path d="M109.898 58.3072C110.1 58.4112 110.351 58.3306 110.455 58.1281L111.159 56.5925C111.262 56.3898 111.182 56.139 110.98 56.0348C110.778 55.9306 110.527 56.0113 110.423 56.2138L109.719 57.7494C109.615 57.9519 109.696 58.203 109.898 58.3072Z" fill="#FFB692"/>
<path d="M110.162 56.7838C110.013 57.0395 109.873 57.2985 109.743 57.562L109.643 57.7643C109.611 57.843 109.598 57.9309 109.612 58.0158C109.636 58.1858 109.76 58.3398 109.924 58.3959C110.087 58.4552 110.279 58.4155 110.405 58.299C110.468 58.2448 110.515 58.1583 110.538 58.0945L110.623 57.8899C110.736 57.6173 110.846 57.3434 110.943 57.0636C110.794 57.3193 110.659 57.5806 110.526 57.843L110.427 58.04C110.395 58.1124 110.366 58.1563 110.316 58.1983C110.222 58.2772 110.086 58.3058 109.972 58.2611C109.857 58.2209 109.767 58.1163 109.748 57.9937C109.735 57.9332 109.742 57.87 109.762 57.811L109.846 57.6118C109.96 57.3395 110.065 57.0634 110.162 56.7838Z" fill="#D88D87"/>
<path d="M109.202 57.8591C109.404 57.9631 109.654 57.8826 109.758 57.6799L110.463 56.1443C110.566 55.9416 110.486 55.6907 110.284 55.5865C110.082 55.4823 109.831 55.5631 109.727 55.7656L109.023 57.301C108.919 57.5041 109 57.7551 109.202 57.8591Z" fill="#FFB692"/>
<path d="M109.466 56.3358C109.317 56.5915 109.177 56.8505 109.047 57.1138L108.947 57.3161C108.915 57.3948 108.902 57.4827 108.916 57.5675C108.94 57.7374 109.064 57.8914 109.228 57.9476C109.391 58.007 109.583 57.9672 109.709 57.8508C109.772 57.7965 109.819 57.7101 109.842 57.6462L109.927 57.4417C110.04 57.169 110.15 56.895 110.247 56.6154C110.098 56.8711 109.963 57.1323 109.83 57.3948L109.731 57.5918C109.699 57.6642 109.67 57.708 109.62 57.7498C109.526 57.829 109.39 57.8573 109.276 57.8129C109.161 57.7727 109.071 57.6681 109.052 57.5453C109.039 57.4849 109.046 57.4215 109.065 57.3626L109.149 57.1633C109.264 56.8917 109.369 56.6154 109.466 56.3358Z" fill="#D88D87"/>
<path d="M108.514 57.3728C108.716 57.4768 108.967 57.3962 109.071 57.1935L109.774 55.6579C109.878 55.4552 109.798 55.2044 109.596 55.1002C109.394 54.9962 109.143 55.0767 109.039 55.2792L108.335 56.8148C108.232 57.0175 108.312 57.2686 108.514 57.3728Z" fill="#FFB692"/>
<path d="M108.778 55.8494C108.629 56.1051 108.489 56.3641 108.359 56.6274L108.259 56.8297C108.227 56.9084 108.215 56.9963 108.228 57.0811C108.252 57.251 108.376 57.405 108.54 57.4613C108.703 57.5206 108.895 57.4809 109.021 57.3644C109.084 57.3102 109.131 57.2237 109.155 57.1597L109.239 56.9551C109.352 56.6825 109.462 56.4086 109.559 56.1288C109.41 56.3845 109.275 56.6458 109.142 56.9082L109.043 57.1052C109.011 57.1776 108.982 57.2215 108.933 57.2633C108.839 57.3422 108.702 57.3707 108.588 57.3263C108.473 57.2861 108.383 57.1815 108.364 57.0587C108.351 56.9984 108.358 56.9349 108.378 56.876L108.462 56.6767C108.576 56.4051 108.681 56.129 108.778 55.8494Z" fill="#D88D87"/>
<path d="M107.657 57.3C107.86 57.404 108.11 57.3234 108.214 57.1209L108.918 55.5853C109.022 55.3826 108.941 55.1318 108.739 55.0276C108.537 54.9236 108.287 55.0039 108.183 55.2066L107.479 56.7422C107.375 56.9449 107.455 57.196 107.657 57.3Z" fill="#FFB692"/>
<path d="M107.922 55.7766C107.773 56.0323 107.633 56.2913 107.502 56.5546L107.402 56.7569C107.371 56.8356 107.358 56.9235 107.371 57.0083C107.396 57.1784 107.519 57.3324 107.684 57.3885C107.847 57.4478 108.039 57.408 108.165 57.2914C108.228 57.2372 108.275 57.1507 108.298 57.0869L108.383 56.8823C108.496 56.6097 108.606 56.3358 108.702 56.056C108.554 56.3117 108.418 56.5729 108.286 56.8356L108.186 57.0326C108.155 57.105 108.125 57.1488 108.076 57.1909C107.982 57.2698 107.846 57.2983 107.732 57.2537C107.617 57.2135 107.527 57.1089 107.507 56.9861C107.495 56.9257 107.501 56.8623 107.521 56.8034L107.605 56.6042C107.719 56.3325 107.825 56.0562 107.922 55.7766Z" fill="#D88D87"/>
<path d="M94.0743 48.8209L96.2823 50.0979C96.2823 50.0979 95.1547 51.8958 94.3781 51.448C93.5248 50.9559 94.512 49.9945 94.512 49.9945C94.512 49.9945 93.777 49.625 94.0743 48.8209Z" fill="#FFB692"/>
<path d="M94.3781 51.448C94.2566 51.3747 94.1286 51.2903 94.0613 51.1523C93.9925 51.0175 93.986 50.8564 94.0181 50.7097C94.0497 50.5619 94.1119 50.4232 94.1874 50.2951C94.264 50.1662 94.3496 50.0478 94.4524 49.9329L94.4736 50.071C94.3582 50.0074 94.2666 49.9319 94.1805 49.8406C94.0965 49.7496 94.0271 49.6426 93.9817 49.5245C93.9365 49.407 93.9125 49.2789 93.9206 49.1537C93.9225 49.0275 93.9559 48.9076 93.9939 48.7913L94.0218 48.6947L94.117 48.7467C94.4903 48.9504 94.8517 49.1749 95.2107 49.4031C95.5713 49.6289 95.928 49.8614 96.2823 50.0979C95.9007 49.9089 95.5214 49.7154 95.1459 49.5155C94.7691 49.3181 94.3944 49.117 94.0316 48.8949L94.1545 48.8505C94.1219 48.952 94.0926 49.0556 94.0918 49.1599C94.0845 49.2639 94.1046 49.3666 94.1412 49.4623C94.1779 49.5581 94.2348 49.647 94.3063 49.7243C94.3765 49.8004 94.4652 49.8708 94.5503 49.9179L94.6527 49.9741L94.5717 50.0559C94.3743 50.2419 94.1868 50.4701 94.101 50.7315C94.059 50.8619 94.0501 51.0044 94.1003 51.1345C94.149 51.2677 94.2636 51.3627 94.3781 51.448Z" fill="#D88D87"/>
<path d="M93.3115 48.6559C93.1196 48.534 93.0621 48.2768 93.1838 48.0843L94.1484 46.6984C94.2701 46.5061 94.5269 46.4486 94.7188 46.5703C94.9109 46.6923 94.9683 46.9496 94.8466 47.1419L93.882 48.5281C93.7603 48.7204 93.5037 48.7781 93.3115 48.6559Z" fill="#FFB692"/>
<path d="M94.4886 47.6565C94.3439 47.9144 94.1919 48.1665 94.0315 48.4131L93.908 48.6017C93.8561 48.6688 93.7871 48.7245 93.7074 48.7559C93.5488 48.8211 93.3539 48.7922 93.2222 48.6786C93.0885 48.5676 93.0254 48.3819 93.062 48.214C93.0767 48.1318 93.1272 48.0474 93.1705 47.995L93.3036 47.8182C93.4811 47.5826 93.6612 47.3487 93.8527 47.1236C93.708 47.3816 93.5517 47.631 93.3929 47.8785L93.2737 48.0641C93.2275 48.1282 93.2045 48.1755 93.1935 48.2395C93.1732 48.3606 93.2177 48.493 93.3138 48.5689C93.4066 48.648 93.5421 48.6727 93.6575 48.6272C93.7159 48.6074 93.7672 48.5697 93.8077 48.5228L93.9367 48.3494C94.1127 48.1125 94.2971 47.8816 94.4886 47.6565Z" fill="#D88D87"/>
<path d="M94.0495 49.0306C93.8576 48.9086 93.8 48.6514 93.9217 48.4589L94.8863 47.0728C95.008 46.8805 95.2648 46.8228 95.4567 46.945C95.6486 47.0669 95.7062 47.3241 95.5845 47.5166L94.6199 48.9027C94.4982 49.095 94.2416 49.1525 94.0495 49.0306Z" fill="#FFB692"/>
<path d="M95.2265 48.0309C95.0818 48.2889 94.9298 48.5411 94.7694 48.7875L94.6457 48.9761C94.5938 49.0432 94.5248 49.0989 94.4451 49.1303C94.2865 49.1955 94.0916 49.1666 93.9599 49.053C93.8262 48.942 93.7633 48.7563 93.7997 48.5884C93.8144 48.5063 93.8649 48.4218 93.9082 48.3694L94.0413 48.1926C94.2188 47.9571 94.3989 47.7232 94.5906 47.498C94.4459 47.756 94.2896 48.0054 94.1309 48.253L94.0116 48.4385C93.9654 48.5026 93.9424 48.5499 93.9314 48.6141C93.9111 48.7353 93.9556 48.8676 94.0517 48.9435C94.1445 49.0224 94.28 49.0473 94.3956 49.0018C94.454 48.982 94.5053 48.9445 94.5458 48.8974L94.6748 48.7241C94.8506 48.4871 95.035 48.2562 95.2265 48.0309Z" fill="#D88D87"/>
<path d="M94.8165 49.3785C94.6246 49.2565 94.567 48.9991 94.6887 48.8068L95.6533 47.4209C95.775 47.2284 96.0316 47.1709 96.2237 47.2929C96.4156 47.4148 96.4732 47.672 96.3513 47.8645L95.3867 49.2504C95.2652 49.4429 95.0086 49.5004 94.8165 49.3785Z" fill="#FFB692"/>
<path d="M95.9935 48.379C95.8488 48.637 95.6968 48.8892 95.5365 49.1356L95.4127 49.3242C95.3608 49.3913 95.2918 49.447 95.2121 49.4784C95.0535 49.5434 94.8586 49.5147 94.7269 49.4011C94.5932 49.2902 94.5303 49.1044 94.5668 48.9365C94.5814 48.8544 94.6319 48.7699 94.6752 48.7175L94.8083 48.5407C94.9858 48.3052 95.1659 48.0713 95.3574 47.8461C95.2127 48.1041 95.0564 48.3535 94.8977 48.6011L94.7784 48.7867C94.7322 48.8507 94.7092 48.898 94.6982 48.962C94.6779 49.0832 94.7222 49.2155 94.8185 49.2914C94.9113 49.3703 95.0468 49.3952 95.1622 49.3497C95.2206 49.3299 95.2719 49.2924 95.3124 49.2453L95.4414 49.072C95.6177 48.835 95.802 48.6041 95.9935 48.379Z" fill="#D88D87"/>
<path d="M95.3128 50.0818C95.1209 49.9599 95.0633 49.7025 95.185 49.5102L96.1496 48.1243C96.2713 47.9318 96.528 47.8743 96.7201 47.9962C96.912 48.1182 96.9696 48.3753 96.8479 48.5678L95.8832 49.9538C95.7616 50.1463 95.5049 50.2038 95.3128 50.0818Z" fill="#FFB692"/>
<path d="M96.4899 49.0821C96.3452 49.3401 96.1932 49.5924 96.0328 49.8387L95.9091 50.0274C95.8572 50.0945 95.7882 50.1501 95.7084 50.1815C95.5499 50.2468 95.3549 50.218 95.2233 50.1045C95.0896 49.9935 95.0265 49.8077 95.0631 49.6399C95.0778 49.5577 95.1282 49.4733 95.1716 49.4209L95.3047 49.2441C95.4821 49.0085 95.6622 48.7748 95.8537 48.5495C95.709 48.8075 95.5527 49.0569 95.394 49.3044L95.2748 49.49C95.2286 49.554 95.2056 49.6014 95.1946 49.6654C95.1742 49.7865 95.2188 49.9189 95.3148 49.9947C95.4076 50.0739 95.5432 50.0985 95.6586 50.0531C95.717 50.0333 95.7682 49.9958 95.8087 49.9487L95.9378 49.7753C96.114 49.5383 96.2984 49.3075 96.4899 49.0821Z" fill="#D88D87"/>
</svg>
