<svg width="35" height="35" viewBox="0 0 35 35" fill="none" xmlns="http://www.w3.org/2000/svg">
<path d="M10.2082 16.0416L16.0415 2.91663C17.2018 2.91663 18.3146 3.37756 19.1351 4.19803C19.9556 5.01851 20.4165 6.1313 20.4165 7.29163V13.125H28.6707C29.0935 13.1202 29.5122 13.2074 29.898 13.3805C30.2837 13.5536 30.6272 13.8085 30.9046 14.1276C31.1821 14.4466 31.3868 14.8222 31.5047 15.2282C31.6226 15.6343 31.6508 16.0611 31.5873 16.4791L29.5748 29.6041C29.4694 30.2996 29.1161 30.9336 28.5801 31.3891C28.0441 31.8447 27.3616 32.0912 26.6582 32.0833H10.2082M10.2082 16.0416V32.0833M10.2082 16.0416H5.83317C5.05962 16.0416 4.31776 16.3489 3.77078 16.8959C3.22379 17.4429 2.9165 18.1847 2.9165 18.9583V29.1666C2.9165 29.9402 3.22379 30.682 3.77078 31.229C4.31776 31.776 5.05962 32.0833 5.83317 32.0833H10.2082" stroke="#1E1E1E" stroke-linecap="round" stroke-linejoin="round"/>
</svg>
