<svg width="117" height="89" viewBox="0 0 117 89" fill="none" xmlns="http://www.w3.org/2000/svg">
<path d="M21.7732 76.5072C10.0685 76.5072 0.545959 66.9844 0.545959 55.2795C0.545959 43.5744 10.0685 34.0522 21.7732 34.0522C33.4787 34.0522 43.0022 43.5744 43.0022 55.2795C43.0022 66.9843 33.4787 76.5072 21.7732 76.5072Z" fill="white"/>
<path d="M21.7732 34.5978C33.1966 34.5978 42.4562 43.8564 42.4562 55.2794C42.4562 66.7018 33.1966 75.9614 21.7732 75.9614C10.3515 75.9614 1.09184 66.7017 1.09184 55.2794C1.09184 43.8565 10.3515 34.5978 21.7732 34.5978ZM21.7732 33.5059C9.76726 33.5059 0 43.2735 0 55.2794C0 67.2858 9.76726 77.0533 21.7732 77.0533C33.7801 77.0533 43.5482 67.2857 43.5482 55.2794C43.5481 43.2735 33.7801 33.5059 21.7732 33.5059Z" fill="#4E2D17"/>
<path d="M21.7732 76.5071C16.7408 76.5071 11.8524 74.7017 8.00877 71.4227C7.85035 71.288 7.78263 71.0743 7.83353 70.8729C10.323 61.0886 16.6094 50.9655 16.6727 50.8646C16.7724 50.7049 16.9474 50.6081 17.1355 50.6081C17.3237 50.6081 17.4986 50.7049 17.5983 50.8646C17.9392 51.4092 25.958 64.3392 27.2776 75.2725C27.3108 75.5464 27.1343 75.8019 26.8664 75.8676C25.1429 76.2923 23.4294 76.5071 21.7732 76.5071Z" fill="#FFD600"/>
<path d="M17.1355 51.1537C17.1355 51.1537 25.4152 64.3998 26.7358 75.3377C25.1432 75.73 23.4872 75.9615 21.7732 75.9615C16.6528 75.9615 11.9756 74.0893 8.36288 71.0075C10.8597 61.1925 17.1355 51.1537 17.1355 51.1537ZM17.1355 50.0618C16.7591 50.0618 16.4093 50.2556 16.2099 50.5748C15.9498 50.9904 9.81481 60.8718 7.30468 70.7382C7.20216 71.1416 7.33788 71.5679 7.65427 71.8382C11.5971 75.201 16.6112 77.0532 21.7732 77.0532C23.4734 77.0532 25.2308 76.8328 26.9969 76.3979C27.5329 76.2658 27.8858 75.7548 27.8198 75.2066C27.2578 70.5525 25.443 64.9898 22.4255 58.6732C20.1897 53.9926 18.1473 50.712 18.0614 50.5747C17.8616 50.2555 17.5119 50.0618 17.1355 50.0618Z" fill="#4E2D17"/>
<path d="M41.6304 61.3404C30.6253 60.1659 17.4032 51.965 16.846 51.6166C16.6864 51.5167 16.5895 51.3417 16.5895 51.1536C16.5895 50.9653 16.6864 50.7905 16.846 50.6905C16.9526 50.6242 27.6246 43.996 37.656 41.6553C37.6973 41.6456 37.7389 41.6405 37.7802 41.6405C37.9416 41.6405 38.0974 41.7124 38.2025 41.8409C41.2975 45.6187 43.0021 50.3917 43.0021 55.2793C43.0021 57.1504 42.7369 59.0561 42.2142 60.9435C42.1482 61.1817 41.9312 61.3439 41.6887 61.3439C41.6694 61.3439 41.65 61.343 41.6304 61.3404Z" fill="#FFD600"/>
<path d="M37.7803 42.1867C40.7018 45.753 42.4563 50.3112 42.4563 55.2794C42.4563 57.1927 42.1753 59.0394 41.6882 60.7977C30.6817 59.6228 17.1354 51.1536 17.1354 51.1536C17.1354 51.1536 27.721 44.5342 37.7803 42.1867ZM37.7803 41.0949C37.6977 41.0949 37.6146 41.1041 37.5322 41.1234C27.4125 43.4851 16.9953 49.9537 16.5566 50.228C16.2374 50.4274 16.0436 50.7773 16.0436 51.1536C16.0436 51.53 16.2374 51.8799 16.5566 52.0792C16.6971 52.1675 20.0512 54.2563 24.8157 56.5212C31.2473 59.579 36.8851 61.3832 41.5725 61.8836C41.6113 61.8877 41.6505 61.8897 41.6893 61.8897C42.1745 61.8897 42.6082 61.5664 42.7404 61.0891C43.2763 59.1543 43.5481 57.1995 43.5481 55.2794C43.5481 50.2659 41.7994 45.3706 38.6248 41.4948C38.4148 41.2387 38.1032 41.0949 37.7803 41.0949Z" fill="#4E2D17"/>
<path d="M17.1354 51.6993C16.9473 51.6993 16.7723 51.6024 16.6726 51.4428C16.6349 51.3826 12.873 45.3348 10.0325 38.1303C9.9374 37.8886 10.0254 37.6133 10.2431 37.472C13.689 35.2348 17.676 34.0521 21.7732 34.0521C22.7518 34.0521 23.7569 34.1342 24.936 34.3111C25.0957 34.3351 25.2364 34.429 25.3207 34.5667C25.4049 34.7043 25.4235 34.8721 25.3723 35.0251C22.5143 43.5315 17.6469 51.3647 17.5984 51.4428C17.4985 51.6024 17.3236 51.6993 17.1354 51.6993Z" fill="#FFD600"/>
<path d="M21.7731 34.5978C22.8237 34.5978 23.8462 34.6998 24.8549 34.8513C21.9842 43.3954 17.1354 51.1537 17.1354 51.1537C17.1354 51.1537 13.3952 45.1711 10.5404 37.93C13.7777 35.8278 17.629 34.5978 21.7731 34.5978ZM21.7731 33.5059C17.5702 33.5059 13.4804 34.7191 9.94573 37.014C9.51026 37.297 9.33431 37.8473 9.5245 38.3302C12.3834 45.5816 16.0548 51.4846 16.2098 51.7325C16.4092 52.0517 16.759 52.2454 17.1354 52.2454C17.5118 52.2454 17.8616 52.0517 18.0613 51.7325C18.2619 51.4112 23.0114 43.7666 25.8899 35.199C25.9927 34.893 25.9549 34.5569 25.7863 34.2816C25.6178 34.0061 25.3362 33.8195 25.017 33.7716C23.8104 33.59 22.7798 33.5059 21.7731 33.5059Z" fill="#4E2D17"/>
<path d="M1.39563 59.229C1.29871 59.229 1.20188 59.2036 1.11688 59.1526C0.978491 59.0704 0.883531 58.9318 0.85701 58.7732C0.647685 57.5146 0.545959 56.3717 0.545959 55.2794C0.545959 51.4382 1.60442 47.6552 3.60663 44.3393C3.70782 44.1715 3.8876 44.0751 4.07405 44.0751C4.1416 44.0751 4.20968 44.0879 4.27545 44.1138C11.4085 46.9458 17.3657 50.6537 17.4249 50.6905C17.5846 50.7904 17.6814 50.9653 17.6814 51.1536C17.6814 51.3417 17.5845 51.5167 17.4249 51.6166C17.3502 51.6631 9.85541 56.3242 1.5747 59.199C1.5164 59.2194 1.45579 59.229 1.39563 59.229Z" fill="#FFD600"/>
<path d="M4.07392 44.6214C11.2434 47.4676 17.1354 51.1536 17.1354 51.1536C17.1354 51.1536 9.71368 55.7953 1.3955 58.6834C1.21092 57.5736 1.09174 56.442 1.09174 55.2793C1.09183 51.3755 2.1931 47.7363 4.07392 44.6214ZM4.07445 43.5295C3.7011 43.5295 3.34208 43.7213 3.13916 44.0569C1.08543 47.4584 0 51.3388 0 55.2794C0 56.4024 0.104305 57.5743 0.318525 58.8625C0.371568 59.1802 0.56149 59.4582 0.838188 59.6224C1.0088 59.7233 1.20157 59.7754 1.39559 59.7754C1.51618 59.7754 1.63731 59.7555 1.75354 59.7152C10.0922 56.8195 17.4073 52.2716 17.7143 52.0793C18.0335 51.8799 18.2273 51.5301 18.2273 51.1537C18.2273 50.7773 18.0335 50.4275 17.7146 50.228C17.4705 50.0756 11.6558 46.4568 4.4769 43.6065C4.34527 43.5545 4.20884 43.5295 4.07445 43.5295Z" fill="#4E2D17"/>
<path d="M16.8938 53.4899C16.7212 53.4899 16.5511 53.4629 16.3886 53.4088C15.9707 53.2707 15.6211 52.9585 15.4056 52.5301C15.1191 51.9594 15.0861 51.2378 15.3143 50.5504C15.6516 49.5315 16.5003 48.819 17.3777 48.819C17.5508 48.819 17.7208 48.846 17.8833 48.9001C18.2997 49.0368 18.6483 49.3474 18.8638 49.7743C19.1511 50.3444 19.1853 51.067 18.957 51.7565C18.62 52.777 17.7717 53.4899 16.8938 53.4899Z" fill="#808285"/>
<path d="M17.3782 49.3647C17.4904 49.3647 17.6022 49.382 17.7113 49.4182C18.43 49.6544 18.7562 50.6254 18.439 51.5851C18.1698 52.4001 17.5231 52.9442 16.8938 52.9442C16.7817 52.9442 16.6699 52.9268 16.5608 52.8906C15.8407 52.653 15.5143 51.6805 15.8328 50.7228C16.1017 49.9088 16.7484 49.3647 17.3782 49.3647ZM17.3782 48.2728C16.2502 48.2728 15.2129 49.1198 14.7962 50.3801C14.5226 51.2027 14.5668 52.0763 14.9181 52.7754C15.1988 53.3344 15.6607 53.7433 16.2186 53.9275C16.4345 53.9994 16.6625 54.036 16.8937 54.036C18.0213 54.036 19.0591 53.1885 19.4758 51.9278C19.7485 51.1017 19.7032 50.2271 19.3511 49.5284C19.0701 48.9716 18.6088 48.564 18.0519 48.381C17.8372 48.3096 17.6092 48.2728 17.3782 48.2728Z" fill="#4E2D17"/>
<path d="M36.7196 41.0092C37.4218 43.0873 37.8175 45.3042 37.8175 47.619C37.8175 59.0424 28.5579 68.3026 17.1355 68.3026C11.2534 68.3026 5.95687 65.8333 2.19089 61.8917C4.95012 70.0676 12.6653 75.9614 21.7732 75.9614C33.1966 75.9614 42.4562 66.7017 42.4562 55.2794C42.4562 49.7405 40.2664 44.7219 36.7196 41.0092Z" fill="#BCBEC0"/>
<path d="M82.5527 57.021C82.5312 57.021 82.5088 57.0195 82.4866 57.0159L63.9516 54.084C63.7234 54.0478 63.5674 53.8336 63.6035 53.6051L69.7957 14.4578C69.8283 14.2512 70.0063 14.1044 70.2087 14.1044C70.2301 14.1044 70.2526 14.1059 70.2748 14.1094L88.8109 17.0412C88.9203 17.0586 89.0187 17.1188 89.0839 17.2085C89.1492 17.2983 89.1762 17.4104 89.159 17.5201L82.9658 56.6673C82.9331 56.8741 82.755 57.021 82.5527 57.021Z" fill="#F8F2E4"/>
<path d="M70.2091 14.5231L88.7453 17.4549L82.5521 56.6023L64.0171 53.6704L70.2091 14.5231ZM70.2081 13.6857C69.8031 13.6857 69.4472 13.9799 69.3819 14.3925L63.1897 53.5393C63.1176 53.9962 63.4294 54.4251 63.8861 54.4976L82.4212 57.4294C82.4653 57.4366 82.5097 57.4397 82.553 57.4397C82.958 57.4397 83.314 57.1454 83.3792 56.7333L89.5723 17.586C89.607 17.3662 89.5529 17.1424 89.4224 16.9629C89.2918 16.7828 89.0955 16.6625 88.876 16.6278L70.3399 13.696C70.2958 13.6888 70.2515 13.6857 70.2081 13.6857Z" fill="#4E2D17"/>
<path d="M82.5521 57.021C82.5308 57.021 82.5085 57.0195 82.4866 57.0159L63.9516 54.084C63.8419 54.0667 63.7438 54.0065 63.6785 53.9168C63.6133 53.8265 63.5862 53.7148 63.6035 53.6052L64.498 47.9578C64.5307 47.7512 64.7086 47.6044 64.9111 47.6044C64.9328 47.6044 64.955 47.6059 64.9769 47.6094L83.5107 50.5418C83.7389 50.578 83.895 50.7921 83.8587 51.0207L82.9658 56.6677C82.9485 56.7773 82.8883 56.8757 82.798 56.941C82.7266 56.9934 82.6399 57.021 82.5521 57.021Z" fill="#399FD9"/>
<path d="M64.9116 48.0229L83.4451 50.9553L82.5521 56.6022L64.0171 53.6704L64.9116 48.0229ZM64.9106 47.1855C64.5056 47.1855 64.1497 47.4798 64.0844 47.8919L63.1899 53.5393C63.1552 53.7586 63.2093 53.983 63.3399 54.1625C63.4704 54.3426 63.6668 54.4629 63.8862 54.4976L82.4213 57.4295C82.4649 57.4361 82.5088 57.4397 82.5521 57.4397C82.7281 57.4397 82.9004 57.3846 83.0445 57.2795C83.2243 57.149 83.3446 56.9526 83.3794 56.7329L84.2723 51.0865C84.3445 50.6295 84.0326 50.2006 83.5757 50.1282L65.0423 47.1959C64.9983 47.1887 64.9539 47.1855 64.9106 47.1855Z" fill="#4E2D17"/>
<path d="M83.8092 49.0791C83.7875 49.0791 83.7653 49.0776 83.7434 49.074L65.2083 46.1426C64.9801 46.1064 64.8243 45.8927 64.86 45.6643L64.9431 45.1323C64.9602 45.0227 65.0204 44.9243 65.1101 44.8585C65.1823 44.806 65.2687 44.7784 65.3567 44.7784C65.3783 44.7784 65.4003 44.7799 65.4222 44.7835L83.959 47.7159C84.0687 47.7332 84.1674 47.7934 84.2327 47.8836C84.298 47.9739 84.3247 48.0861 84.3069 48.1958L84.222 48.7266C84.1892 48.9327 84.0111 49.0791 83.8092 49.0791Z" fill="#399FD9"/>
<path d="M65.3568 45.1971L83.8939 48.1295L83.8088 48.6604L65.2737 45.7291L65.3568 45.1971ZM65.3568 44.3597C65.1809 44.3597 65.008 44.4154 64.8636 44.5204C64.6841 44.6509 64.5638 44.8483 64.5296 45.0676L64.4465 45.6C64.3751 46.056 64.6867 46.4838 65.1429 46.5562L83.6779 49.4875C83.722 49.4946 83.7664 49.4977 83.8097 49.4977C84.2139 49.4977 84.5696 49.2045 84.6354 48.7929L84.7206 48.2621C84.756 48.0428 84.7022 47.8179 84.5717 47.6378C84.4411 47.4578 84.2442 47.3369 84.0247 47.3022L65.4876 44.3698C65.444 44.3633 65.4004 44.3597 65.3568 44.3597Z" fill="#4E2D17"/>
<path d="M68.0778 35.5092L67.9766 36.1471L70.9752 36.6219L71.0757 35.9839L68.0778 35.5092Z" fill="#4E2D17"/>
<path d="M67.9382 36.3888L67.7424 37.6296L70.7413 38.1024L70.936 36.8626L67.9382 36.3888Z" fill="#4E2D17"/>
<path d="M68.3432 33.8385L68.1949 34.7692L71.195 35.2434L71.3399 34.3122L68.3432 33.8385Z" fill="#4E2D17"/>
<path d="M68.1575 35.0098L68.1159 35.2684L71.1139 35.7432L71.1551 35.4841L68.1575 35.0098Z" fill="#4E2D17"/>
<path d="M67.4692 39.3528L67.3996 39.8006L70.3974 40.2743L70.4681 39.8261L67.4692 39.3528Z" fill="#4E2D17"/>
<path d="M67.7043 37.8708L67.664 38.1289L70.6616 38.6027L70.7021 38.3441L67.7043 37.8708Z" fill="#4E2D17"/>
<path d="M67.6256 38.3701L67.5086 39.1111L70.5075 39.5854L70.6233 38.8444L67.6256 38.3701Z" fill="#4E2D17"/>
<path d="M67.3586 40.0378L67.2877 40.4856L70.2853 40.9603L70.3562 40.5125L67.3586 40.0378Z" fill="#4E2D17"/>
<path d="M67.2523 40.7313L67.0688 41.8848L70.0677 42.3587L70.25 41.2056L67.2523 40.7313Z" fill="#4E2D17"/>
<path d="M68.5298 32.6487L68.3804 33.5972L71.3791 34.0711L71.5288 33.1235L68.5298 32.6487Z" fill="#4E2D17"/>
<path d="M68.9236 30.1682L68.8867 30.3915L71.8856 30.8658L71.9213 30.642L68.9236 30.1682Z" fill="#4E2D17"/>
<path d="M68.9607 29.9265L71.9584 30.4012L72.1757 29.039L69.1754 28.5653L68.9607 29.9265Z" fill="#4E2D17"/>
<path d="M68.8496 30.6337L68.817 30.8403L71.8147 31.3146L71.8482 31.1076L68.8496 30.6337Z" fill="#4E2D17"/>
<path d="M68.6099 32.1495L68.5681 32.4069L71.567 32.8823L71.6076 32.6238L68.6099 32.1495Z" fill="#4E2D17"/>
<path d="M68.7788 31.0811L68.6459 31.9082L71.6459 32.3825L71.7764 31.5553L68.7788 31.0811Z" fill="#4E2D17"/>
<path d="M69.9842 15.9379L87.1763 18.6565L81.2078 56.3891L82.5521 56.6024L88.7453 17.455L70.2091 14.5231L69.9842 15.9379Z" fill="#D6D2C7"/>
<path d="M84.8332 24.0785L84.8781 23.7853L83.7816 21.8576C83.8276 21.5011 83.85 21.1915 83.8344 20.9707C83.8186 20.7601 83.6883 20.3159 83.5554 20.296C83.4235 20.2741 83.1629 20.6546 83.0829 20.8529C82.9998 21.0574 82.9266 21.3583 82.8601 21.7117L81.2226 23.207L81.1751 23.5012L82.6859 22.9076C82.5801 23.8189 82.5128 24.7649 82.4822 25.2774L81.9064 25.8032L81.8873 25.9256L82.5218 25.6762L82.5307 25.6778L82.5712 26.0337L82.7229 26.0572L82.8693 25.7308L82.8795 25.7333L83.4058 26.1663L83.4262 26.0439L83.0414 25.3661C83.1687 24.8684 83.3976 23.9489 83.5779 23.0493L84.8332 24.0785Z" fill="#4E2D17"/>
<path d="M73.3149 42.8728L77.101 18.9355" stroke="#4E2D17" stroke-width="4.7045" stroke-miterlimit="10" stroke-linecap="square"/>
<path d="M75.179 43.1675L78.965 19.2307" stroke="#4E2D17" stroke-width="4.7045" stroke-miterlimit="10" stroke-linecap="square"/>
<path d="M77.0416 43.4627L80.8279 19.5255" stroke="#4E2D17" stroke-width="4.7045" stroke-miterlimit="10" stroke-linecap="square"/>
<path d="M78.9166 43.6903L81.3552 28.2629" stroke="#4E2D17" stroke-width="4.7045" stroke-miterlimit="10" stroke-linecap="square"/>
<path d="M80.7794 43.9839L83.2191 28.5577" stroke="#4E2D17" stroke-width="4.7045" stroke-miterlimit="10" stroke-linecap="square"/>
<path d="M67.9275 53.2697C67.8296 53.2697 67.7304 53.262 67.6304 53.2462C67.1349 53.1677 66.7002 52.9005 66.4057 52.4946C66.1117 52.0891 65.9936 51.5939 66.0727 51.0998C66.2165 50.1839 66.9948 49.5178 67.9224 49.5178C68.0199 49.5178 68.1182 49.5255 68.2174 49.5412C69.2397 49.7034 69.9398 50.6657 69.7782 51.6873C69.6329 52.6041 68.8547 53.2697 67.9275 53.2697Z" fill="#F8F2E4"/>
<path d="M67.9224 49.9364C67.998 49.9364 68.0749 49.9426 68.1519 49.9548C68.9472 50.0807 69.4907 50.8263 69.3647 51.6219C69.251 52.3389 68.6318 52.851 67.9276 52.851C67.8516 52.851 67.7743 52.8448 67.6965 52.8326C66.9025 52.7067 66.3589 51.9611 66.4861 51.1661C66.599 50.4485 67.2186 49.9364 67.9224 49.9364ZM67.9224 49.0991C66.7872 49.0996 65.8354 49.9135 65.6589 51.0359C65.5622 51.6382 65.7071 52.2441 66.0666 52.7403C66.4267 53.237 66.9591 53.5633 67.5654 53.6597C67.6845 53.6786 67.8066 53.6883 67.9275 53.6883C69.0617 53.6883 70.0138 52.8744 70.1918 51.7529C70.3897 50.5035 69.5335 49.326 68.2829 49.1275C68.1639 49.1088 68.0425 49.0991 67.9224 49.0991Z" fill="#4E2D17"/>
<path d="M88.6622 69.0105C88.5929 69.0105 88.5238 68.9931 88.4618 68.9595L71.9875 59.9711C71.784 59.8605 71.7095 59.606 71.8205 59.403L90.8021 24.6104C90.8551 24.513 90.9449 24.4406 91.0514 24.4089C91.0902 24.3977 91.13 24.3921 91.1697 24.3921C91.2389 24.3921 91.3079 24.4094 91.3697 24.4431L107.843 33.4314C108.046 33.542 108.121 33.7966 108.01 33.9995L89.0296 68.7921C88.9765 68.8896 88.8865 68.962 88.7802 68.9936C88.7412 69.0049 88.7017 69.0105 88.6622 69.0105Z" fill="#F8F2E4"/>
<path d="M91.1697 24.811L107.642 33.7993L88.6621 68.5919L72.1878 59.6036L91.1697 24.811ZM91.1697 23.9736C91.0901 23.9736 91.0106 23.9848 90.933 24.0077C90.7201 24.07 90.5406 24.2148 90.4343 24.4101L71.4524 59.2027C71.2311 59.6087 71.3808 60.1171 71.7864 60.3385L88.2609 69.3273C88.3851 69.3946 88.5233 69.4293 88.662 69.4293C88.7411 69.4293 88.8206 69.4181 88.8982 69.3952C89.1113 69.3324 89.2908 69.1881 89.3972 68.9928L108.377 34.2002C108.599 33.7943 108.449 33.2859 108.043 33.0645L91.5704 24.0762C91.4464 24.0082 91.3085 23.9736 91.1697 23.9736Z" fill="#4E2D17"/>
<path d="M88.6623 69.0105C88.5929 69.0105 88.5239 68.9931 88.4618 68.9595L71.9875 59.9716C71.8899 59.9181 71.8175 59.8283 71.7864 59.7222C71.755 59.6156 71.7673 59.5009 71.8206 59.4034L74.5594 54.3853C74.6357 54.2461 74.7792 54.167 74.9273 54.167C74.9949 54.167 75.064 54.1833 75.1275 54.218L91.6007 63.2048C91.8037 63.3154 91.8787 63.57 91.7678 63.7729L89.0297 68.7921C88.9767 68.8895 88.8867 68.9619 88.7803 68.9936C88.7413 69.005 88.7018 69.0105 88.6623 69.0105Z" fill="#399FD9"/>
<path d="M74.9269 54.5859L91.4002 63.5727L88.6621 68.5919L72.1878 59.6041L74.9269 54.5859ZM74.9277 53.7485C74.6311 53.7485 74.344 53.9061 74.192 54.1845L71.4529 59.2027C71.3463 59.398 71.3218 59.627 71.3843 59.8402C71.447 60.0533 71.5916 60.2328 71.7865 60.3394L88.2609 69.3273C88.3851 69.3945 88.5233 69.4292 88.6621 69.4292C88.7411 69.4292 88.8207 69.418 88.8982 69.3951C89.1113 69.3323 89.2908 69.1881 89.3972 68.9927L92.1352 63.9735C92.3568 63.5676 92.2069 63.0592 91.8011 62.8373L75.3279 53.8505C75.2007 53.7811 75.0631 53.7485 74.9277 53.7485Z" fill="#4E2D17"/>
<path d="M92.5134 61.953C92.4441 61.953 92.3749 61.9356 92.313 61.902L75.84 52.9142C75.6375 52.8036 75.5625 52.5505 75.672 52.3476L75.9272 51.8749C75.9803 51.777 76.07 51.7041 76.1766 51.6724C76.2156 51.6607 76.2556 51.655 76.2957 51.655C76.365 51.655 76.4342 51.6724 76.4961 51.706L92.9714 60.6938C93.1744 60.8045 93.2493 61.059 93.1387 61.262L92.8811 61.7348C92.8281 61.8321 92.7384 61.9046 92.6318 61.9362C92.5929 61.9474 92.5532 61.953 92.5134 61.953Z" fill="#399FD9"/>
<path d="M76.2957 52.0738L92.7711 61.0616L92.5135 61.5343L76.0406 52.5465L76.2957 52.0738ZM76.2957 51.2364C76.2156 51.2364 76.1356 51.2476 76.0576 51.2711C75.8444 51.3343 75.6647 51.4802 75.5588 51.676L75.3033 52.1487C75.0846 52.5542 75.2348 53.0605 75.6394 53.2814L92.1123 62.2692C92.2365 62.337 92.3747 62.3717 92.5135 62.3717C92.5928 62.3717 92.6726 62.3605 92.7501 62.3376C92.9627 62.2748 93.1426 62.13 93.2489 61.9347L93.5064 61.4624C93.7275 61.0565 93.5778 60.5481 93.1719 60.3262L76.6966 51.3384C76.5727 51.2711 76.4345 51.2364 76.2957 51.2364Z" fill="#4E2D17"/>
<path d="M82.1122 43.863L81.804 44.4292L84.4675 45.883L84.7781 45.3155L82.1122 43.863Z" fill="#4E2D17"/>
<path d="M81.6871 44.6439L81.0842 45.7465L83.75 47.2004L84.3519 46.0973L81.6871 44.6439Z" fill="#4E2D17"/>
<path d="M82.9223 42.3775L82.472 43.2037L85.1369 44.6582L85.5879 43.8315L82.9223 42.3775Z" fill="#4E2D17"/>
<path d="M82.35 43.4192L82.2242 43.6495L84.888 45.1051L85.0138 44.8748L82.35 43.4192Z" fill="#4E2D17"/>
<path d="M80.2495 47.2773L80.0323 47.6757L82.6972 49.1291L82.9142 48.7319L80.2495 47.2773Z" fill="#4E2D17"/>
<path d="M80.9671 45.9611L80.8422 46.1906L83.5083 47.6441L83.6321 47.4146L80.9671 45.9611Z" fill="#4E2D17"/>
<path d="M80.732 46.409L80.3719 47.0678L83.0356 48.5237L83.3957 47.8648L80.732 46.409Z" fill="#4E2D17"/>
<path d="M82.3618 49.7431L82.5801 49.3448L79.9145 47.8903L79.6972 48.2891L82.3618 49.7431Z" fill="#4E2D17"/>
<path d="M79.5815 48.5029L79.0223 49.5285L81.6872 50.9824L82.2451 49.9574L79.5815 48.5029Z" fill="#4E2D17"/>
<path d="M83.4969 41.3233L83.0368 42.1647L85.7012 43.6213L86.1612 42.78L83.4969 41.3233Z" fill="#4E2D17"/>
<path d="M84.7036 39.1147L84.5945 39.3141L87.2594 40.7681L87.3685 40.5686L84.7036 39.1147Z" fill="#4E2D17"/>
<path d="M84.8209 38.9L87.4833 40.3545L88.145 39.1443L85.4798 37.6903L84.8209 38.9Z" fill="#4E2D17"/>
<path d="M84.4767 39.5283L84.3763 39.7125L87.0424 41.1659L87.1413 40.9822L84.4767 39.5283Z" fill="#4E2D17"/>
<path d="M83.7418 40.8757L83.6159 41.1052L86.282 42.5596L86.407 42.3296L83.7418 40.8757Z" fill="#4E2D17"/>
<path d="M84.2606 39.9277L83.8592 40.6616L86.5238 42.1154L86.9232 41.3796L84.2606 39.9277Z" fill="#4E2D17"/>
<path d="M90.4822 26.0685L105.763 34.4045L87.4678 67.9401L88.6622 68.5918L107.642 33.7993L91.1696 24.8109L90.4822 26.0685Z" fill="#D6D2C7"/>
<path d="M101.733 38.7241L101.875 38.4624L101.49 36.2777C101.653 35.9579 101.779 35.6744 101.837 35.4607C101.893 35.2562 101.918 34.7952 101.802 34.731C101.684 34.6667 101.311 34.9385 101.169 35.0976C101.022 35.2614 100.851 35.5209 100.671 35.8315L98.6248 36.6893L98.4833 36.9504L100.104 36.9009C99.6991 37.723 99.3188 38.5915 99.1177 39.0648L98.3986 39.3651L98.339 39.4742L99.0198 39.4518L99.0287 39.4569L98.9463 39.8047L99.0815 39.8786L99.3288 39.6206L99.338 39.6256L99.6889 40.21L99.7486 40.1014L99.6134 39.3349C99.9015 38.9086 100.426 38.1186 100.897 37.3322L101.733 38.7241Z" fill="#4E2D17"/>
<path d="M84.5721 52.5567L96.1782 31.2825" stroke="#4E2D17" stroke-width="4.7045" stroke-miterlimit="10" stroke-linecap="square"/>
<path d="M86.228 53.4614L97.8351 32.1857" stroke="#4E2D17" stroke-width="4.7045" stroke-miterlimit="10" stroke-linecap="square"/>
<path d="M87.8859 54.3645L99.492 33.0898" stroke="#4E2D17" stroke-width="4.7045" stroke-miterlimit="10" stroke-linecap="square"/>
<path d="M89.5745 55.2086L97.0532 41.4984" stroke="#4E2D17" stroke-width="4.7045" stroke-miterlimit="10" stroke-linecap="square"/>
<path d="M91.2288 56.1112L98.7091 42.401" stroke="#4E2D17" stroke-width="4.7045" stroke-miterlimit="10" stroke-linecap="square"/>
<path d="M76.6308 60.6489C76.3195 60.6489 76.01 60.5699 75.7353 60.4204C74.8275 59.9242 74.492 58.7824 74.9866 57.8752C75.3148 57.2718 75.9456 56.897 76.6331 56.897C76.945 56.897 77.2556 56.9765 77.5307 57.1275C77.97 57.3662 78.2907 57.7629 78.4325 58.2438C78.5743 58.7247 78.5197 59.2316 78.2795 59.6712C77.9511 60.2746 77.3193 60.6489 76.6308 60.6489Z" fill="#F8F2E4"/>
<path d="M76.6328 57.3158C76.8689 57.3158 77.1082 57.3734 77.3295 57.4948C78.0369 57.8792 78.298 58.7646 77.9124 59.4709C77.6482 59.9558 77.1474 60.2302 76.6308 60.2302C76.3952 60.2302 76.1568 60.1732 75.9357 60.0528C75.2283 59.6662 74.9698 58.7809 75.3543 58.0756C75.618 57.5906 76.1177 57.3158 76.6328 57.3158ZM76.6328 56.4784C75.7924 56.4784 75.0202 56.9368 74.6187 57.6753C74.0141 58.7851 74.4241 60.1814 75.534 60.7877C75.8706 60.9713 76.2498 61.0677 76.6308 61.0677C77.4727 61.0677 78.2454 60.6097 78.6477 59.8717C78.941 59.3337 79.0073 58.7136 78.8339 58.1256C78.6605 57.537 78.2683 57.0521 77.7293 56.7588C77.3952 56.5758 77.0153 56.4784 76.6328 56.4784Z" fill="#4E2D17"/>
<path d="M42.7803 87.6399C41.5158 87.6399 40.4872 86.6863 40.4872 85.5144V82.656C40.4872 81.4831 41.5157 80.5289 42.7803 80.5289C44.0453 80.5289 45.0744 81.4831 45.0744 82.656V85.5144C45.0744 86.6863 44.0453 87.6399 42.7803 87.6399Z" fill="#808285"/>
<path d="M42.7803 80.9781C43.7996 80.9781 44.6252 81.7293 44.6252 82.6559V85.5143C44.6252 86.4404 43.7996 87.1906 42.7803 87.1906C41.7622 87.1906 40.9366 86.4404 40.9366 85.5143V82.6559C40.9366 81.7293 41.7622 80.9781 42.7803 80.9781ZM42.7803 80.0795C41.268 80.0795 40.038 81.235 40.038 82.6559V85.5143C40.038 86.9341 41.2681 88.0892 42.7803 88.0892C44.2932 88.0892 45.5237 86.9341 45.5237 85.5143V82.6559C45.5237 81.2351 44.2931 80.0795 42.7803 80.0795Z" fill="#4E2D17"/>
<path d="M42.7803 80.9781C42.7699 80.9781 42.7576 80.9792 42.7476 80.9792V87.1886C42.7576 87.1886 42.7698 87.1907 42.7803 87.1907C43.7995 87.1907 44.6251 86.4405 44.6251 85.5144V82.656C44.625 81.7293 43.7995 80.9781 42.7803 80.9781Z" fill="#B9BBBB"/>
<path d="M63.882 87.6399C62.6171 87.6399 61.5879 86.6863 61.5879 85.5144V82.656C61.5879 81.4831 62.617 80.5289 63.882 80.5289C65.1471 80.5289 66.1762 81.4831 66.1762 82.656V85.5144C66.1762 86.6863 65.1471 87.6399 63.882 87.6399Z" fill="#808285"/>
<path d="M63.8821 80.9781C64.9 80.9781 65.727 81.7293 65.727 82.6559V85.5143C65.727 86.4404 64.9001 87.1906 63.8821 87.1906C62.8643 87.1906 62.0373 86.4404 62.0373 85.5143V82.6559C62.0373 81.7293 62.8642 80.9781 63.8821 80.9781ZM63.8821 80.0795C62.3693 80.0795 61.1388 81.235 61.1388 82.6559V85.5143C61.1388 86.9341 62.3693 88.0892 63.8821 88.0892C65.395 88.0892 66.6255 86.9341 66.6255 85.5143V82.6559C66.6255 81.2351 65.3949 80.0795 63.8821 80.0795Z" fill="#4E2D17"/>
<path d="M63.8821 80.9781C63.8709 80.9781 63.8597 80.9792 63.8492 80.9792V87.1886C63.8597 87.1886 63.8709 87.1907 63.8821 87.1907C64.9 87.1907 65.727 86.4405 65.727 85.5144V82.656C65.7269 81.7293 64.9 80.9781 63.8821 80.9781Z" fill="#B9BBBB"/>
<path d="M46.9876 2.0058H44.9161V31.7231H46.9876V2.0058Z" fill="#BCBEC0"/>
<path d="M46.5993 2.39443V31.3345H45.3045V2.39443H46.5993ZM47.376 1.61774H46.5993H45.3045H44.5278V2.39443V31.3345V32.1112H45.3045H46.5993H47.376V31.3345V2.39443V1.61774Z" fill="#4E2D17"/>
<path d="M46.5992 2.39441H45.9521V31.3345H46.5992V2.39441Z" fill="#939598"/>
<path d="M61.3568 2.0058H59.2853V31.7231H61.3568V2.0058Z" fill="#BCBEC0"/>
<path d="M60.9688 2.39443V31.3345H59.6739V2.39443H60.9688ZM61.7454 1.61774H60.9688H59.6739H58.8972V2.39443V31.3345V32.1112H59.6739H60.9688H61.7454V31.3345V2.39443V1.61774Z" fill="#4E2D17"/>
<path d="M60.9687 2.39441H60.3218V31.3345H60.9687V2.39441Z" fill="#939598"/>
<path d="M40.8085 83.4367C37.8621 83.4367 35.4652 81.0398 35.4652 78.0942V35.2776C35.4652 32.486 37.7216 27.1221 40.8085 27.1221H65.4658C68.5522 27.1221 70.8078 32.486 70.8078 35.2776V78.0942C70.8078 81.0398 68.4114 83.4366 65.4658 83.4366L40.8085 83.4367Z" fill="#BE3C56"/>
<path d="M65.4659 27.5107C68.1902 27.5107 70.4198 32.5533 70.4198 35.2776V78.0941C70.4198 80.8189 68.1902 83.0481 65.4659 83.0481H40.8085C38.0843 83.0481 35.8536 80.8189 35.8536 78.0941V35.2776C35.8536 32.5534 38.0842 27.5107 40.8085 27.5107H65.4659ZM65.4659 26.734H40.8085C39.2939 26.734 37.8109 27.8912 36.6321 29.9928C35.6873 31.6767 35.0769 33.7513 35.0769 35.2776V78.0941C35.0769 81.2539 37.6482 83.8247 40.8085 83.8247H65.4659C68.6257 83.8247 71.1965 81.2539 71.1965 78.0941V35.2776C71.1965 32.2764 68.8332 26.734 65.4659 26.734Z" fill="#4E2D17"/>
<path d="M40.8085 83.4368C37.8621 83.4368 35.4652 81.0399 35.4652 78.0943V35.4475C35.4652 32.5014 37.8621 30.1046 40.8085 30.1046H65.4658C68.4115 30.1046 70.8078 32.5014 70.8078 35.4475V78.0942C70.8078 81.0399 68.4114 83.4367 65.4658 83.4367L40.8085 83.4368Z" fill="#F04E6C"/>
<path d="M65.4659 30.4931C68.1902 30.4931 70.4198 32.7232 70.4198 35.4474V78.0941C70.4198 80.8189 68.1902 83.0481 65.4659 83.0481H40.8085C38.0843 83.0481 35.8536 80.8189 35.8536 78.0941V35.4474C35.8536 32.7232 38.0842 30.4931 40.8085 30.4931H65.4659ZM65.4659 29.7164H40.8085C37.6483 29.7164 35.0769 32.2871 35.0769 35.4474V78.0941C35.0769 81.254 37.6482 83.8248 40.8085 83.8248H65.4659C68.6257 83.8248 71.1965 81.254 71.1965 78.0941V35.4474C71.1965 32.2871 68.6257 29.7164 65.4659 29.7164Z" fill="#4E2D17"/>
<path d="M67.513 30.9408C67.718 31.4824 67.8302 32.0664 67.8302 32.6772V75.323C67.8302 78.0483 65.601 80.2768 62.8753 80.2768H38.2191C37.4892 80.2768 36.7951 80.1167 36.1708 79.8291C36.8782 81.7048 38.6937 83.0481 40.8086 83.0481H65.4659C68.1903 83.0481 70.4199 80.8189 70.4199 78.0941V35.4474C70.4199 33.4519 69.2239 31.7242 67.513 30.9408Z" fill="#D2435F"/>
<path d="M42.9095 4.79071C42.6948 4.79071 42.5211 4.61681 42.5211 4.40215V0.776694C42.5211 0.562029 42.6947 0.388123 42.9095 0.388123H63.3646C63.5788 0.388123 63.7532 0.562029 63.7532 0.776694V4.40215C63.7532 4.61681 63.5788 4.79071 63.3646 4.79071H42.9095Z" fill="#F04E6C"/>
<path d="M63.3648 0.776694V4.40215H42.9097V0.776694H63.3648ZM63.3648 0H42.9097C42.4808 0 42.133 0.347809 42.133 0.776694V4.40215C42.133 4.83103 42.4808 5.17884 42.9097 5.17884H63.3648C63.7937 5.17884 64.1415 4.83103 64.1415 4.40215V0.776694C64.1415 0.347809 63.7937 0 63.3648 0Z" fill="#4E2D17"/>
<path d="M63.3647 2.58917H42.9096V4.40217H63.3647V2.58917Z" fill="#D2435F"/>
<path d="M41.4215 50.1659C40.3503 50.1659 39.4788 49.2943 39.4788 48.2238V39.0326C39.4788 37.9617 40.3503 37.0901 41.4215 37.0901H64.53C65.6003 37.0901 66.4707 37.9617 66.4707 39.0326V48.2238C66.4707 49.2943 65.6003 50.1659 64.53 50.1659H41.4215Z" fill="#F04E6C"/>
<path d="M64.53 37.4787C65.3858 37.4787 66.0824 38.1738 66.0824 39.0325V48.2238C66.0824 49.0821 65.3858 49.7772 64.53 49.7772H41.4215C40.5622 49.7772 39.867 49.0821 39.867 48.2238V39.0325C39.867 38.1738 40.5621 37.4787 41.4215 37.4787H64.53ZM64.53 36.7019H41.4215C40.1358 36.7019 39.0904 37.7474 39.0904 39.0325V48.2238C39.0904 49.5085 40.1358 50.5538 41.4215 50.5538H64.53C65.8141 50.5538 66.859 49.5085 66.859 48.2238V39.0325C66.859 37.7474 65.8141 36.7019 64.53 36.7019Z" fill="#4E2D17"/>
<path d="M64.7866 37.5016C64.7866 37.5164 64.7875 37.5302 64.7875 37.5434V46.7342C64.7875 47.593 64.0925 48.2891 63.2342 48.2891H40.1256C40.0389 48.2891 39.9533 48.28 39.8691 48.2662C39.8916 49.1045 40.5768 49.7772 41.4215 49.7772H64.5301C65.3858 49.7772 66.0824 49.0821 66.0824 48.2238V39.0325C66.0825 38.2631 65.521 37.6245 64.7866 37.5016Z" fill="#D2435F"/>
<path d="M41.4215 75.3459C40.3503 75.3459 39.4788 74.4744 39.4788 73.404V58.5055C39.4788 57.4351 40.3503 56.5635 41.4215 56.5635H64.53C65.6003 56.5635 66.4707 57.4351 66.4707 58.5055V73.404C66.4707 74.4744 65.6003 75.3459 64.53 75.3459H41.4215Z" fill="#F04E6C"/>
<path d="M64.53 56.9521C65.3858 56.9521 66.0824 57.6472 66.0824 58.5055V73.404C66.0824 74.2617 65.3858 74.9574 64.53 74.9574H41.4215C40.5622 74.9574 39.867 74.2617 39.867 73.404V58.5055C39.867 57.6472 40.5621 56.9521 41.4215 56.9521H64.53ZM64.53 56.1754H41.4215C40.1358 56.1754 39.0904 57.2209 39.0904 58.5055V73.404C39.0904 74.6886 40.1358 75.734 41.4215 75.734H64.53C65.8141 75.734 66.859 74.6886 66.859 73.404V58.5055C66.859 57.2209 65.8141 56.1754 64.53 56.1754Z" fill="#4E2D17"/>
<path d="M64.7866 56.9751C64.7866 56.9884 64.7875 57.0022 64.7875 57.0159V71.9143C64.7875 72.7726 64.0925 73.4677 63.2342 73.4677H40.1256C40.0389 73.4677 39.9533 73.4601 39.8691 73.4448C39.8916 74.2837 40.5768 74.9574 41.4215 74.9574H64.5301C65.3858 74.9574 66.0824 74.2618 66.0824 73.404V58.5055C66.0825 57.735 65.521 57.0969 64.7866 56.9751Z" fill="#D2435F"/>
<path d="M42.5858 60.4572C42.3714 60.4572 42.1974 60.2833 42.1974 60.0686V58.9691C42.1974 58.7545 42.3714 58.5806 42.5858 58.5806H63.2995C63.5139 58.5806 63.6881 58.7545 63.6881 58.9691V60.0686C63.6881 60.2833 63.5139 60.4572 63.2995 60.4572H42.5858Z" fill="#B9BBBB"/>
<path d="M63.2995 58.9691V60.0686H42.5858V58.9691H63.2995ZM63.2995 58.1924H42.5858C42.157 58.1924 41.8091 58.5402 41.8091 58.9691V60.0686C41.8091 60.4974 42.157 60.8453 42.5858 60.8453H63.2995C63.7284 60.8453 64.0762 60.4974 64.0762 60.0686V58.9691C64.0762 58.5402 63.7284 58.1924 63.2995 58.1924Z" fill="#4E2D17"/>
<path d="M63.2996 59.5188H42.5859V60.0685H63.2996V59.5188Z" fill="#B9BBBB"/>
<path d="M62.2636 62.8525C62.1522 62.8525 62.0466 62.8046 61.9729 62.7214C61.8993 62.6383 61.8645 62.5276 61.8781 62.4175L62.2335 59.4724C62.257 59.2771 62.4225 59.1302 62.6188 59.1302H62.9431C63.1395 59.1302 63.305 59.2771 63.3287 59.4719L63.6851 62.417C63.6984 62.5276 63.6639 62.6383 63.5902 62.7214C63.5165 62.8046 63.4107 62.8525 63.2996 62.8525H62.2636Z" fill="#B9BBBB"/>
<path d="M62.9431 59.5188L63.2995 62.464H62.2635L62.6187 59.5188H62.9431ZM62.9431 58.7421H62.6188C62.2261 58.7421 61.8951 59.0359 61.8477 59.4255L61.4922 62.3711C61.4657 62.5914 61.535 62.8127 61.6824 62.979C61.8298 63.1452 62.0414 63.2407 62.2636 63.2407H63.2996C63.5219 63.2407 63.7337 63.1452 63.881 62.979C64.0283 62.8127 64.0974 62.5914 64.0707 62.3706L63.7143 59.4255C63.6667 59.0354 63.336 58.7421 62.9431 58.7421Z" fill="#4E2D17"/>
<path d="M42.5858 41.0388C42.3714 41.0388 42.1974 40.8649 42.1974 40.6503V39.5502C42.1974 39.3356 42.3714 39.1617 42.5858 39.1617H63.2995C63.5139 39.1617 63.6881 39.3356 63.6881 39.5502V40.6503C63.6881 40.8649 63.5139 41.0388 63.2995 41.0388H42.5858Z" fill="#B9BBBB"/>
<path d="M63.2995 39.5502V40.6502H42.5858V39.5502H63.2995ZM63.2995 38.7735H42.5858C42.157 38.7735 41.8091 39.1214 41.8091 39.5502V40.6502C41.8091 41.0791 42.157 41.4269 42.5858 41.4269H63.2995C63.7284 41.4269 64.0762 41.0791 64.0762 40.6502V39.5502C64.0762 39.1214 63.7284 38.7735 63.2995 38.7735Z" fill="#4E2D17"/>
<path d="M63.2996 40.0994H42.5859V40.6502H63.2996V40.0994Z" fill="#B9BBBB"/>
<path d="M62.2636 43.4337C62.1522 43.4337 62.0466 43.3857 61.9729 43.3026C61.8993 43.2195 61.8645 43.1089 61.8781 42.9987L62.2335 40.053C62.257 39.8577 62.4225 39.7109 62.6188 39.7109H62.9431C63.1395 39.7109 63.3052 39.8577 63.3287 40.053L63.6851 42.9987C63.6984 43.1088 63.6639 43.2195 63.5902 43.3026C63.5165 43.3857 63.4107 43.4337 63.2996 43.4337H62.2636Z" fill="#B9BBBB"/>
<path d="M62.9431 40.0994L63.2995 43.045H62.2635L62.6187 40.0994H62.9431ZM62.9431 39.3228H62.6188C62.2261 39.3228 61.8951 39.616 61.8477 40.0066L61.4922 42.9522C61.4657 43.1726 61.535 43.3938 61.6824 43.5602C61.8298 43.7264 62.0414 43.8217 62.2636 43.8217H63.2996C63.5219 43.8217 63.7337 43.7264 63.881 43.5602C64.0283 43.3939 64.0974 43.1726 64.0707 42.9518L63.7143 40.0062C63.6667 39.6159 63.336 39.3228 62.9431 39.3228Z" fill="#4E2D17"/>
<path d="M78.5172 58.0153C77.563 58.0153 76.8161 57.0021 76.8161 55.7087C76.8161 54.4144 77.563 53.4006 78.5172 53.4006H81.9999C82.9538 53.4006 83.7009 54.4144 83.7009 55.7087C83.7009 57.0021 82.9538 58.0153 81.9999 58.0153H78.5172Z" fill="#FFD600"/>
<path d="M81.9998 53.8881C82.6701 53.8881 83.2136 54.7031 83.2136 55.7087C83.2136 56.7134 82.6702 57.5278 81.9998 57.5278H78.5171C77.847 57.5278 77.3033 56.7134 77.3033 55.7087C77.3033 54.7031 77.8469 53.8881 78.5171 53.8881H81.9998ZM81.9998 52.913H78.5171C77.2898 52.913 76.3285 54.141 76.3285 55.7086C76.3285 57.2752 77.2898 58.5023 78.5171 58.5023H81.9998C83.2273 58.5023 84.1884 57.2752 84.1884 55.7086C84.1884 54.1411 83.2274 52.913 81.9998 52.913Z" fill="#4E2D17"/>
<path d="M102.968 58.0153C102.014 58.0153 101.267 57.0021 101.267 55.7087C101.267 54.4144 102.014 53.4006 102.968 53.4006H106.451C107.405 53.4006 108.151 54.4144 108.151 55.7087C108.151 57.0021 107.405 58.0153 106.451 58.0153H102.968Z" fill="#FFD600"/>
<path d="M106.451 53.8881C107.122 53.8881 107.664 54.7031 107.664 55.7087C107.664 56.7134 107.122 57.5278 106.451 57.5278H102.968C102.298 57.5278 101.754 56.7134 101.754 55.7087C101.754 54.7031 102.298 53.8881 102.968 53.8881H106.451ZM106.451 52.913H102.968C101.74 52.913 100.779 54.141 100.779 55.7086C100.779 57.2752 101.74 58.5023 102.968 58.5023H106.451C107.678 58.5023 108.638 57.2752 108.638 55.7086C108.638 54.1411 107.678 52.913 106.451 52.913Z" fill="#4E2D17"/>
<path d="M97.4312 57.5304L97.4322 54.5399C97.4378 53.4592 97.4424 52.5265 96.9758 52.0573C96.6701 51.7503 96.1325 51.6009 95.3323 51.6009H89.5408C88.7412 51.6009 88.2039 51.7498 87.8985 52.0573C87.4318 52.526 87.4364 53.4592 87.4421 54.5394L87.443 57.5304H84.6002L84.5981 52.831C84.5899 51.3607 84.5825 49.9715 85.4801 49.0694C86.1097 48.4366 87.1143 48.1285 88.5529 48.1285H96.3199C97.759 48.1285 98.7644 48.4366 99.394 49.0694C100.291 49.9711 100.283 51.3587 100.275 52.8279L100.273 57.5305L97.4312 57.5304Z" fill="#9F5D22"/>
<path d="M96.3199 48.6159C100.028 48.6159 99.7857 50.6992 99.7857 53.2725V57.0428H97.9184V54.904C97.9184 52.81 98.0982 51.1133 95.3323 51.1133H89.5408C86.7757 51.1133 86.9557 52.8101 86.9557 54.904V57.0428H85.0875V53.2725C85.0875 50.6992 84.8465 48.6159 88.553 48.6159H96.3199ZM96.3199 47.6409H88.553C86.9782 47.6409 85.8604 47.9958 85.1347 48.7256C84.0943 49.7715 84.1025 51.2586 84.1111 52.8334L84.1127 53.2724V57.0427V58.0178H85.0875H86.9557H87.9305V57.0427V54.9039L87.9293 54.5368C87.9247 53.6056 87.9201 52.7263 88.2439 52.401C88.5009 52.1424 89.091 52.0879 89.5408 52.0879H95.3323C95.7824 52.0879 96.373 52.1424 96.63 52.401C96.954 52.7263 96.9498 53.6061 96.9449 54.5373L96.9436 54.904V57.0428V58.0179H97.9184H99.7857H100.761V57.0428V53.2725L100.762 52.8304C100.771 51.2572 100.779 49.7711 99.7395 48.7256C99.0138 47.9958 97.8952 47.6409 96.3199 47.6409Z" fill="#4E2D17"/>
<g opacity="0.5">
<path d="M86.9557 54.472H85.0874V55.2559H86.9557V54.472Z" fill="#B96D2C"/>
<path d="M99.7856 54.472H97.9184V55.2559H99.7856V54.472Z" fill="#B96D2C"/>
<path d="M95.3323 50.3295H89.5408C86.8434 50.3295 86.9491 51.9462 86.9558 53.9692C86.9716 52.3286 87.2021 51.1133 89.5408 51.1133H95.3323C97.6718 51.1133 97.9026 52.3286 97.9185 53.9692C97.9253 51.9461 98.0309 50.3295 95.3323 50.3295Z" fill="#B96D2C"/>
</g>
<path d="M72.3205 87.9612C70.5292 87.9612 69.0719 86.5031 69.0719 84.7116V59.0221C69.0719 57.2305 70.5292 55.7725 72.3205 55.7725H112.646C114.438 55.7725 115.896 57.2304 115.896 59.0221V84.7116C115.896 86.5031 114.438 87.9612 112.646 87.9612H72.3205Z" fill="#FAAA3F"/>
<path d="M112.646 56.2601C114.167 56.2601 115.409 57.5023 115.409 59.0221V84.7116C115.409 86.2314 114.167 87.4737 112.646 87.4737H72.3204C70.8023 87.4737 69.5589 86.2314 69.5589 84.7116V59.0221C69.5589 57.5024 70.8022 56.2601 72.3204 56.2601H112.646ZM112.646 55.2855H72.3204C70.2601 55.2855 68.5844 56.9618 68.5844 59.0221V84.7116C68.5844 86.7719 70.2601 88.4482 72.3204 88.4482H112.646C114.707 88.4482 116.384 86.7719 116.384 84.7116V59.0221C116.384 56.9618 114.707 55.2855 112.646 55.2855Z" fill="#4E2D17"/>
<path d="M69.0719 63.2869V59.022C69.0719 57.2304 70.5292 55.7723 72.3205 55.7723H76.4569V56.2599C76.4607 56.318 76.4625 56.3497 76.4625 56.3818C76.4625 60.1893 73.3656 63.2869 69.5589 63.2869H69.0719Z" fill="#9F5D22"/>
<path d="M75.9698 56.26C75.9698 56.3002 75.9754 56.3405 75.9754 56.3819C75.9754 59.9257 73.1024 62.7994 69.5591 62.7994V59.0221C69.5591 57.5023 70.8024 56.26 72.3207 56.26H75.9698ZM76.9451 55.2783L75.9698 55.2854H72.3207C70.2603 55.2854 68.5846 56.9617 68.5846 59.0221V62.7994V63.7745H69.5591C73.6348 63.7745 76.9502 60.4581 76.9502 56.3819C76.9502 56.3386 76.9482 56.2958 76.9451 56.2529V55.2783Z" fill="#4E2D17"/>
<path d="M115.409 63.287C111.602 63.287 108.505 60.1893 108.505 56.3819C108.505 56.3498 108.507 56.3182 108.509 56.2866V55.799L108.998 55.7725H112.646C114.438 55.7725 115.896 57.2305 115.896 59.0221V63.287L115.409 63.287Z" fill="#9F5D22"/>
<path d="M112.646 56.2599C114.167 56.2599 115.409 57.5022 115.409 59.022V62.7994C111.866 62.7994 108.992 59.9256 108.992 56.3819C108.992 56.3406 108.998 56.3002 108.998 56.2599H112.646ZM112.646 55.2854H108.998H108.023V56.2599C108.02 56.2956 108.018 56.3384 108.018 56.3819C108.018 60.4581 111.334 63.7745 115.409 63.7745H116.384V62.7994V59.022C116.384 56.9617 114.707 55.2854 112.646 55.2854Z" fill="#4E2D17"/>
<path d="M72.3205 87.9611C70.5293 87.9611 69.072 86.503 69.072 84.7115V80.5695H69.559C73.3657 80.5695 76.4625 83.6665 76.4625 87.4735V87.9611H72.3205Z" fill="#9F5D22"/>
<path d="M69.5589 81.0571C73.1022 81.0571 75.9752 83.9297 75.9752 87.4736H72.3204C70.8022 87.4736 69.5588 86.2313 69.5588 84.7115V81.0571M69.5589 80.0825H68.5844V81.0571V84.7115C68.5844 86.7719 70.2602 88.4481 72.3205 88.4481H75.9753H76.9501V87.4736C76.95 83.3979 73.6346 80.0825 69.5589 80.0825Z" fill="#4E2D17"/>
<path d="M108.505 87.9611V87.4735C108.505 83.6665 111.602 80.5695 115.409 80.5695H115.896V84.7115C115.896 86.503 114.438 87.9611 112.646 87.9611H108.505Z" fill="#9F5D22"/>
<path d="M115.409 81.0571V84.7115C115.409 86.2313 114.167 87.4736 112.646 87.4736H108.992C108.992 83.9298 111.866 81.0571 115.409 81.0571ZM116.384 80.0825H115.409C111.334 80.0825 108.018 83.3979 108.018 87.4736V88.4481H108.992H112.646C114.707 88.4481 116.384 86.7719 116.384 84.7115V81.0571V80.0825Z" fill="#4E2D17"/>
<g opacity="0.5">
<path d="M113.282 56.3416C113.363 56.5991 113.42 56.8683 113.42 57.1539V60.9303V79.188V82.8419C113.42 84.3622 112.177 85.605 110.657 85.605H107.002H73.9855H70.332C70.1127 85.605 69.9001 85.5723 69.6951 85.5224C70.0462 86.6473 71.0858 87.4735 72.3204 87.4735H75.9753H108.992H112.646C114.167 87.4735 115.409 86.2312 115.409 84.7114V81.057V62.7993V59.0219C115.409 57.7232 114.497 56.6312 113.282 56.3416Z" fill="#B96D2C"/>
</g>
<path d="M78.6805 88.5124C78.4112 88.5124 78.1929 88.2941 78.1929 88.0248V55.7087C78.1929 55.4394 78.4112 55.2211 78.6805 55.2211H81.8367C82.1059 55.2211 82.324 55.4394 82.324 55.7087V88.0248C82.324 88.2941 82.1059 88.5124 81.8367 88.5124H78.6805Z" fill="#9F5D22"/>
<path d="M81.8366 55.7087V88.0249H78.6804V55.7087H81.8366ZM81.8366 54.7336H78.6804C78.1418 54.7336 77.7053 55.1702 77.7053 55.7087V88.0249C77.7053 88.5634 78.1418 88.9999 78.6804 88.9999H81.8366C82.3751 88.9999 82.8114 88.5634 82.8114 88.0249V55.7087C82.8115 55.1702 82.3751 54.7336 81.8366 54.7336Z" fill="#4E2D17"/>
<path d="M80.8421 55.7087H78.6803V88.0248H80.8421V55.7087Z" fill="#B56B2A"/>
<path d="M103.132 88.5124C102.863 88.5124 102.645 88.2941 102.645 88.0248V55.7087C102.645 55.4394 102.863 55.2211 103.132 55.2211H106.287C106.556 55.2211 106.774 55.4394 106.774 55.7087V88.0248C106.774 88.2941 106.556 88.5124 106.287 88.5124H103.132Z" fill="#9F5D22"/>
<path d="M106.287 55.7087V88.0249H103.132V55.7087H106.287ZM106.287 54.7336H103.132C102.594 54.7336 102.157 55.1702 102.157 55.7087V88.0249C102.157 88.5634 102.594 88.9999 103.132 88.9999H106.287C106.825 88.9999 107.262 88.5634 107.262 88.0249V55.7087C107.262 55.1702 106.825 54.7336 106.287 54.7336Z" fill="#4E2D17"/>
<path d="M105.294 55.7087H103.132V88.0248H105.294V55.7087Z" fill="#B56B2A"/>
<path d="M78.0259 75.6707C77.1605 75.6707 76.4564 74.9659 76.4564 74.1V69.6341C76.4564 68.7681 77.1605 68.0634 78.0259 68.0634H82.4915C83.3575 68.0634 84.062 68.7681 84.062 69.6341V74.1C84.062 74.9659 83.3575 75.6707 82.4915 75.6707H78.0259ZM78.9089 70.3496C78.8166 70.3496 78.7414 70.4246 78.7414 70.5174V73.2161C78.7414 73.3089 78.8166 73.3844 78.9089 73.3844H81.6092C81.7009 73.3844 81.7757 73.3089 81.7757 73.2161V70.5174C81.7757 70.4246 81.7009 70.3496 81.6092 70.3496H81.1114V70.8484C81.1114 71.3191 80.729 71.7022 80.2587 71.7022C79.7883 71.7022 79.4057 71.3192 79.4057 70.8484V70.3496H78.9089Z" fill="#FFD600"/>
<path d="M82.4914 68.551C83.0896 68.551 83.5746 69.0359 83.5746 69.6342V74.1C83.5746 74.6982 83.0897 75.1832 82.4914 75.1832H78.0258C77.4274 75.1832 76.9436 74.6983 76.9436 74.1V69.6342C76.9436 69.036 77.4273 68.551 78.0258 68.551H82.4914ZM80.2587 71.2145C80.0572 71.2145 79.893 71.0498 79.893 70.8484V69.8621H78.9088C78.5477 69.8621 78.254 70.1553 78.254 70.5174V73.2161C78.254 73.5792 78.5478 73.8719 78.9088 73.8719H81.6091C81.9694 73.8719 82.2629 73.5792 82.2629 73.2161V70.5174C82.2629 70.1553 81.9694 69.8621 81.6091 69.8621H80.6241V70.8484C80.6241 71.0499 80.4597 71.2145 80.2587 71.2145ZM82.4914 67.5758H78.0258C76.8916 67.5758 75.9688 68.4994 75.9688 69.6341V74.1C75.9688 75.2347 76.8916 76.1577 78.0258 76.1577H82.4914C83.6261 76.1577 84.5494 75.2347 84.5494 74.1V69.6341C84.5494 68.4994 83.6261 67.5758 82.4914 67.5758ZM79.2288 72.897V71.7056C79.4749 72.0009 79.8451 72.1891 80.2587 72.1891C80.6718 72.1891 81.0421 72.0015 81.2881 71.7062V72.897H79.2288Z" fill="#4E2D17"/>
<path d="M102.477 75.6707C101.611 75.6707 100.907 74.9659 100.907 74.1V69.6341C100.907 68.7681 101.612 68.0634 102.477 68.0634H106.943C107.808 68.0634 108.512 68.7681 108.512 69.6341V74.1C108.512 74.9659 107.808 75.6707 106.943 75.6707H102.477ZM103.36 70.3496C103.267 70.3496 103.192 70.4246 103.192 70.5174V73.2161C103.192 73.3105 103.266 73.3844 103.36 73.3844H106.06C106.154 73.3844 106.227 73.3105 106.227 73.2161V70.5174C106.227 70.4246 106.152 70.3496 106.06 70.3496H105.563V70.8484C105.563 71.3191 105.18 71.7022 104.71 71.7022C104.24 71.7022 103.857 71.3192 103.857 70.8484V70.3496H103.36Z" fill="#FFD600"/>
<path d="M106.943 68.551C107.54 68.551 108.025 69.0359 108.025 69.6342V74.1C108.025 74.6982 107.54 75.1832 106.943 75.1832H102.477C101.879 75.1832 101.394 74.6983 101.394 74.1V69.6342C101.394 69.036 101.879 68.551 102.477 68.551H106.943ZM104.71 71.2145C104.508 71.2145 104.344 71.0498 104.344 70.8484V69.8621H103.36C102.997 69.8621 102.705 70.1553 102.705 70.5174V73.2161C102.705 73.5792 102.997 73.8719 103.36 73.8719H106.06C106.422 73.8719 106.715 73.5792 106.715 73.2161V70.5174C106.715 70.1553 106.422 69.8621 106.06 69.8621H105.076V70.8484C105.076 71.0499 104.912 71.2145 104.71 71.2145ZM106.943 67.5758H102.477C101.343 67.5758 100.419 68.4994 100.419 69.6341V74.1C100.419 75.2347 101.343 76.1577 102.477 76.1577H106.943C108.077 76.1577 109 75.2347 109 74.1V69.6341C109 68.4994 108.077 67.5758 106.943 67.5758ZM103.679 72.897V71.7046C103.925 72.0009 104.296 72.1891 104.71 72.1891C105.123 72.1891 105.494 72.0015 105.74 71.7062V72.897H103.679Z" fill="#4E2D17"/>
<path d="M23.961 64.5196L33.135 64.493L34.8393 69.0951L22.2852 69.1317L23.961 64.5196Z" fill="#BCBEC0"/>
<path d="M32.9414 64.772L34.4397 68.8176L22.683 68.8523L24.1563 64.7974L32.9414 64.772ZM33.3285 64.2141L32.9396 64.2151L24.1547 64.2406L23.7662 64.2416L23.633 64.6073L22.1597 68.6621L21.8874 69.4113L22.6845 69.4093L34.4415 69.3746L35.2388 69.372L34.9617 68.6244L33.4633 64.5788L33.3285 64.2141Z" fill="#4E2D17"/>
<path d="M25.8431 66.2438L31.2629 66.2285L32.3275 69.1022L24.796 69.1246L25.8431 66.2438Z" fill="#28363A"/>
<path d="M31.0695 66.5075L31.9278 68.8248L25.1937 68.8452L26.0384 66.5218L31.0695 66.5075ZM31.4567 65.9495L31.0681 65.9505L26.0369 65.9648L25.6481 65.9658L25.5149 66.3315L24.6704 68.6549L24.3979 69.4046L25.1953 69.402L31.9295 69.3817L32.7271 69.3792L32.4502 68.6315L31.5919 66.3141L31.4567 65.9495Z" fill="#4E2D17"/>
<path d="M17.5982 70.8C17.138 70.8 16.7637 70.4256 16.7637 69.9656L16.7568 67.786C16.7568 67.325 17.1306 66.9496 17.5899 66.9481L21.2086 66.9379C21.6722 66.9379 22.0456 67.3117 22.0456 67.7712L22.0527 69.9493C22.0543 70.1716 21.9681 70.3823 21.811 70.5414C21.6537 70.7 21.4446 70.7877 21.222 70.7888L17.6009 70.8H17.5982Z" fill="#6D6E71"/>
<path d="M21.2133 67.2164C21.5188 67.2164 21.7671 67.4637 21.7671 67.7712L21.7742 69.9503C21.7763 70.2583 21.5266 70.5092 21.2209 70.5103L17.6001 70.5215C17.5995 70.5215 17.5985 70.5215 17.598 70.5215C17.2918 70.5215 17.0421 70.2721 17.0421 69.9656L17.0352 67.785C17.0352 67.4769 17.2828 67.2276 17.5908 67.2266L21.2093 67.2164C21.2107 67.2164 21.212 67.2164 21.2133 67.2164ZM21.2133 66.6595H21.2109H21.2045L17.5893 66.6696C16.9766 66.6717 16.4785 67.1719 16.4785 67.785L16.4852 69.9677C16.4852 70.5791 16.9845 71.0784 17.5979 71.0784L21.2226 71.0672C21.5197 71.0661 21.7989 70.9488 22.0087 70.7372C22.2183 70.5251 22.333 70.2445 22.3311 69.9467L22.324 67.7697C22.324 67.1581 21.8257 66.6595 21.2133 66.6595Z" fill="#4E2D17"/>
<path d="M12.1939 87.9034C11.5315 87.9034 10.9911 87.347 10.9898 86.6626L10.9394 69.8507C10.9379 69.1648 11.4769 68.6044 12.1408 68.6008L41.6524 68.511C42.3192 68.511 42.8603 69.0679 42.8621 69.7523L42.9128 86.5636C42.9141 86.9043 42.7848 87.222 42.5492 87.4597C42.3238 87.6861 42.0257 87.8116 41.7103 87.812L12.1939 87.9034Z" fill="#BCBEC0"/>
<path d="M41.6556 68.7896C42.1676 68.7896 42.5823 69.2195 42.5835 69.7529L42.6343 86.5648C42.6363 87.0998 42.2222 87.5328 41.7096 87.5337L12.1984 87.625C12.1969 87.625 12.1954 87.625 12.1938 87.625C11.6843 87.625 11.2691 87.1947 11.2682 86.6623L11.2177 69.8499C11.2164 69.3154 11.6302 68.8819 12.1423 68.8793L41.653 68.7896C41.6541 68.7896 41.6549 68.7896 41.6556 68.7896ZM41.6556 68.2327H41.6541H41.65L12.1408 68.3224C11.3223 68.3265 10.6588 69.0124 10.6608 69.8513L10.7113 86.6637C10.7128 87.5005 11.3781 88.1818 12.1938 88.1818L41.7114 88.0905C42.1008 88.0895 42.4685 87.935 42.7465 87.6555C43.0346 87.3658 43.1927 86.9778 43.1911 86.5626L43.1401 69.7513C43.1382 68.914 42.4726 68.2327 41.6556 68.2327Z" fill="#4E2D17"/>
<path opacity="0.5" d="M41.7418 68.7937L41.7928 85.5856C41.7949 86.1395 41.3655 86.5887 40.8321 86.5909L11.2683 86.6826C11.2817 87.2064 11.6924 87.6265 12.1984 87.625L41.7097 87.5337C42.2223 87.5327 42.6364 87.0998 42.6343 86.5648L42.5836 69.7529C42.5835 69.2512 42.2135 68.8391 41.7418 68.7937Z" fill="#808285"/>
<path d="M28.5845 87.9147C22.9579 87.9147 18.3672 83.3362 18.3511 77.7081C18.3426 74.974 19.3996 72.3996 21.3273 70.4603C23.2547 68.5208 25.8219 67.4488 28.5559 67.4412C34.2146 67.4412 38.8059 72.0192 38.8233 77.6468C38.8412 83.2907 34.2628 87.8968 28.6176 87.9147H28.5845Z" fill="#D1D3D4"/>
<path d="M28.5881 67.8002C34.029 67.8002 38.4475 72.2034 38.4643 77.648C38.4814 83.1047 34.0718 87.5384 28.6167 87.5557C28.606 87.5557 28.5952 87.5557 28.5845 87.5557C23.1426 87.5557 18.726 83.1526 18.7104 77.7071C18.6933 72.2519 23.1028 67.8155 28.557 67.8002C28.5672 67.8002 28.5778 67.8002 28.5881 67.8002ZM28.5881 67.0817H28.5549C25.7251 67.0898 23.0676 68.1995 21.0725 70.2073C19.077 72.2146 17.9831 74.8792 17.9917 77.709C18.0085 83.5345 22.7602 88.2742 28.5844 88.2742H28.6186C34.4619 88.2554 39.2008 83.4876 39.1828 77.6458C39.1647 71.8209 34.412 67.0817 28.5881 67.0817Z" fill="#4E2D17"/>
<path d="M28.5906 85.6749C24.1925 85.6749 20.6044 82.0985 20.5914 77.7025C20.5848 75.5667 21.4102 73.5559 22.9161 72.0408C24.4218 70.5257 26.4276 69.6878 28.5638 69.6812C32.982 69.6812 36.5701 73.2581 36.5844 77.6541C36.5959 82.0628 33.0194 85.6607 28.612 85.6749H28.5906Z" fill="#808285"/>
<path d="M28.5862 69.9595C32.8386 69.9589 36.2922 73.3993 36.306 77.655C36.3172 81.9174 32.8729 85.3827 28.6109 85.3965C28.6043 85.3965 28.5969 85.3965 28.59 85.3965C24.3349 85.3965 20.8821 81.9567 20.8697 77.7015C20.8562 73.4391 24.3016 69.9728 28.5644 69.9595C28.5716 69.9595 28.5793 69.9595 28.5862 69.9595ZM28.587 69.4026H28.5862C26.3523 69.4097 24.2767 70.2766 22.7186 71.8444C21.1602 73.4125 20.306 75.4927 20.3131 77.703C20.3264 82.2525 24.0395 85.9533 28.59 85.9533C33.1736 85.9386 36.8745 82.2152 36.8628 77.6535C36.8481 73.104 33.1354 69.4026 28.587 69.4026Z" fill="#4E2D17"/>
<path d="M40.5643 71.3578C40.5655 71.647 40.3898 71.8806 40.173 71.881L37.4778 71.8872C37.2595 71.8892 37.0831 71.6556 37.0818 71.369L37.0786 70.3262C37.0786 70.0375 37.254 69.8044 37.4723 69.8029L40.1665 69.7947C40.3833 69.7942 40.5613 70.0288 40.5613 70.3154L40.5643 71.3578Z" fill="#E6E7E8" stroke="#4E2D17" stroke-width="6.0201" stroke-miterlimit="10"/>
<path d="M37.0796 70.8469L40.5632 70.8357" stroke="#4E2D17" stroke-width="6.0201" stroke-miterlimit="10"/>
<path d="M28.5892 84.3985C24.8947 84.3985 21.8795 81.3927 21.8675 77.698C21.8624 75.9029 22.5565 74.2138 23.8212 72.9409C25.0867 71.668 26.7719 70.9642 28.567 70.9586C32.2804 70.9586 35.2949 73.9639 35.3054 77.6582C35.3116 79.4527 34.618 81.1424 33.3527 82.4153C32.0877 83.6881 30.4025 84.3924 28.6074 84.3985H28.5892Z" fill="#28363A"/>
<path d="M28.5859 71.3139C32.0933 71.3135 34.9402 74.1494 34.9504 77.6591C34.9616 81.1733 32.1216 84.0318 28.6063 84.043C28.6007 84.043 28.5948 84.043 28.5895 84.043C25.0819 84.043 22.2342 81.206 22.223 77.6968C22.2128 74.1821 25.0528 71.3242 28.5681 71.3139C28.5737 71.3139 28.5803 71.3139 28.5859 71.3139ZM28.5864 70.6036H28.5859C26.676 70.6092 24.9018 71.3502 23.5692 72.6905C22.2372 74.0302 21.5069 75.809 21.5126 77.699C21.5248 81.589 24.6994 84.7535 28.5895 84.7535C32.5096 84.7413 35.6735 81.5574 35.6608 77.6571C35.6496 73.7675 32.476 70.6036 28.5864 70.6036Z" fill="#4E2D17"/>
<path opacity="0.6" d="M28.568 71.314C28.262 71.3151 27.9626 71.3446 27.6669 71.388L22.9593 80.6461C23.2711 81.2351 23.6705 81.7701 24.1439 82.2306L29.6466 71.4094C29.2957 71.3503 28.937 71.3125 28.568 71.314Z" fill="#F1F2F2"/>
<path opacity="0.6" d="M28.3732 84.0318L33.5958 73.7614C33.2134 73.2733 32.7625 72.8424 32.255 72.4833L26.551 83.7023C27.1257 83.8977 27.7377 84.0099 28.3732 84.0318Z" fill="#F1F2F2"/>
<path d="M12.9522 88.3947C11.3075 88.3947 9.4198 88.1484 9.4198 86.2283V69.9381C9.4198 68.0237 11.2965 68.0237 12.9522 68.0237H13.0194C14.6759 68.0237 16.5531 68.0237 16.5531 69.9381V86.2283C16.5531 88.1484 14.6646 88.3947 13.0194 88.3947H12.9522Z" fill="#D1D3D4"/>
<path d="M13.0194 68.2715C14.8339 68.2715 16.3051 68.3317 16.3051 69.9381V86.2283C16.3051 87.8347 14.8338 88.1468 13.0194 88.1468H12.9521C11.1376 88.1468 9.66762 87.8348 9.66762 86.2283V69.9381C9.66762 68.3317 11.1376 68.2715 12.9521 68.2715H13.0194ZM13.0194 67.7758H12.9521C11.2679 67.7758 9.17163 67.7758 9.17163 69.9381V86.2283C9.17163 88.6426 11.9181 88.6425 12.9521 88.6425H13.0194C14.0536 88.6425 16.8009 88.6426 16.8009 86.2283V69.9381C16.8009 67.7758 14.7043 67.7758 13.0194 67.7758Z" fill="#4E2D17"/>
<path opacity="0.5" d="M15.2635 68.4816C15.2659 68.5254 15.2781 68.5585 15.2781 68.6045V84.8946C15.2781 86.5011 13.8078 86.8126 11.9939 86.8126H11.9251C11.0624 86.8126 10.285 86.7371 9.69907 86.4903C9.86229 87.8565 11.2478 88.1466 12.9522 88.1466H13.0195C14.834 88.1466 16.3053 87.8346 16.3053 86.2281V69.9381C16.3052 69.1022 15.9013 68.6902 15.2635 68.4816Z" fill="#808285"/>
</svg>
