<svg width="820" height="312" viewBox="0 0 820 312" fill="none" xmlns="http://www.w3.org/2000/svg">
<g clip-path="url(#clip0_245_4067)">
<path d="M820 0H0V312H820V0Z" fill="#7FB4FB"/>
<path d="M713.247 281.175C734.007 229.841 737.437 171.673 722.854 118.255C716.05 93.333 704.614 68.393 683.966 52.869C663.317 37.345 631.74 34.259 612.437 51.428C590.589 70.86 591.406 107.33 569.813 127.045C556.755 138.966 538.258 142.212 521.009 146.094C503.759 149.975 485.269 156.036 475.698 170.902C466.192 185.668 468.394 205.624 476.658 221.12C484.922 236.616 498.319 248.629 511.442 260.299C521.695 269.418 532.149 276.46 543.108 284.718C598.478 283.801 657.877 282.092 713.247 281.175Z" fill="#94CEFC"/>
<path d="M538.52 127.042C533.762 129.173 528.678 130.803 523.464 130.842C518.251 130.881 512.871 129.177 509.24 125.435C502.249 118.231 503.834 106.133 508.735 97.373C514.771 86.584 525.125 78.291 536.972 74.759C548.828 71.224 576.357 71.475 573.968 90.479C571.985 106.264 551.787 121.101 538.52 127.042Z" fill="#94CEFC"/>
<path d="M728.27 23.383C726.566 16.343 720.978 14.731 715.787 19.784C667.192 67.084 635.781 148.863 633.708 222.842C633.425 232.954 640.03 241.973 649.75 244.776L664.375 248.993C674.095 251.796 684.488 247.678 689.633 238.968C727.267 175.243 744.221 89.295 728.27 23.383Z" fill="white"/>
<path d="M710.701 119.708C692.784 124.657 673.105 122.188 655.958 129.366C653.783 130.277 651.685 131.354 649.668 132.564C640.147 162.054 634.559 193.025 633.712 222.743C633.423 232.891 639.996 241.963 649.751 244.776L664.376 248.993C674.136 251.807 684.528 247.619 689.69 238.87C712.298 200.549 727.422 154.206 732.427 109.019C725.889 113.841 718.54 117.543 710.701 119.708Z" fill="#B9EDFE"/>
<path d="M712.343 55.174C691.627 102.103 668.793 181.291 661.341 232.045C682.058 185.116 704.892 105.928 712.343 55.174Z" fill="#74A8FC"/>
<path d="M693.298 269.1C685.866 260.319 645.198 253.604 596.138 253.604C541.805 253.604 497.759 261.839 497.759 271.996C497.759 274.14 499.727 276.197 503.333 278.11C487.845 280.482 477.492 284.786 477.492 289.702C477.492 297.18 501.448 303.243 530.999 303.243C559.812 303.243 583.295 297.479 584.45 290.259C588.284 290.344 592.182 290.389 596.138 290.389C614.896 290.389 632.427 289.407 647.343 287.704C656.527 290.269 670.472 291.906 686.09 291.906C713.746 291.906 736.166 286.774 736.166 280.443C736.166 274.672 717.537 269.9 693.298 269.1Z" fill="#517FE3"/>
<path d="M538.498 275.258C538.498 277.007 539.916 278.424 541.664 278.424H544.656C546.404 278.424 547.822 277.007 547.822 275.258V274.966H538.498V275.258Z" fill="#47436C"/>
<path d="M547.822 271.506H538.498V274.965H547.822V271.506Z" fill="#32304A"/>
<path d="M665.884 271.506H656.56V274.965H665.884V271.506Z" fill="#32304A"/>
<path d="M656.56 274.965V275.257C656.56 277.006 657.978 278.423 659.726 278.423H662.718C664.467 278.423 665.884 277.006 665.884 275.257V274.965H656.56Z" fill="#47436C"/>
<path d="M576.658 92.6289V101.922H586.454V96.6669C586.454 96.0579 586.948 95.5639 587.557 95.5639H621.266C621.875 95.5639 622.369 96.0579 622.369 96.6669V101.922H632.165V92.6289C632.165 88.8399 629.093 85.7679 625.304 85.7679H583.518C579.729 85.7689 576.658 88.8399 576.658 92.6289Z" fill="#47436C"/>
<path d="M584.505 101.923H578.606V106.765H584.505V101.923Z" fill="#69699A"/>
<path d="M584.505 106.764H578.606V154.378H584.505V106.764Z" fill="#ABABE1"/>
<path d="M630.217 101.923H624.318V106.765H630.217V101.923Z" fill="#69699A"/>
<path d="M630.217 106.764H624.318V154.378H630.217V106.764Z" fill="#ABABE1"/>
<path d="M558.975 238.811C589.32 236.098 620.11 229.692 645.878 213.437C660.451 204.244 673.204 191.44 681.724 176.543V165.008C681.724 159.137 676.965 154.377 671.094 154.377H533.288C527.417 154.377 522.657 159.136 522.657 165.008V238.9C534.621 240.408 546.916 239.889 558.975 238.811Z" fill="#F0C344"/>
<path d="M645.878 213.438C620.11 229.693 589.32 236.099 558.975 238.812C546.915 239.89 534.62 240.408 522.657 238.901V260.877C522.657 266.748 527.416 271.507 533.288 271.507H671.094C676.965 271.507 681.724 266.748 681.724 260.877V176.545C673.205 191.441 660.451 204.245 645.878 213.438Z" fill="#E19F2C"/>
<path d="M566.722 152.765H550.561V273.236H566.722V152.765Z" fill="#7776A6"/>
<path d="M653.822 152.765H637.661V273.236H653.822V152.765Z" fill="#7776A6"/>
<path d="M550.561 230.567V273.236H566.722V229.149C564.139 229.437 561.555 229.697 558.975 229.927C556.181 230.178 553.374 230.395 550.561 230.567Z" fill="#4F4E78"/>
<path d="M637.661 209.317V273.236H653.822V199.046C651.248 201.001 648.595 202.84 645.878 204.554C643.193 206.248 640.449 207.83 637.661 209.317Z" fill="#4F4E78"/>
<path d="M671.094 154.378H653.822V199.046V207.93C665.058 199.398 674.793 188.664 681.725 176.544V165.009C681.725 159.138 676.965 154.378 671.094 154.378Z" fill="#F0C344"/>
<path d="M579.943 154.378H566.722V171.594C571.577 166.217 576.006 160.459 579.943 154.378Z" fill="#E19F2C"/>
<path d="M550.561 154.378H533.289C527.418 154.378 522.658 159.137 522.658 165.009V204.258C532.609 199.6 541.991 193.732 550.561 186.849V154.378Z" fill="#E19F2C"/>
<path d="M566.722 171.594V154.378V152.764H550.561V154.378V186.848C556.343 182.204 561.754 177.098 566.722 171.594Z" fill="#4F4E78"/>
<path d="M581.037 216.865L601.611 214.005L604.007 231.239C604.411 231.13 604.812 231.017 605.215 230.905L602.655 212.489L579.62 215.691L582.425 235.871C582.834 235.803 583.242 235.734 583.651 235.663L581.037 216.865Z" fill="#C82441"/>
<path d="M593.003 230.473C592.882 230.463 592.761 230.46 592.641 230.443C590.846 230.187 589.567 229.156 588.795 227.36C588.761 227.28 588.77 227.226 588.819 227.158C589.288 226.511 589.753 225.86 590.22 225.212C590.257 225.16 590.262 225.122 590.232 225.061C590.072 224.734 589.917 224.403 589.761 224.074C589.75 224.05 589.74 224.025 589.724 223.987C590.217 223.8 590.706 223.616 591.213 223.424C590.901 223.117 590.601 222.823 590.289 222.517C590.625 222.324 590.952 222.136 591.288 221.943C591.027 221.493 590.772 221.052 590.509 220.598C590.551 220.589 590.579 220.582 590.607 220.578C592.62 220.298 594.633 220.018 596.646 219.736C596.733 219.724 596.761 219.75 596.774 219.841C596.841 220.332 596.915 220.821 596.984 221.311C597.147 222.474 597.32 223.635 597.469 224.8C597.718 226.746 597.134 228.323 595.739 229.519C595.341 229.86 594.886 230.097 594.398 230.258C594.372 230.267 594.346 230.277 594.314 230.289C594.462 231.356 594.611 232.426 594.76 233.495C597.591 232.87 600.407 232.19 603.203 231.45L600.918 215.016L581.985 217.648L584.47 235.525C587.481 234.999 590.481 234.418 593.465 233.778C593.31 232.677 593.157 231.576 593.003 230.473ZM587.788 226.871C587.779 226.87 587.77 226.869 587.761 226.868C587.722 226.658 587.675 226.449 587.645 226.238C587.42 224.636 587.198 223.034 586.975 221.431C586.964 221.35 586.962 221.268 586.946 221.189C586.93 221.103 586.963 221.08 587.034 221.071C587.264 221.043 587.494 221.009 587.723 220.977C588.21 220.909 588.696 220.842 589.183 220.773C589.229 220.766 589.266 220.765 589.296 220.819C589.491 221.16 589.689 221.499 589.885 221.839C589.894 221.854 589.9 221.871 589.912 221.897C589.543 222.109 589.176 222.319 588.797 222.536C589.083 222.816 589.361 223.088 589.651 223.373C589.213 223.538 588.789 223.698 588.354 223.863C588.372 223.904 588.385 223.938 588.401 223.972C588.583 224.355 588.765 224.739 588.949 225.121C588.977 225.179 588.977 225.22 588.939 225.273C588.567 225.787 588.197 226.303 587.827 226.819C587.817 226.837 587.802 226.854 587.788 226.871Z" fill="#C82441"/>
<path d="M590.858 241.092C591.061 241.064 591.143 240.945 591.118 240.771C591.094 240.597 590.982 240.505 590.78 240.533L590.512 240.57L590.59 241.129L590.858 241.092Z" fill="#9A1941"/>
<path d="M593.196 240.371L593.067 241L593.491 240.941L593.196 240.371Z" fill="#9A1941"/>
<path d="M605.019 244.535L603.2 231.45C600.404 232.19 597.588 232.87 594.757 233.495C594.864 234.264 594.971 235.03 595.078 235.803C595.165 235.795 595.255 235.789 595.344 235.779C596.017 235.708 596.691 235.653 597.37 235.671C597.59 235.677 597.811 235.709 598.03 235.746C598.168 235.769 598.185 235.805 598.206 235.956C598.219 236.052 598.233 236.147 598.246 236.243C598.262 236.358 598.262 236.359 598.153 236.374C597.576 236.455 596.999 236.536 596.422 236.616C594.598 236.869 592.773 237.122 590.949 237.378C590.871 237.389 590.846 237.365 590.839 237.285C590.828 237.174 590.815 237.063 590.792 236.953C590.773 236.86 590.801 236.795 590.872 236.76C591.021 236.685 591.169 236.606 591.325 236.551C591.861 236.362 592.415 236.242 592.971 236.134C593.234 236.083 593.497 236.036 593.77 235.985C593.668 235.248 593.566 234.514 593.463 233.779C590.479 234.419 587.479 235 584.468 235.526L586.087 247.168L605.019 244.535ZM601.684 238.385L601.768 238.992L600.717 239.138L600.756 239.417L601.679 239.289L601.76 239.868L600.837 239.996L600.881 240.31L601.972 240.158L602.056 240.765L600.241 241.017L599.909 238.631L601.684 238.385ZM598.721 238.796L598.966 240.558L599.951 240.421L600.038 241.045L598.317 241.284L597.985 238.898L598.721 238.796ZM597.63 238.948L597.962 241.334L597.226 241.436L596.894 239.05L597.63 238.948ZM595.636 239.17C596.066 239.11 596.435 239.226 596.698 239.491L596.29 240.01C596.129 239.855 595.957 239.789 595.764 239.816C595.44 239.861 595.266 240.118 595.317 240.486C595.367 240.844 595.606 241.054 595.921 241.01C596.011 240.997 596.096 240.968 596.181 240.915L596.097 240.312L596.736 240.223L596.876 241.232C596.638 241.467 596.288 241.623 595.967 241.668C595.262 241.766 594.676 241.323 594.574 240.59C594.472 239.856 594.915 239.27 595.636 239.17ZM590.741 239.906C591.349 239.821 591.784 240.115 591.861 240.668C591.909 241.012 591.795 241.292 591.554 241.475L592.11 242.142L592.731 239.63L593.455 239.529L594.741 241.782L593.98 241.888L593.776 241.493L592.947 241.608L592.858 242.044L592.116 242.147L591.33 242.256L590.876 241.708L590.676 241.736L590.759 242.336L590.023 242.438L589.691 240.052L590.741 239.906ZM589.456 240.085L589.54 240.692L588.502 240.836L588.559 241.245L589.47 241.118L589.554 241.725L588.643 241.852L588.749 242.616L588.013 242.718L587.681 240.332L589.456 240.085Z" fill="#9A1941"/>
<path d="M607.382 246.492L605.215 230.905C604.812 231.016 604.41 231.13 604.007 231.239L605.964 245.318L585.39 248.178L583.65 235.664C583.241 235.734 582.833 235.803 582.424 235.872L584.346 249.695L607.382 246.492Z" fill="#9A1941"/>
<path d="M581.037 216.865L583.651 235.663C583.923 235.617 584.196 235.572 584.468 235.525L581.983 217.648L600.916 215.016L603.201 231.45C603.47 231.379 603.74 231.311 604.008 231.238L601.612 214.004L581.037 216.865Z" fill="white"/>
<path d="M605.019 244.535L586.086 247.167L584.467 235.525C584.195 235.573 583.922 235.617 583.65 235.663L585.39 248.177L605.964 245.317L604.007 231.238C603.739 231.31 603.469 231.379 603.2 231.45L605.019 244.535Z" fill="white"/>
<path d="M594.396 230.257C594.884 230.096 595.339 229.86 595.737 229.518C597.133 228.322 597.716 226.745 597.467 224.799C597.318 223.634 597.145 222.473 596.982 221.31C596.913 220.82 596.84 220.33 596.772 219.84C596.759 219.748 596.731 219.723 596.644 219.735C594.631 220.018 592.618 220.297 590.605 220.577C590.576 220.581 590.548 220.588 590.507 220.597C590.77 221.051 591.026 221.492 591.286 221.942C590.95 222.135 590.623 222.323 590.287 222.516C590.599 222.822 590.899 223.117 591.211 223.423C590.704 223.615 590.216 223.799 589.722 223.986C589.738 224.024 589.747 224.049 589.759 224.073C589.915 224.402 590.071 224.733 590.23 225.06C590.26 225.121 590.255 225.159 590.218 225.211C589.75 225.859 589.286 226.51 588.817 227.157C588.768 227.225 588.759 227.279 588.793 227.359C589.565 229.155 590.844 230.186 592.639 230.442C592.759 230.459 592.88 230.462 593.001 230.472C593.154 231.575 593.307 232.676 593.46 233.777C593.892 233.684 594.323 233.589 594.754 233.494C594.606 232.425 594.457 231.355 594.308 230.288C594.344 230.277 594.369 230.266 594.396 230.257Z" fill="white"/>
<path d="M593.769 235.984C593.496 236.035 593.233 236.082 592.97 236.133C592.414 236.241 591.861 236.361 591.324 236.55C591.168 236.605 591.02 236.684 590.871 236.759C590.8 236.794 590.772 236.859 590.791 236.952C590.814 237.061 590.827 237.173 590.838 237.284C590.846 237.364 590.87 237.388 590.948 237.377C592.772 237.121 594.596 236.869 596.421 236.615C596.998 236.535 597.575 236.454 598.152 236.373C598.261 236.358 598.261 236.357 598.245 236.242C598.232 236.146 598.218 236.051 598.205 235.955C598.184 235.804 598.168 235.768 598.029 235.745C597.81 235.709 597.589 235.676 597.369 235.67C596.69 235.652 596.016 235.707 595.343 235.778C595.254 235.787 595.164 235.794 595.077 235.802C594.97 235.03 594.863 234.264 594.756 233.494C594.325 233.589 593.894 233.685 593.462 233.777C593.565 234.513 593.667 235.248 593.769 235.984Z" fill="white"/>
<path d="M588.953 225.122C588.768 224.74 588.587 224.356 588.405 223.973C588.389 223.94 588.375 223.905 588.358 223.864C588.793 223.7 589.216 223.54 589.655 223.374C589.364 223.089 589.087 222.817 588.801 222.537C589.18 222.32 589.546 222.109 589.916 221.898C589.904 221.872 589.898 221.855 589.889 221.84C589.692 221.5 589.495 221.161 589.3 220.82C589.27 220.767 589.233 220.768 589.187 220.774C588.7 220.842 588.214 220.91 587.727 220.978C587.497 221.01 587.268 221.044 587.038 221.072C586.967 221.081 586.934 221.104 586.95 221.19C586.965 221.27 586.968 221.352 586.979 221.432C587.201 223.034 587.423 224.637 587.649 226.239C587.679 226.45 587.726 226.659 587.765 226.869C587.774 226.87 587.783 226.871 587.792 226.872C587.806 226.855 587.821 226.839 587.834 226.82C588.205 226.304 588.574 225.788 588.946 225.274C588.981 225.22 588.981 225.18 588.953 225.122Z" fill="white"/>
<path d="M588.749 242.615L588.643 241.852L589.554 241.725L589.469 241.118L588.559 241.245L588.502 240.836L589.54 240.691L589.456 240.085L587.682 240.331L588.013 242.717L588.749 242.615Z" fill="white"/>
<path d="M590.758 242.336L590.675 241.736L590.875 241.708L591.329 242.256L592.115 242.147L592.109 242.148L592.111 242.142L591.555 241.475C591.797 241.292 591.91 241.012 591.862 240.668C591.785 240.116 591.35 239.822 590.742 239.906L589.691 240.052L590.023 242.438L590.758 242.336ZM590.78 240.533C590.983 240.505 591.094 240.597 591.118 240.771C591.142 240.945 591.06 241.064 590.858 241.092L590.59 241.129L590.512 240.57L590.78 240.533Z" fill="white"/>
<path d="M592.856 242.044L592.945 241.608L593.774 241.493L593.978 241.888L594.739 241.782L593.453 239.529L592.729 239.63L592.108 242.142L592.113 242.148L592.856 242.044ZM593.196 240.371L593.492 240.941L593.067 241L593.196 240.371Z" fill="white"/>
<path d="M592.114 242.147L592.11 242.142L592.108 242.148L592.114 242.147Z" fill="white"/>
<path d="M595.967 241.667C596.288 241.622 596.638 241.466 596.876 241.231L596.736 240.222L596.097 240.311L596.181 240.914C596.096 240.967 596.011 240.997 595.921 241.009C595.606 241.053 595.367 240.843 595.317 240.485C595.266 240.117 595.44 239.86 595.764 239.815C595.957 239.788 596.129 239.855 596.29 240.009L596.698 239.49C596.435 239.224 596.066 239.109 595.636 239.169C594.916 239.269 594.473 239.855 594.575 240.588C594.676 241.322 595.262 241.765 595.967 241.667Z" fill="white"/>
<path d="M597.64 238.973L596.905 239.076L597.236 241.462L597.972 241.36L597.64 238.973Z" fill="white"/>
<path d="M600.038 241.045L599.952 240.422L598.966 240.559L598.721 238.796L597.985 238.899L598.317 241.285L600.038 241.045Z" fill="white"/>
<path d="M602.056 240.765L601.972 240.158L600.88 240.31L600.837 239.996L601.76 239.868L601.679 239.289L600.756 239.417L600.717 239.137L601.768 238.991L601.684 238.385L599.909 238.631L600.241 241.017L602.056 240.765Z" fill="white"/>
<path d="M632.734 184.974L627.476 169.696C625.95 165.262 620.197 164.143 617.121 167.681L606.519 179.873C603.442 183.411 605.349 188.953 609.952 189.848L625.812 192.934C630.414 193.83 634.26 189.407 632.734 184.974Z" fill="#C82441"/>
<path d="M627.006 191.541C626.707 191.541 626.402 191.511 626.1 191.452L610.24 188.366C608.615 188.05 607.323 186.926 606.784 185.36C606.245 183.794 606.572 182.113 607.659 180.863L618.261 168.671C619.145 167.654 620.365 167.094 621.697 167.094C623.694 167.094 625.402 168.308 626.049 170.186L631.307 185.463C631.795 186.882 631.578 188.391 630.712 189.606C629.848 190.818 628.463 191.541 627.006 191.541Z" fill="white"/>
<path d="M627.007 190.031C626.806 190.031 626.597 190.01 626.386 189.97L610.529 186.885C609.44 186.673 608.573 185.919 608.212 184.87C607.851 183.82 608.07 182.693 608.798 181.855L619.4 169.663C620.002 168.971 620.796 168.605 621.697 168.605C623.04 168.605 624.188 169.419 624.621 170.679L629.879 185.955C630.206 186.906 630.061 187.918 629.482 188.73C628.901 189.545 627.976 190.031 627.007 190.031Z" fill="#C82441"/>
<path d="M626.593 184.053L626.807 182.959L624.603 180.772L624.773 179.901C624.82 179.659 624.663 179.425 624.421 179.378C624.179 179.331 623.945 179.488 623.898 179.73L623.842 180.017L621.676 177.868L621.971 176.646C622.22 175.615 622.207 174.538 621.933 173.514C621.813 173.066 621.23 172.952 620.95 173.322C620.311 174.168 619.893 175.161 619.736 176.209L619.549 177.452L616.733 178.628L616.789 178.341C616.836 178.099 616.679 177.865 616.437 177.818C616.195 177.771 615.961 177.928 615.914 178.17L615.744 179.041L612.879 180.237L612.665 181.331L619.002 181.087L618.665 183.332L616.191 184.404L616.034 185.206L618.399 185.105L618.378 185.247C618.319 185.638 618.579 186.006 618.967 186.082C619.355 186.158 619.734 185.915 619.827 185.53L619.861 185.39L622.014 186.374L622.171 185.572L620.282 183.648L620.815 181.441L626.593 184.053Z" fill="white"/>
<path d="M521.854 203.041L497.783 212.703L502.19 223.683L526.262 214.021L521.854 203.041Z" fill="#47436C"/>
<path d="M519.841 207.952L502.63 214.86L505.621 222.31L522.831 215.402L519.841 207.952Z" fill="white"/>
<path d="M557.163 210.824C555.409 206.455 550.446 204.335 546.077 206.088L482.301 231.686C477.932 233.44 475.812 238.403 477.565 242.772L481.663 252.981L561.261 221.032L557.163 210.824Z" fill="#A7A7D1"/>
<path d="M481.663 252.982L494.342 284.572C495.403 287.215 498.406 288.498 501.049 287.437L571.076 259.33C573.719 258.269 575.002 255.266 573.941 252.623L561.262 221.033L481.663 252.982Z" fill="#47436C"/>
<path d="M541.273 262.476C550.067 253.681 550.067 239.423 541.273 230.628C532.478 221.833 518.219 221.833 509.425 230.628C500.63 239.423 500.63 253.681 509.425 262.476C518.219 271.27 532.478 271.27 541.273 262.476Z" fill="#CFCEED"/>
<path d="M531.681 262.314C522.989 265.803 513.079 261.57 509.591 252.877C506.102 244.185 510.335 234.274 519.027 230.785C527.719 227.296 537.629 231.531 541.118 240.223C544.607 248.916 540.373 258.825 531.681 262.314Z" fill="#47436C"/>
<path d="M521.725 240.753C522.745 243.294 521.512 246.18 518.971 247.2C516.43 248.22 513.544 246.987 512.524 244.446C511.504 241.905 512.737 239.019 515.278 237.999C517.819 236.979 520.705 238.212 521.725 240.753Z" fill="white"/>
<path d="M519.516 251.502C520.014 252.743 519.412 254.152 518.171 254.65C516.93 255.148 515.521 254.546 515.023 253.305C514.525 252.064 515.127 250.654 516.368 250.156C517.608 249.659 519.017 250.261 519.516 251.502Z" fill="white"/>
<path d="M500.509 280.788L500.377 280.841C499.128 281.342 497.71 280.736 497.209 279.488L494.354 272.376C493.853 271.128 494.459 269.709 495.708 269.208L495.841 269.155C497.09 268.654 498.508 269.26 499.009 270.509L501.863 277.62C502.363 278.868 501.757 280.287 500.509 280.788Z" fill="#66668C"/>
<path d="M507.107 278.14L506.992 278.186C505.901 278.624 504.662 278.095 504.224 277.004L503.475 275.137C503.037 274.046 503.567 272.807 504.657 272.369L504.773 272.323C505.864 271.885 507.103 272.415 507.541 273.506L508.29 275.372C508.727 276.463 508.198 277.702 507.107 278.14Z" fill="#66668C"/>
<path d="M497.095 232.153L482.411 238.047L485.245 245.108L499.929 239.214L497.095 232.153Z" fill="white"/>
<path d="M553.264 212C552.373 209.779 549.85 208.702 547.629 209.593L542.874 211.502C539.95 212.676 538.545 216.009 539.748 218.921L540.084 219.735C541.276 222.623 542.932 225.264 544.958 227.577L557.496 222.544L553.264 212Z" fill="#CFCEED"/>
<path d="M561.509 232.542L557.496 222.544L544.958 227.577C547.377 230.338 550.326 232.628 553.668 234.285L557.546 236.207C559.923 237.385 562.497 235.004 561.509 232.542Z" fill="#66668C"/>
<path d="M542.258 182.127C565.196 162.334 577.303 138.769 569.299 129.494C561.295 120.218 536.212 128.745 513.274 148.538C490.336 168.331 478.229 191.896 486.233 201.171C494.237 210.447 519.32 201.92 542.258 182.127Z" fill="#CC8E52"/>
<path d="M548.882 137.411C548.237 136.663 547.413 136.102 546.442 135.711L536.95 132.257C537.203 132.458 537.458 132.656 537.669 132.902C542.16 138.106 535.368 151.327 522.498 162.432C511.195 172.186 498.968 177.058 493.116 174.575L494.827 179.733C494.827 179.733 495.503 181.982 496.241 182.837C501.313 188.715 517.209 183.312 531.746 170.768C546.283 158.224 553.955 143.29 548.882 137.411Z" fill="#85483C"/>
<path d="M522.499 162.432C535.368 151.327 542.16 138.105 537.67 132.902C537.459 132.657 537.204 132.458 536.951 132.257L521.652 126.689L487.565 157.839L493.118 174.575C498.969 177.058 511.196 172.186 522.499 162.432Z" fill="#CC8E52"/>
<path d="M522.684 127.533C526.068 131.455 520.949 141.418 511.251 149.787C501.553 158.156 490.948 161.761 487.563 157.839C484.179 153.917 489.297 143.954 498.995 135.585C508.695 127.216 519.3 123.611 522.684 127.533Z" fill="#E7AA5A"/>
<path d="M693.647 289.299L750.263 182.185L698.137 154.633L641.521 261.747L693.647 289.299Z" fill="white"/>
<path d="M689.753 287.241L746.37 180.127L702.031 156.692L645.415 263.806L689.753 287.241Z" fill="#C8E3FE"/>
<path d="M685.637 285.066L742.253 177.952L706.147 158.867L649.53 265.981L685.637 285.066Z" fill="white"/>
<path d="M693.462 261.619L647.704 237.434C646.506 236.801 646.048 235.317 646.681 234.119L678.661 173.614C679.294 172.416 680.778 171.959 681.976 172.592L727.734 196.777C728.932 197.41 729.389 198.894 728.756 200.092L696.777 260.597C696.144 261.794 694.66 262.252 693.462 261.619Z" fill="#C82441"/>
<path d="M693.992 178.963L687.74 175.659L653.467 240.501L659.719 243.805L693.992 178.963Z" fill="#9A1941"/>
<path d="M686.055 174.753L683.79 173.556L649.517 238.397L651.783 239.595L686.055 174.753Z" fill="#9A1941"/>
<path d="M692.656 207.545C683.189 202.542 671.417 206.173 666.413 215.639C661.409 225.106 665.041 236.878 674.507 241.882C683.974 246.886 695.746 243.254 700.75 233.788C705.754 224.321 702.123 212.549 692.656 207.545ZM701.628 226.999C701.186 224.696 700.086 222.341 698.434 220.133C698.556 217.378 698.138 214.812 697.206 212.661C700.658 216.572 702.277 221.822 701.628 226.999ZM677.921 235.423C676.907 234.887 675.95 234.297 675.051 233.668C675.545 231.819 676.258 229.789 677.152 227.675C678.366 228.421 679.622 229.139 680.888 229.808C682.154 230.477 683.454 231.111 684.755 231.694C683.512 233.623 682.236 235.356 680.987 236.806C679.962 236.417 678.936 235.959 677.921 235.423ZM681.462 228.724C680.135 228.023 678.857 227.292 677.644 226.545C678.225 225.245 678.87 223.921 679.571 222.594C680.272 221.268 681.003 219.989 681.75 218.776C683.05 219.358 684.374 220.002 685.701 220.703C687.028 221.404 688.306 222.135 689.519 222.882C688.938 224.182 688.293 225.506 687.592 226.833C686.891 228.16 686.16 229.438 685.413 230.651C684.113 230.069 682.789 229.425 681.462 228.724ZM672.872 219.053C673.408 218.039 673.998 217.082 674.627 216.183C676.476 216.677 678.506 217.39 680.62 218.284C679.874 219.498 679.156 220.754 678.487 222.02C677.818 223.286 677.184 224.586 676.601 225.887C674.671 224.644 672.939 223.368 671.489 222.119C671.878 221.093 672.336 220.067 672.872 219.053ZM689.242 214.004C690.256 214.54 691.213 215.13 692.112 215.759C691.618 217.608 690.905 219.638 690.011 221.752C688.797 221.006 687.541 220.289 686.274 219.619C685.008 218.95 683.708 218.316 682.407 217.733C683.65 215.803 684.926 214.071 686.175 212.621C687.202 213.01 688.228 213.468 689.242 214.004ZM690.562 223.54C692.492 224.783 694.224 226.059 695.674 227.308C695.285 228.334 694.827 229.36 694.291 230.374C693.755 231.388 693.165 232.345 692.536 233.244C690.687 232.75 688.657 232.037 686.543 231.143C687.289 229.929 688.006 228.673 688.675 227.407C689.346 226.14 689.98 224.84 690.562 223.54ZM696.107 226.077C694.631 224.842 692.906 223.596 691.056 222.408C691.916 220.384 692.639 218.384 693.163 216.532C694.733 217.752 696.091 219.1 697.201 220.513C697.08 222.306 696.718 224.184 696.107 226.077ZM698.272 222.014C700.183 224.983 701.013 228.134 700.468 230.931C699.831 229.707 698.649 228.344 697.106 226.944C697.673 225.284 698.064 223.627 698.272 222.014ZM693.499 215.253C693.986 213.227 694.195 211.435 694.031 210.065C696.057 212.068 697.146 215.139 697.24 218.67C696.16 217.454 694.904 216.305 693.499 215.253ZM692.425 214.485C691.599 213.927 690.729 213.403 689.815 212.92C688.901 212.437 687.978 212.013 687.052 211.645C689.681 208.852 691.374 208.254 692.083 208.629C692.792 209.004 693.252 210.74 692.425 214.485ZM685.813 211.19C684.153 210.622 682.495 210.232 680.883 210.023C683.853 208.112 687.003 207.281 689.8 207.827C688.575 208.465 687.212 209.646 685.813 211.19ZM684.945 212.188C683.71 213.664 682.464 215.389 681.276 217.239C679.252 216.379 677.252 215.656 675.4 215.132C676.62 213.562 677.968 212.204 679.381 211.094C681.174 211.215 683.052 211.578 684.945 212.188ZM674.121 214.796C672.095 214.309 670.303 214.1 668.933 214.264C670.936 212.238 674.007 211.149 677.537 211.055C676.322 212.136 675.173 213.392 674.121 214.796ZM673.353 215.87C672.795 216.695 672.271 217.566 671.788 218.479C671.305 219.393 670.882 220.316 670.514 221.242C667.721 218.614 667.123 216.92 667.498 216.211C667.872 215.503 669.608 215.043 673.353 215.87ZM670.058 222.483C669.49 224.143 669.1 225.8 668.891 227.413C666.98 224.443 666.15 221.293 666.695 218.496C667.333 219.72 668.515 221.083 670.058 222.483ZM671.056 223.35C672.532 224.585 674.257 225.831 676.107 227.018C675.247 229.042 674.524 231.043 674 232.894C672.43 231.674 671.072 230.326 669.962 228.913C670.083 227.121 670.446 225.243 671.056 223.35ZM673.664 234.174C673.177 236.2 672.968 237.992 673.132 239.362C671.106 237.358 670.017 234.288 669.923 230.757C671.004 231.973 672.26 233.122 673.664 234.174ZM674.739 234.942C675.565 235.5 676.435 236.024 677.348 236.507C678.262 236.99 679.185 237.414 680.111 237.782C677.483 240.575 675.789 241.173 675.08 240.798C674.372 240.423 673.912 238.687 674.739 234.942ZM681.351 238.237C683.011 238.805 684.669 239.195 686.281 239.404C683.311 241.315 680.161 242.146 677.364 241.6C678.588 240.962 679.952 239.781 681.351 238.237ZM682.219 237.239C683.454 235.763 684.7 234.038 685.887 232.188C687.911 233.048 689.912 233.771 691.763 234.295C690.543 235.865 689.195 237.223 687.782 238.333C685.989 238.212 684.111 237.849 682.219 237.239ZM693.043 234.631C695.069 235.118 696.861 235.327 698.231 235.163C696.228 237.189 693.157 238.278 689.627 238.372C690.841 237.291 691.991 236.035 693.043 234.631ZM693.81 233.556C694.368 232.731 694.892 231.861 695.375 230.947C695.858 230.033 696.282 229.11 696.65 228.184C699.443 230.812 700.041 232.506 699.666 233.215C699.291 233.924 697.555 234.384 693.81 233.556ZM685.867 206.668C683.564 207.109 681.209 208.21 679.001 209.862C676.246 209.74 673.68 210.158 671.529 211.09C675.44 207.637 680.69 206.018 685.867 206.668ZM665.536 222.428C665.978 224.731 667.078 227.086 668.73 229.294C668.608 232.049 669.026 234.615 669.958 236.766C666.505 232.855 664.886 227.605 665.536 222.428ZM681.297 242.759C683.6 242.318 685.955 241.217 688.163 239.565C690.918 239.687 693.484 239.269 695.635 238.337C691.723 241.79 686.474 243.409 681.297 242.759Z" fill="#EFBEBA"/>
<path d="M688.733 186.809C688.274 187.678 687.319 187.874 686.273 187.321L685.731 187.035L685.243 187.958L683.977 187.289L685.962 183.534L687.77 184.49C688.816 185.041 689.192 185.94 688.733 186.809ZM687.456 186.134C687.6 185.86 687.522 185.606 687.173 185.422L686.712 185.178L686.247 186.058L686.708 186.302C687.057 186.486 687.312 186.408 687.456 186.134Z" fill="#EFBEBA"/>
<path d="M690.626 189.964L689.199 189.21L688.601 189.731L687.314 189.051L690.94 186.164L692.185 186.822L691.842 191.444L690.533 190.752L690.626 189.964ZM690.759 188.868L690.893 187.731L690.029 188.482L690.759 188.868Z" fill="#EFBEBA"/>
<path d="M691.967 191.126L692.862 190.419C693.106 190.815 693.507 191.199 693.92 191.417C694.279 191.607 694.448 191.6 694.516 191.471C694.766 190.999 692.488 190.282 693.228 188.882C693.596 188.185 694.482 187.925 695.646 188.541C696.15 188.807 696.614 189.19 696.889 189.617L696.023 190.333C695.752 189.95 695.452 189.674 695.124 189.501C694.754 189.305 694.579 189.35 694.511 189.479C694.273 189.929 696.547 190.651 695.816 192.035C695.453 192.722 694.562 192.992 693.398 192.377C692.772 192.045 692.221 191.555 691.967 191.126Z" fill="#EFBEBA"/>
<path d="M695.491 192.988L696.386 192.281C696.629 192.677 697.031 193.061 697.444 193.279C697.804 193.469 697.972 193.462 698.04 193.333C698.29 192.861 696.012 192.145 696.752 190.744C697.121 190.047 698.006 189.787 699.17 190.402C699.674 190.668 700.138 191.051 700.413 191.478L699.547 192.194C699.276 191.811 698.976 191.535 698.649 191.362C698.279 191.166 698.104 191.211 698.036 191.34C697.798 191.79 700.072 192.512 699.341 193.896C698.978 194.583 698.087 194.853 696.923 194.237C696.295 193.908 695.745 193.417 695.491 192.988Z" fill="#EFBEBA"/>
<path d="M703.847 194.797C703.388 195.666 702.433 195.862 701.387 195.309L700.845 195.023L700.357 195.946L699.091 195.277L701.076 191.522L702.884 192.478C703.93 193.029 704.306 193.928 703.847 194.797ZM702.57 194.122C702.715 193.848 702.636 193.594 702.288 193.41L701.827 193.166L701.362 194.046L701.823 194.29C702.171 194.474 702.426 194.396 702.57 194.122Z" fill="#EFBEBA"/>
<path d="M703.919 195.425C704.52 194.288 705.852 193.935 707.075 194.582C708.298 195.228 708.757 196.528 708.156 197.665C707.555 198.802 706.223 199.155 705 198.508C703.777 197.862 703.318 196.563 703.919 195.425ZM706.88 196.99C707.189 196.405 707.001 195.853 706.534 195.606C706.067 195.359 705.505 195.515 705.196 196.099C704.887 196.684 705.075 197.236 705.542 197.483C706.008 197.731 706.571 197.575 706.88 196.99Z" fill="#EFBEBA"/>
<path d="M709.733 199.692L709.39 199.511L708.891 200.455L707.625 199.786L709.61 196.031L711.418 196.987C712.464 197.54 712.84 198.439 712.381 199.307C712.095 199.849 711.622 200.12 711.049 200.113L711.225 201.689L709.873 200.975L709.733 199.692ZM710.821 197.92L710.36 197.676L709.895 198.556L710.356 198.8C710.705 198.984 710.959 198.906 711.103 198.632C711.248 198.359 711.169 198.105 710.821 197.92Z" fill="#EFBEBA"/>
<path d="M713.848 199.527L712.748 198.946L713.267 197.964L716.732 199.795L716.213 200.777L715.113 200.196L713.647 202.969L712.381 202.3L713.848 199.527Z" fill="#EFBEBA"/>
<path d="M83.4401 49.2571L76.2261 54.4461L36.5231 41.8051L83.4401 49.2571Z" fill="white"/>
<path d="M76.2261 54.4461L75.1881 70.1471L36.5231 41.8051L76.2261 54.4461Z" fill="#C8E3FE"/>
<path d="M69.4141 59.3471L75.1881 70.1471L36.5231 41.8051L69.4141 59.3471Z" fill="#DCEBFE"/>
<path d="M36.5231 41.8051L69.4141 59.3471L58.6381 67.0991L36.5231 41.8051Z" fill="white"/>
<path d="M29.066 152.299C27.095 146.981 27.251 141.095 28.891 135.789C30.528 130.462 33.547 125.604 37.467 121.737C41.415 117.869 46.203 114.932 51.281 112.776C56.37 110.612 61.764 109.2 67.231 108.248C72.663 107.267 78.408 106.974 84.128 105.046C86.976 104.086 89.769 102.63 92.161 100.512C93.331 99.4361 94.373 98.2311 95.273 96.9281C96.165 95.6191 96.886 94.2041 97.474 92.7361C98.616 89.7891 99.146 86.5771 98.878 83.3601C98.765 81.7531 98.429 80.1431 97.893 78.6001C97.371 77.0531 96.653 75.5761 95.76 74.2221C92.235 68.7961 86.263 64.9671 79.532 64.4391L79.196 70.6631C83.779 70.7681 88.465 73.3651 91.24 77.2731C91.949 78.2401 92.522 79.2971 92.953 80.4021C93.396 81.5021 93.702 82.6641 93.84 83.8661C94.159 86.2611 93.873 88.7771 93.087 91.1231C92.679 92.2901 92.169 93.4291 91.519 94.4841C90.861 95.5321 90.095 96.5071 89.23 97.3861C87.466 99.0961 85.238 100.438 82.786 101.388C77.857 103.332 72.227 103.932 66.624 105.19C61.035 106.431 55.511 108.15 50.318 110.646C45.135 113.133 40.281 116.426 36.349 120.651C32.436 124.886 29.567 130.045 28.141 135.579C26.709 141.091 26.849 147.081 29.066 152.299Z" fill="#95D0FD"/>
<path d="M423.525 58.832H334.578C334.468 58.832 334.358 58.832 334.247 58.832C337.738 58.13 341.095 56.431 344.586 55.729C343.378 52.937 344.249 49.39 346.614 47.477C348.979 45.563 352.629 45.45 355.108 47.214C356.883 41.292 363.065 37.018 369.232 37.449C375.399 37.88 380.927 42.973 381.86 49.084C384.906 46.031 389.676 44.829 393.805 46.074C397.934 47.318 401.245 50.956 402.097 55.183C407.988 51.999 418.675 54.216 423.525 58.832Z" fill="#94CEFC"/>
<path d="M183.118 47.883H136.137C138.059 41.913 144.247 37.209 150.491 36.617C156.735 36.025 163.178 39.445 166.188 44.948C171.174 40.991 179.078 42.963 183.118 47.883Z" fill="#94CEFC"/>
<path d="M462.91 47.362L471.449 49.587L503.701 23.667L462.91 47.362Z" fill="white"/>
<path d="M471.449 49.587L478.029 63.758L503.701 23.667L471.449 49.587Z" fill="#C8E3FE"/>
<path d="M479.512 51.688L478.029 63.758L503.701 23.667L479.512 51.688Z" fill="#DCEBFE"/>
<path d="M503.701 23.667L479.512 51.688L492.269 55.012L503.701 23.667Z" fill="white"/>
<path d="M456.372 142.464C450.968 136.676 447.129 129.517 445.259 121.922C443.393 114.322 443.59 106.296 445.687 98.8549C447.757 91.3759 451.879 84.6889 457.138 79.0249C462.368 73.3099 467.502 69.2539 473.715 64.3749L471.959 60.1949C465.968 65.3659 459.864 70.6409 454.667 76.8689C452.077 79.9769 449.718 83.3169 447.828 86.9269C445.894 90.5149 444.506 94.3759 443.57 98.3119C441.734 106.2 441.935 114.519 444.204 122.207C446.475 129.889 450.707 136.931 456.372 142.464Z" fill="#95D0FD"/>
<path d="M48.511 250.298L57.199 256.542L104.994 241.298L48.511 250.298Z" fill="white"/>
<path d="M57.199 256.542L58.458 275.444L104.994 241.298L57.199 256.542Z" fill="#C8E3FE"/>
<path d="M65.404 262.437L58.458 275.444L104.994 241.298L65.404 262.437Z" fill="#DCEBFE"/>
<path d="M104.994 241.298L65.4039 262.437L78.3829 271.765L104.994 241.298Z" fill="white"/>
<mask id="mask0_245_4067" style="mask-type:luminance" maskUnits="userSpaceOnUse" x="0" y="0" width="820" height="312">
<path d="M820 0H0V312H820V0Z" fill="white"/>
</mask>
<g mask="url(#mask0_245_4067)">
<path d="M851.222 59.272H767.815C773.043 55.082 780.503 53.87 786.789 56.187C786.198 52.73 788.588 49.022 791.981 48.133C795.374 47.244 799.275 49.304 800.455 52.607C799.524 48.495 800.499 43.913 803.311 40.77C806.123 37.628 810.787 36.153 814.8 37.448C818.813 38.743 821.8 42.917 821.401 47.115C823.494 44.86 828.481 44.501 830.917 46.38C833.353 48.258 834.023 52.066 832.374 54.663C838.734 53.586 845.722 55.903 851.222 59.272Z" fill="#94CEFC"/>
</g>
<mask id="mask1_245_4067" style="mask-type:luminance" maskUnits="userSpaceOnUse" x="0" y="0" width="820" height="312">
<path d="M820 0H0V312H820V0Z" fill="white"/>
</mask>
<g mask="url(#mask1_245_4067)">
<path d="M-57.15 213.673H52.561C52.697 213.673 52.833 213.673 52.969 213.673C48.663 212.807 44.522 210.711 40.216 209.846C41.706 206.403 40.631 202.028 37.715 199.667C34.798 197.307 30.295 197.167 27.238 199.343C25.049 192.039 17.424 186.766 9.81698 187.298C2.20998 187.83 -4.60702 194.112 -5.75902 201.65C-9.51602 197.885 -15.399 196.402 -20.492 197.937C-25.585 199.472 -29.669 203.959 -30.72 209.173C-37.985 205.244 -51.167 207.979 -57.15 213.673Z" fill="#94CEFC"/>
</g>
<mask id="mask2_245_4067" style="mask-type:luminance" maskUnits="userSpaceOnUse" x="0" y="0" width="820" height="312">
<path d="M820 0H0V312H820V0Z" fill="white"/>
</mask>
<g mask="url(#mask2_245_4067)">
<path d="M813.487 143.531L814.083 151.314L786.453 175.318L813.487 143.531Z" fill="white"/>
<path d="M814.083 151.314L825.385 159.268L786.453 175.318L814.083 151.314Z" fill="#C8E3FE"/>
<path d="M814.645 158.663L825.385 159.268L786.453 175.318L814.645 158.663Z" fill="#DCEBFE"/>
<path d="M786.453 175.318L814.645 158.663L815.535 170.29L786.453 175.318Z" fill="white"/>
</g>
<mask id="mask3_245_4067" style="mask-type:luminance" maskUnits="userSpaceOnUse" x="0" y="0" width="820" height="312">
<path d="M820 0H0V312H820V0Z" fill="white"/>
</mask>
<g mask="url(#mask3_245_4067)">
<path d="M51.229 273.007C47.685 274.57 44.443 276.94 41.859 279.941C39.31 282.956 37.241 286.469 36.096 290.29C33.614 297.886 34.734 306.486 39.471 313.053C44.019 319.68 51.511 324.404 59.547 325.36C63.552 325.822 67.703 325.288 71.637 324.083C75.585 322.865 79.344 320.971 82.889 318.721C90.012 314.215 96.0939 308.168 102.422 302.362C105.59 299.457 108.834 296.598 112.31 294.013C115.786 291.44 119.505 289.131 123.478 287.387C131.408 283.875 140.08 282.172 148.697 282.333C157.31 282.54 165.871 284.584 173.525 288.466C165.778 284.771 157.217 282.956 148.692 282.958C140.163 283.005 131.669 284.901 124.003 288.521C120.161 290.321 116.605 292.652 113.258 295.256C109.915 297.872 106.786 300.766 103.707 303.729C97.562 309.641 91.555 315.938 84.26 320.814C80.629 323.243 76.72 325.344 72.5 326.761C68.283 328.162 63.77 328.878 59.232 328.47C50.177 327.602 41.758 322.585 36.417 315.228C35.03 313.418 33.969 311.377 32.997 309.305C32.156 307.176 31.39 304.981 31.063 302.692C30.251 298.137 30.655 293.443 31.908 289.036C33.129 284.605 35.389 280.505 38.281 276.92C41.206 273.354 46.666 269.41 50.921 267.42L51.229 273.007Z" fill="#95D0FD"/>
</g>
<path d="M167.556 184.88C166.762 187.175 165.953 189.382 165.129 191.5C164.305 193.619 163.613 195.223 163.054 196.311C162.525 197.43 162.054 198.195 161.642 198.607C161.23 199.019 160.803 199.298 160.362 199.445C159.95 199.592 159.523 199.651 159.082 199.622C158.67 199.592 158.243 199.563 157.802 199.534C155.33 199.151 154.565 197.371 155.507 194.193C156.125 191.662 156.625 189.603 157.007 188.014C157.39 186.395 157.699 185.071 157.934 184.041C158.199 182.982 158.42 182.114 158.596 181.437C158.773 180.731 158.964 180.039 159.17 179.362C159.376 178.686 159.626 177.921 159.921 177.067C160.244 176.214 160.656 175.081 161.156 173.669C160.038 173.816 159.038 173.698 158.155 173.316C156.86 172.757 156.331 171.55 156.566 169.696C156.684 168.843 157.14 168.048 157.934 167.313C158.346 166.93 158.832 166.518 159.391 166.077C160.538 165.165 162.819 164.194 166.232 163.164C169.763 162.105 172.794 161.604 175.325 161.663C176.002 161.545 176.693 161.634 177.399 161.928C178.135 162.193 178.723 162.561 179.165 163.031C179.606 163.502 179.827 164.017 179.827 164.576C179.856 165.135 179.503 165.636 178.767 166.077C178.414 166.312 178.164 166.71 178.017 167.269C177.87 167.798 177.708 168.372 177.532 168.99C177.355 169.579 177.09 170.123 176.737 170.623C176.413 171.123 175.884 171.418 175.148 171.506C174.766 171.712 174.221 171.859 173.515 171.947C172.838 172.036 172.382 172.109 172.147 172.168C171.941 172.197 171.823 172.271 171.794 172.389C171.264 173.948 170.631 175.846 169.896 178.082C169.16 180.289 168.38 182.555 167.556 184.88ZM161.598 173.183C161.539 173.183 161.51 173.198 161.51 173.227C161.51 173.227 161.539 173.227 161.598 173.227V173.183ZM178.942 177.906C179.354 176.847 179.928 176.052 180.663 175.522C181.428 174.963 182.149 174.625 182.826 174.507C183.532 174.36 184.106 174.434 184.547 174.728C185.018 175.022 185.18 175.478 185.033 176.096C185.592 175.537 186.401 175.022 187.461 174.551C188.52 174.081 189.359 173.757 189.976 173.58C190.594 173.404 191.124 173.316 191.565 173.316C192.536 173.374 192.816 173.904 192.404 174.905C192.904 174.993 193.272 175.317 193.508 175.876C193.743 176.435 193.772 177.053 193.596 177.729C193.419 178.406 193.022 179.068 192.404 179.716C191.786 180.363 190.948 180.804 189.888 181.04C188.858 181.275 187.99 181.82 187.284 182.673C186.607 183.497 186.004 184.527 185.474 185.763C184.592 187.852 183.797 190.809 183.091 194.634C182.856 196.017 181.899 197.18 180.222 198.121C178.633 199.033 177.176 199.298 175.852 198.916C174.352 198.504 173.69 197.4 173.866 195.605C173.925 194.34 174.307 192.663 175.014 190.574C175.72 188.455 176.264 186.866 176.647 185.807C177.029 184.718 177.294 183.894 177.441 183.335L178.942 177.906ZM197.721 177.067C198.103 176.096 199.016 175.434 200.458 175.081C201.811 174.728 203.076 174.772 204.253 175.214C205.46 175.684 206.004 176.449 205.886 177.509C205.563 178.539 205.151 179.804 204.651 181.305C204.18 182.776 203.724 184.291 203.282 185.851C202.105 189.853 201.429 192.677 201.252 194.325C200.811 196.974 200.075 198.401 199.045 198.607C198.751 198.666 198.471 198.71 198.206 198.739C197.559 198.769 197.147 198.945 196.971 199.269C196.794 199.592 196.5 199.828 196.088 199.975C195.676 200.151 195.22 200.225 194.72 200.196C194.249 200.196 193.763 200.078 193.263 199.843C192.763 199.637 192.336 199.328 191.983 198.916C191.159 197.915 190.997 196.576 191.498 194.899C191.968 191.692 193.16 187.616 195.073 182.673C195.985 180.231 196.868 178.362 197.721 177.067ZM206.063 170.447C204.621 170.741 203.444 170.653 202.532 170.182C201.649 169.711 201.134 169.152 200.987 168.505C200.84 167.828 201.046 167.136 201.605 166.43C202.252 165.547 203.224 164.974 204.518 164.709C205.107 164.65 205.533 164.62 205.798 164.62C206.063 164.62 206.387 164.679 206.769 164.797C207.74 164.885 208.373 165.312 208.667 166.077C209.079 166.724 209.109 167.46 208.755 168.284C208.432 169.108 207.534 169.829 206.063 170.447ZM216.713 178.127C218.184 175.92 220.229 174.596 222.848 174.154C223.702 174.007 224.746 173.904 225.982 173.845C227.247 173.786 228.321 174.066 229.204 174.684C230.116 175.302 230.793 176.096 231.234 177.067C232 178.803 232.117 180.937 231.588 183.467C231.293 184.85 230.94 186.38 230.528 188.058C230.116 189.706 229.498 191.339 228.674 192.957C227.851 194.575 226.777 196.091 225.452 197.503C224.128 198.916 222.407 200.034 220.288 200.858C219.023 201.358 217.905 201.534 216.934 201.387C215.992 201.27 215.286 201.078 214.815 200.814C214.344 200.549 214.021 200.166 213.844 199.666C213.256 201.343 212.697 203.035 212.167 204.742C211.667 206.478 210.99 208.126 210.137 209.685C209.548 210.068 208.827 210.347 207.974 210.524C207.12 210.73 206.282 210.686 205.458 210.392C204.634 210.127 204.045 209.626 203.692 208.891C203.31 208.185 203.119 207.405 203.119 206.552C203.119 205.404 203.398 204.006 203.957 202.358C204.781 199.916 205.458 198.033 205.988 196.709C206.488 195.385 206.811 194.531 206.959 194.149C207.106 193.737 207.253 193.31 207.4 192.869C208.047 191.162 208.518 189.779 208.812 188.72C209.136 187.631 209.43 186.689 209.695 185.895V185.851C209.989 184.556 210.445 183.188 211.063 181.746C211.711 180.275 212.152 179.377 212.388 179.054C212.888 178.553 213.403 178.244 213.932 178.127C214.462 178.009 215.065 177.935 215.742 177.906H215.874L216.713 178.127ZM220.068 185.498C219.714 186.116 219.126 186.689 218.302 187.219L217.905 188.146C217.611 188.911 217.331 189.691 217.066 190.485C216.801 191.28 216.507 192.06 216.183 192.825C216.478 193.119 216.698 193.398 216.845 193.663C218.493 192.221 219.994 190.323 221.348 187.969C221.877 186.998 222.216 186.027 222.363 185.056C222.539 184.085 222.583 183.467 222.495 183.203C222.407 182.938 222.26 182.805 222.054 182.805C221.877 182.805 221.686 182.864 221.48 182.982C221.303 183.07 221.156 183.173 221.039 183.291C220.95 183.379 220.965 183.379 221.083 183.291C220.759 183.673 220.524 184.012 220.377 184.306C220.229 184.571 220.126 184.968 220.068 185.498ZM253.101 198.739C251.6 198.798 250.217 198.607 248.952 198.165C247.716 197.753 246.701 197.18 245.907 196.444C245.142 195.708 244.656 194.855 244.45 193.884C244.244 192.883 244.421 191.868 244.98 190.838C245.745 189.603 247.275 189.235 249.57 189.735C251.306 190.088 252.498 190.279 253.145 190.309C253.822 190.338 254.396 190.25 254.867 190.044C257.015 189.338 258.221 188.573 258.486 187.749C258.662 187.131 258.28 186.41 257.338 185.586C256.956 185.233 256.529 184.88 256.058 184.527C255.587 184.174 255.19 183.82 254.867 183.467C253.395 182.379 252.233 181.128 251.38 179.716C250.556 178.274 250.217 176.714 250.364 175.037C250.512 173.36 250.791 171.977 251.203 170.888C251.615 169.77 252.13 168.784 252.748 167.931C253.837 166.43 255.249 165.209 256.985 164.267C258.986 163.237 260.59 162.575 261.796 162.281C264.18 161.751 266.593 161.707 269.035 162.149C269.859 162.296 270.565 162.575 271.153 162.987C271.742 163.399 272.331 163.826 272.919 164.267C273.949 165.297 274.199 166.342 273.669 167.401C273.463 167.872 273.14 168.254 272.698 168.549C272.257 168.843 271.786 169.005 271.286 169.034C271.345 169.829 271.198 170.417 270.845 170.8C270.168 171.477 268.991 171.918 267.313 172.124C264.901 171.947 263.268 172.08 262.414 172.521C261.414 173.051 261.046 174.198 261.311 175.964C261.37 176.346 261.605 176.744 262.017 177.156C262.458 177.568 262.959 178.009 263.518 178.48C264.106 178.951 264.709 179.48 265.327 180.069C265.975 180.657 266.534 181.334 267.005 182.099C268.652 184.806 268.52 187.969 266.607 191.589C265.195 194.296 262.782 196.326 259.369 197.68C257.603 198.386 255.514 198.739 253.101 198.739ZM280.765 178.127C282.236 175.92 284.281 174.596 286.9 174.154C287.753 174.007 288.798 173.904 290.034 173.845C291.299 173.786 292.373 174.066 293.256 174.684C294.168 175.302 294.845 176.096 295.286 177.067C296.051 178.803 296.169 180.937 295.639 183.467C295.345 184.85 294.992 186.38 294.58 188.058C294.168 189.706 293.55 191.339 292.726 192.957C291.902 194.575 290.828 196.091 289.504 197.503C288.18 198.916 286.459 200.034 284.34 200.858C283.075 201.358 281.957 201.534 280.986 201.387C280.044 201.27 279.338 201.078 278.867 200.814C278.396 200.549 278.072 200.166 277.896 199.666C277.307 201.343 276.748 203.035 276.219 204.742C275.718 206.478 275.042 208.126 274.188 209.685C273.6 210.068 272.879 210.347 272.026 210.524C271.172 210.73 270.334 210.686 269.51 210.392C268.686 210.127 268.097 209.626 267.744 208.891C267.362 208.185 267.17 207.405 267.17 206.552C267.17 205.404 267.45 204.006 268.009 202.358C268.833 199.916 269.51 198.033 270.039 196.709C270.54 195.385 270.863 194.531 271.01 194.149C271.158 193.737 271.305 193.31 271.452 192.869C272.099 191.162 272.57 189.779 272.864 188.72C273.188 187.631 273.482 186.689 273.747 185.895V185.851C274.041 184.556 274.497 183.188 275.115 181.746C275.763 180.275 276.204 179.377 276.439 179.054C276.94 178.553 277.455 178.244 277.984 178.127C278.514 178.009 279.117 177.935 279.794 177.906H279.926L280.765 178.127ZM284.119 185.498C283.766 186.116 283.178 186.689 282.354 187.219L281.957 188.146C281.662 188.911 281.383 189.691 281.118 190.485C280.853 191.28 280.559 192.06 280.235 192.825C280.529 193.119 280.75 193.398 280.897 193.663C282.545 192.221 284.046 190.323 285.399 187.969C285.929 186.998 286.267 186.027 286.415 185.056C286.591 184.085 286.635 183.467 286.547 183.203C286.459 182.938 286.312 182.805 286.106 182.805C285.929 182.805 285.738 182.864 285.532 182.982C285.355 183.07 285.208 183.173 285.09 183.291C285.002 183.379 285.017 183.379 285.135 183.291C284.811 183.673 284.575 184.012 284.428 184.306C284.281 184.571 284.178 184.968 284.119 185.498ZM311.48 189.647C310.921 189.911 310.377 190.117 309.847 190.265C309.317 190.412 308.699 190.559 307.993 190.706C306.139 191.088 304.801 191.309 303.977 191.368C304.065 191.662 304.506 192.015 305.301 192.427C305.83 192.516 306.404 192.442 307.022 192.207C307.67 191.942 308.332 191.706 309.008 191.5C309.715 191.265 310.391 191.133 311.039 191.103C311.716 191.074 312.348 191.324 312.937 191.854C313.172 192.383 313.363 192.692 313.51 192.78C313.658 192.869 313.79 192.913 313.908 192.913C314.025 192.913 314.158 192.957 314.305 193.045C314.452 193.134 314.658 193.472 314.923 194.06C315.217 194.649 315.144 195.208 314.702 195.738C314.29 196.267 313.643 196.723 312.76 197.106C311.877 197.489 310.847 197.797 309.67 198.033C308.493 198.268 307.316 198.43 306.139 198.518C303.491 198.724 301.475 198.518 300.093 197.9C298.092 197.224 296.797 195.885 296.208 193.884C295.443 191.236 295.87 188.146 297.488 184.615C298.224 182.967 299.386 181.202 300.975 179.318C302.358 177.671 303.903 176.479 305.61 175.743C307.581 174.89 309.641 174.493 311.789 174.551C314.084 174.61 315.673 175.611 316.556 177.553C316.997 178.583 317.086 180.025 316.821 181.878C316.35 184.291 315.732 185.998 314.967 186.998C314.202 187.969 313.04 188.852 311.48 189.647ZM308.92 182.673C307.361 182.349 306.139 183.232 305.257 185.321C304.992 185.88 304.786 186.469 304.639 187.087C305.639 187.204 306.698 186.645 307.817 185.409C308.229 184.909 308.538 184.409 308.744 183.909C308.95 183.379 309.008 182.967 308.92 182.673ZM335.466 174.507C336.613 174.654 337.378 175.066 337.761 175.743C338.173 176.391 338.335 177.097 338.246 177.862C338.158 178.597 337.879 179.274 337.408 179.892C336.966 180.481 336.466 180.79 335.907 180.819C335.701 181.437 335.377 181.864 334.936 182.099C334.495 182.334 334.009 182.496 333.479 182.585C332.95 182.673 332.391 182.776 331.802 182.894C331.243 182.982 330.713 183.232 330.213 183.644C329.713 184.056 329.286 184.468 328.933 184.88C328.61 185.262 328.345 185.645 328.139 186.027C327.786 186.675 327.477 187.469 327.212 188.411C327.153 189.058 327.462 189.661 328.139 190.22C328.933 190.838 329.801 191.118 330.743 191.059C331.685 190.971 332.435 191.015 332.994 191.191C333.582 191.339 334.024 191.559 334.318 191.854C334.965 192.53 334.907 193.31 334.142 194.193C332.67 196.547 330.199 197.945 326.726 198.386C325.696 198.533 324.667 198.563 323.637 198.474C322.607 198.415 321.606 198.033 320.635 197.327C319.664 196.62 318.899 195.664 318.34 194.458C317.104 191.692 317.207 188.47 318.649 184.791C320.032 181.349 322.107 178.7 324.873 176.847C327.903 174.787 331.434 174.007 335.466 174.507ZM342.851 177.067C343.233 176.096 344.145 175.434 345.587 175.081C346.941 174.728 348.206 174.772 349.383 175.214C350.589 175.684 351.134 176.449 351.016 177.509C350.692 178.539 350.28 179.804 349.78 181.305C349.309 182.776 348.853 184.291 348.412 185.851C347.235 189.853 346.558 192.677 346.382 194.325C345.94 196.974 345.205 198.401 344.175 198.607C343.88 198.666 343.601 198.71 343.336 198.739C342.689 198.769 342.277 198.945 342.1 199.269C341.924 199.592 341.629 199.828 341.217 199.975C340.805 200.151 340.349 200.225 339.849 200.196C339.378 200.196 338.893 200.078 338.393 199.843C337.892 199.637 337.466 199.328 337.113 198.916C336.289 197.915 336.127 196.576 336.627 194.899C337.098 191.692 338.29 187.616 340.202 182.673C341.114 180.231 341.997 178.362 342.851 177.067ZM351.193 170.447C349.751 170.741 348.574 170.653 347.662 170.182C346.779 169.711 346.264 169.152 346.117 168.505C345.97 167.828 346.176 167.136 346.735 166.43C347.382 165.547 348.353 164.974 349.648 164.709C350.236 164.65 350.663 164.62 350.928 164.62C351.193 164.62 351.516 164.679 351.899 164.797C352.87 164.885 353.502 165.312 353.797 166.077C354.209 166.724 354.238 167.46 353.885 168.284C353.561 169.108 352.664 169.829 351.193 170.447ZM371.421 177.244L371.597 177.288C371.656 177.288 371.685 177.303 371.685 177.332C372.45 177.038 373.083 177.259 373.583 177.994C373.907 178.494 374.157 179.26 374.334 180.289C374.393 181.702 374.245 183.659 373.892 186.16C373.215 191.221 372.848 194.237 372.789 195.208C372.848 196.238 372.215 196.944 370.891 197.327C369.743 197.68 368.596 197.665 367.448 197.283C366.242 196.871 365.741 196.238 365.947 195.385C365.712 195.826 365.477 196.135 365.241 196.311C365.006 196.517 364.535 196.782 363.829 197.106C363.152 197.459 362.181 197.739 360.916 197.945C359.65 198.18 358.385 198.239 357.12 198.121C355.855 198.033 354.692 197.724 353.633 197.194C352.603 196.694 351.912 195.9 351.558 194.811C350.882 192.692 350.97 190 351.823 186.734C352.412 184.585 353.471 182.688 355.001 181.04C356.767 179.157 358.768 177.597 361.004 176.361C362.681 175.449 364.3 174.905 365.859 174.728C366.389 174.669 366.845 174.684 367.227 174.772C367.639 174.86 368.066 174.949 368.507 175.037C368.978 175.125 369.42 175.258 369.832 175.434C370.891 175.876 371.421 176.479 371.421 177.244ZM363.255 188.94C363.461 188.528 363.623 188.014 363.741 187.396C363.888 186.778 364.079 186.101 364.314 185.365C361.931 186.336 360.107 187.528 358.841 188.94C357.458 190.5 357.546 191.574 359.106 192.163C360.46 192.516 361.445 192.295 362.063 191.5C362.328 191.147 362.564 190.706 362.769 190.176C362.975 189.647 363.226 189.102 363.52 188.543C363.432 188.69 363.343 188.823 363.255 188.94ZM383.52 194.458C383.344 195.076 383.138 195.62 382.902 196.091C382.667 196.562 382.314 197.003 381.843 197.415C381.372 197.827 380.813 198.209 380.166 198.563C379.518 198.945 378.9 199.21 378.312 199.357C376.958 199.651 376.252 199.254 376.193 198.165C376.105 197.871 375.914 197.694 375.62 197.636C375.355 197.606 375.105 197.533 374.869 197.415C374.251 197.15 374.075 196.429 374.34 195.252C374.81 193.634 375.325 191.677 375.884 189.382C376.443 187.057 377.164 184.512 378.047 181.746C380.136 175.037 382.726 168.99 385.815 163.605C386.021 163.34 386.257 163.002 386.522 162.59C386.786 162.149 387.125 161.751 387.537 161.398C388.567 160.457 389.832 160.236 391.333 160.736C391.303 161.119 391.391 161.472 391.597 161.796C391.803 162.09 392.039 162.399 392.304 162.722C392.98 163.488 393.289 164.179 393.231 164.797C390.111 172.183 387.301 180.437 384.8 189.558C384.506 190.618 384.271 191.545 384.094 192.339C383.917 193.134 383.726 193.84 383.52 194.458Z" fill="white"/>
<path d="M142.865 127.311C145.866 118.277 147.867 113.76 148.867 113.76C148.985 113.76 149.118 113.775 149.265 113.804C149.735 113.834 150.265 113.643 150.854 113.231C151.619 112.583 152.501 112.083 153.502 111.73C154.532 111.377 155.532 111.244 156.503 111.333C158.769 111.539 160.196 112.73 160.785 114.908V115.04C160.638 115.452 160.49 115.791 160.343 116.055H160.52C159.784 116.968 159.078 118.159 158.401 119.631C157.724 121.072 157.21 122.205 156.856 123.029C156.503 123.824 156.003 124.839 155.356 126.075C154.708 127.311 153.958 128.826 153.105 130.621C152.281 132.416 151.413 134.196 150.501 135.962C148.323 140.199 146.16 143.524 144.012 145.937C142.924 147.261 141.452 147.908 139.598 147.879C138.804 147.85 138.039 147.644 137.303 147.261C136.568 146.879 135.994 146.29 135.582 145.496L134.655 142.715C134.272 143.038 133.831 143.45 133.331 143.951C132.831 144.451 132.301 144.966 131.742 145.496C130.447 146.731 129.447 147.379 128.741 147.438C128.034 147.496 127.431 147.496 126.931 147.438C126.431 147.408 125.96 147.305 125.518 147.129C124.518 146.746 123.871 146.01 123.576 144.922C123.076 139.89 123.326 133.461 124.327 125.633C124.592 123.721 124.827 121.838 125.033 119.984C125.533 117.365 126.475 115.482 127.858 114.334C129.035 113.334 130.182 113.039 131.301 113.451C131.801 113.628 132.183 113.922 132.448 114.334C132.713 114.746 132.801 115.246 132.713 115.835C132.772 117.63 132.757 118.969 132.669 119.851C132.551 121.352 132.507 122.455 132.536 123.162C132.566 123.868 132.551 124.456 132.492 124.927C132.463 125.369 132.433 125.795 132.404 126.207C132.404 126.59 132.419 126.913 132.448 127.178C132.507 127.414 132.625 127.458 132.801 127.311C133.478 125.869 134.052 124.824 134.523 124.177C134.993 123.529 135.494 122.853 136.023 122.147C136.847 121.411 137.568 121.131 138.186 121.308C138.51 121.367 138.848 121.484 139.201 121.661C139.554 121.808 140.025 121.941 140.614 122.058C140.996 122.382 141.246 122.735 141.364 123.118C141.452 123.206 141.541 123.294 141.629 123.382C141.717 123.441 141.776 123.529 141.805 123.647C141.864 123.735 141.938 123.956 142.026 124.309C142.144 124.662 142.261 125.045 142.379 125.457C142.497 125.839 142.6 126.222 142.688 126.604C142.776 126.958 142.835 127.193 142.865 127.311ZM143.924 145.804C143.924 145.863 143.924 145.878 143.924 145.849C143.953 145.79 143.968 145.731 143.968 145.672L143.924 145.804ZM170.867 139.404C170.308 139.669 169.764 139.875 169.234 140.022C168.705 140.17 168.087 140.317 167.381 140.464C165.527 140.846 164.188 141.067 163.364 141.126C163.452 141.42 163.894 141.773 164.688 142.185C165.218 142.273 165.792 142.2 166.41 141.964C167.057 141.7 167.719 141.464 168.396 141.258C169.102 141.023 169.779 140.89 170.426 140.861C171.103 140.832 171.736 141.082 172.324 141.611C172.559 142.141 172.751 142.45 172.898 142.538C173.045 142.627 173.177 142.671 173.295 142.671C173.413 142.671 173.545 142.715 173.692 142.803C173.839 142.891 174.045 143.23 174.31 143.818C174.604 144.407 174.531 144.966 174.09 145.496C173.678 146.025 173.03 146.481 172.147 146.864C171.265 147.246 170.235 147.555 169.058 147.791C167.881 148.026 166.704 148.188 165.527 148.276C162.878 148.482 160.863 148.276 159.48 147.658C157.479 146.981 156.184 145.643 155.596 143.642C154.831 140.993 155.257 137.904 156.876 134.373C157.611 132.725 158.774 130.959 160.363 129.076C161.746 127.428 163.29 126.237 164.997 125.501C166.969 124.648 169.028 124.25 171.176 124.309C173.472 124.368 175.061 125.369 175.943 127.311C176.385 128.341 176.473 129.782 176.208 131.636C175.737 134.049 175.119 135.756 174.354 136.756C173.589 137.727 172.427 138.61 170.867 139.404ZM168.307 132.431C166.748 132.107 165.527 132.99 164.644 135.079C164.379 135.638 164.173 136.227 164.026 136.844C165.027 136.962 166.086 136.403 167.204 135.167C167.616 134.667 167.925 134.167 168.131 133.667C168.337 133.137 168.396 132.725 168.307 132.431ZM207.853 113.716C208.147 114.511 208.309 115.04 208.338 115.305C208.397 115.864 208.191 116.335 207.72 116.718C207.72 116.747 207.691 116.791 207.632 116.85C207.897 118.233 207.956 119.528 207.809 120.734C207.661 121.941 207.47 123.103 207.235 124.221C208.824 121.514 210.089 119.528 211.031 118.262C212.973 115.644 214.782 113.775 216.46 112.657C217.019 112.333 217.695 112.098 218.49 111.951C219.314 111.774 220.094 111.745 220.829 111.862C221.565 111.98 222.168 112.274 222.639 112.745C223.139 113.216 223.36 113.922 223.301 114.864C222.477 120.602 221.594 125.957 220.653 130.93C219.711 135.873 218.49 140.596 216.989 145.098V145.187H216.945C216.592 146.246 215.709 146.996 214.297 147.438C212.914 147.85 211.678 147.879 210.589 147.526C209.265 147.143 208.662 146.437 208.78 145.407L208.824 144.392V144.304C208.941 143.598 209 143.127 209 142.891C209.03 142.627 209.059 142.435 209.089 142.318C209.147 141.553 209.265 140.846 209.442 140.199C209.648 139.522 209.795 138.978 209.883 138.566C209.971 138.154 210.06 137.771 210.148 137.418C210.236 137.036 210.295 136.741 210.324 136.535C209.206 138.066 208.412 138.993 207.941 139.316C206.764 140.14 205.396 140.523 203.836 140.464C202.865 140.405 202.306 140.184 202.159 139.802C201.865 138.978 201.659 138.492 201.541 138.345C201.364 138.11 201.217 137.713 201.1 137.153C200.335 140.537 199.584 142.936 198.849 144.348C198.554 144.907 198.26 145.407 197.966 145.849C197.554 146.82 196.612 147.496 195.141 147.879C193.758 148.261 192.434 148.232 191.169 147.791C189.874 147.379 189.256 146.643 189.315 145.584C189.374 144.524 189.594 143.2 189.977 141.611C190.33 139.993 190.757 138.286 191.257 136.491C192.758 130.812 193.817 127.119 194.435 125.413C195.082 123.706 195.626 122.367 196.068 121.396C197.127 119.13 198.069 117.483 198.893 116.453C199.805 114.599 201.32 113.481 203.439 113.098C205.116 112.775 206.587 112.981 207.853 113.716ZM241.239 127.002L241.416 127.046C241.474 127.046 241.504 127.061 241.504 127.09C242.269 126.796 242.901 127.016 243.402 127.752C243.725 128.252 243.976 129.017 244.152 130.047C244.211 131.46 244.064 133.416 243.711 135.918C243.034 140.979 242.666 143.995 242.607 144.966C242.666 145.996 242.033 146.702 240.709 147.084C239.562 147.438 238.414 147.423 237.267 147.04C236.06 146.628 235.56 145.996 235.766 145.142C235.53 145.584 235.295 145.893 235.06 146.069C234.824 146.275 234.353 146.54 233.647 146.864C232.97 147.217 231.999 147.496 230.734 147.702C229.469 147.938 228.204 147.997 226.938 147.879C225.673 147.791 224.511 147.482 223.451 146.952C222.421 146.452 221.73 145.657 221.377 144.569C220.7 142.45 220.788 139.758 221.642 136.491C222.23 134.343 223.29 132.445 224.82 130.798C226.585 128.914 228.586 127.355 230.822 126.119C232.5 125.207 234.118 124.662 235.678 124.486C236.207 124.427 236.663 124.442 237.046 124.53C237.458 124.618 237.884 124.707 238.326 124.795C238.797 124.883 239.238 125.015 239.65 125.192C240.709 125.633 241.239 126.237 241.239 127.002ZM233.073 138.698C233.279 138.286 233.441 137.771 233.559 137.153C233.706 136.535 233.897 135.859 234.133 135.123C231.749 136.094 229.925 137.286 228.66 138.698C227.277 140.258 227.365 141.332 228.924 141.92C230.278 142.273 231.264 142.053 231.882 141.258C232.147 140.905 232.382 140.464 232.588 139.934C232.794 139.404 233.044 138.86 233.338 138.301C233.25 138.448 233.162 138.581 233.073 138.698ZM253.383 111.289C254.03 110.494 254.81 110.053 255.722 109.964C256.634 109.876 257.517 110.023 258.37 110.406C259.224 110.759 259.945 111.318 260.533 112.083C261.151 112.819 261.489 113.643 261.548 114.555L261.151 115.835C261.475 116.217 261.754 116.526 261.99 116.762C262.255 116.997 262.402 117.365 262.431 117.865C262.608 118.277 261.872 119.91 260.224 122.764C259.547 123.941 258.826 125.177 258.061 126.472C257.326 127.737 256.723 128.87 256.252 129.871C256.605 129.782 256.958 129.709 257.311 129.65C257.664 129.591 258.017 129.518 258.37 129.429C260.548 128.87 262.019 128.591 262.784 128.591C263.549 128.561 264.182 128.635 264.682 128.811C266.036 129.341 266.742 130.165 266.801 131.283C266.389 132.254 264.844 133.608 262.166 135.344C261.548 135.726 261.048 136.05 260.666 136.315L256.826 139.051C256.62 139.375 256.472 139.684 256.384 139.978V140.022C256.443 140.17 256.811 140.376 257.488 140.64C258.194 140.905 258.797 141.141 259.297 141.347C260.474 141.876 261.519 142.597 262.431 143.509C262.725 143.833 262.917 144.318 263.005 144.966C263.093 145.584 262.99 146.158 262.696 146.687C262.431 147.217 261.946 147.599 261.239 147.835C260.533 148.07 259.547 147.967 258.282 147.526C256.428 146.702 254.236 144.863 251.706 142.009C251.411 143.038 251.117 144.054 250.823 145.054C250.558 146.025 250.264 147.026 249.94 148.056C249.499 149.056 248.469 149.527 246.85 149.468C246.203 149.468 245.614 149.336 245.085 149.071C244.585 148.806 244.29 148.453 244.202 148.011C243.967 147.364 243.849 146.879 243.849 146.555C243.849 146.261 243.923 145.907 244.07 145.496C244.746 143.789 245.173 142.435 245.35 141.435C245.526 140.405 245.644 139.802 245.703 139.625C244.879 139.095 244.393 138.257 244.246 137.109C244.07 135.991 244.334 134.991 245.041 134.108C245.982 133.755 246.659 133.49 247.071 133.313C247.248 132.195 247.542 130.989 247.954 129.694C248.689 127.37 249.249 125.354 249.631 123.647C250.043 121.941 250.617 120.013 251.352 117.865C252.117 115.688 252.794 113.495 253.383 111.289ZM281.083 139.404C280.524 139.669 279.98 139.875 279.45 140.022C278.92 140.17 278.302 140.317 277.596 140.464C275.742 140.846 274.404 141.067 273.58 141.126C273.668 141.42 274.109 141.773 274.904 142.185C275.433 142.273 276.007 142.2 276.625 141.964C277.273 141.7 277.935 141.464 278.611 141.258C279.318 141.023 279.994 140.89 280.642 140.861C281.319 140.832 281.951 141.082 282.54 141.611C282.775 142.141 282.966 142.45 283.114 142.538C283.261 142.627 283.393 142.671 283.511 142.671C283.628 142.671 283.761 142.715 283.908 142.803C284.055 142.891 284.261 143.23 284.526 143.818C284.82 144.407 284.747 144.966 284.305 145.496C283.893 146.025 283.246 146.481 282.363 146.864C281.48 147.246 280.451 147.555 279.274 147.791C278.096 148.026 276.919 148.188 275.742 148.276C273.094 148.482 271.079 148.276 269.696 147.658C267.695 146.981 266.4 145.643 265.811 143.642C265.046 140.993 265.473 137.904 267.091 134.373C267.827 132.725 268.989 130.959 270.578 129.076C271.961 127.428 273.506 126.237 275.213 125.501C277.184 124.648 279.244 124.25 281.392 124.309C283.687 124.368 285.276 125.369 286.159 127.311C286.6 128.341 286.689 129.782 286.424 131.636C285.953 134.049 285.335 135.756 284.57 136.756C283.805 137.727 282.643 138.61 281.083 139.404ZM278.523 132.431C276.964 132.107 275.742 132.99 274.86 135.079C274.595 135.638 274.389 136.227 274.242 136.844C275.242 136.962 276.302 136.403 277.42 135.167C277.832 134.667 278.141 134.167 278.347 133.667C278.553 133.137 278.611 132.725 278.523 132.431ZM310.697 140.376C312.404 140.552 313.669 140.64 314.493 140.64C315.347 140.64 316.627 140.523 318.333 140.287C318.863 140.464 319.172 140.684 319.26 140.949C319.348 141.214 319.378 141.494 319.348 141.788C319.319 142.053 319.334 142.318 319.393 142.582C319.451 142.847 319.731 143.068 320.231 143.244C320.496 143.333 320.57 143.598 320.452 144.039C320.364 144.451 320.128 144.907 319.746 145.407C318.775 146.673 317.627 147.555 316.303 148.056C314.184 148.585 312.522 148.894 311.315 148.982C309.314 149.13 307.137 149.056 304.783 148.762C302.193 148.291 300.943 147.217 301.031 145.54C301.031 139.36 302.385 133.152 305.092 126.913C305.975 124.883 306.975 122.75 308.093 120.513C308.329 120.043 308.461 119.513 308.49 118.924C308.549 118.336 308.593 117.762 308.623 117.203C308.652 116.644 308.741 116.144 308.888 115.702C309.035 115.261 309.344 114.952 309.815 114.775C315.935 112.333 320.776 111.392 324.336 111.951C325.572 111.98 326.381 112.407 326.764 113.231C327.176 114.025 327.22 114.923 326.896 115.923C326.602 116.924 325.999 117.865 325.086 118.748C324.204 119.631 323.085 120.175 321.732 120.381C319.996 120.881 318.936 121.22 318.554 121.396C317.818 121.749 317.289 122.22 316.965 122.809C316.553 123.456 316.17 124.074 315.817 124.662C315.464 125.251 315.214 125.884 315.067 126.56L314.89 127.531C315.45 127.796 316.126 127.884 316.921 127.796C317.745 127.678 318.495 127.575 319.172 127.487C319.878 127.37 320.437 127.355 320.849 127.443C321.29 127.531 321.379 127.973 321.114 128.767C320.879 129.532 320.422 130.4 319.746 131.371C319.098 132.342 318.171 133.049 316.965 133.49C316.2 133.637 315.67 133.755 315.376 133.843C315.111 133.902 314.905 133.946 314.758 133.975C314.552 134.005 313.964 134.049 312.993 134.108C311.61 136.462 310.771 138.286 310.477 139.581C310.359 140.111 310.433 140.376 310.697 140.376ZM333.623 126.34C333.77 128.105 333.903 129.885 334.02 131.68C334.138 133.446 334.315 135.211 334.55 136.977C335.08 135.888 335.565 134.741 336.007 133.534C336.477 132.328 336.978 131.136 337.507 129.959C338.773 127.193 340.17 125.163 341.7 123.868C342.642 122.838 344.055 122.323 345.938 122.323C347.056 122.323 347.762 122.676 348.056 123.382C348.203 123.735 348.159 124.206 347.924 124.795C349.366 125.825 349.675 127.016 348.851 128.37C348.615 128.723 348.38 129.047 348.145 129.341C346.879 131.46 345.717 133.416 344.658 135.211C342.922 138.183 341.362 140.729 339.979 142.847C339.508 143.553 338.846 144.348 337.993 145.231C337.169 146.084 336.257 146.82 335.256 147.438C332.902 148.968 331.034 149.247 329.651 148.276C328.739 148.159 327.885 147.864 327.091 147.393C326.296 146.923 325.693 146.305 325.281 145.54C324.663 143.921 324.81 140.214 325.723 134.417C325.929 133.122 326.061 132.151 326.12 131.504C326.179 130.856 326.252 130.268 326.34 129.738C326.429 129.209 326.502 128.708 326.561 128.238C326.62 127.767 326.679 127.296 326.738 126.825C326.797 126.325 326.929 125.869 327.135 125.457C327.635 124.515 328.547 124 329.872 123.912H330.401C330.931 124.03 331.431 124.162 331.902 124.309C332.696 124.604 333.226 125.163 333.491 125.987C333.52 126.075 333.564 126.192 333.623 126.34ZM361.73 139.404C361.171 139.669 360.626 139.875 360.097 140.022C359.567 140.17 358.949 140.317 358.243 140.464C356.389 140.846 355.05 141.067 354.226 141.126C354.315 141.42 354.756 141.773 355.551 142.185C356.08 142.273 356.654 142.2 357.272 141.964C357.919 141.7 358.581 141.464 359.258 141.258C359.964 141.023 360.641 140.89 361.288 140.861C361.965 140.832 362.598 141.082 363.186 141.611C363.422 142.141 363.613 142.45 363.76 142.538C363.907 142.627 364.04 142.671 364.157 142.671C364.275 142.671 364.408 142.715 364.555 142.803C364.702 142.891 364.908 143.23 365.173 143.818C365.467 144.407 365.393 144.966 364.952 145.496C364.54 146.025 363.893 146.481 363.01 146.864C362.127 147.246 361.097 147.555 359.92 147.791C358.743 148.026 357.566 148.188 356.389 148.276C353.741 148.482 351.725 148.276 350.342 147.658C348.341 146.981 347.047 145.643 346.458 143.642C345.693 140.993 346.12 137.904 347.738 134.373C348.474 132.725 349.636 130.959 351.225 129.076C352.608 127.428 354.153 126.237 355.859 125.501C357.831 124.648 359.891 124.25 362.039 124.309C364.334 124.368 365.923 125.369 366.806 127.311C367.247 128.341 367.335 129.782 367.071 131.636C366.6 134.049 365.982 135.756 365.217 136.756C364.452 137.727 363.289 138.61 361.73 139.404ZM359.17 132.431C357.61 132.107 356.389 132.99 355.506 135.079C355.242 135.638 355.036 136.227 354.888 136.844C355.889 136.962 356.948 136.403 358.066 135.167C358.478 134.667 358.787 134.167 358.993 133.667C359.199 133.137 359.258 132.725 359.17 132.431ZM372.209 127.664C372.621 126.604 373.195 125.81 373.931 125.28C374.696 124.721 375.417 124.383 376.093 124.265C376.8 124.118 377.373 124.192 377.815 124.486C378.285 124.78 378.447 125.236 378.3 125.854C378.859 125.295 379.668 124.78 380.728 124.309C381.787 123.838 382.626 123.515 383.244 123.338C383.862 123.162 384.391 123.073 384.833 123.073C385.804 123.132 386.083 123.662 385.671 124.662C386.171 124.751 386.539 125.074 386.775 125.633C387.01 126.192 387.04 126.81 386.863 127.487C386.686 128.164 386.289 128.826 385.671 129.473C385.053 130.121 384.215 130.562 383.155 130.798C382.125 131.033 381.257 131.577 380.551 132.431C379.874 133.255 379.271 134.284 378.742 135.52C377.859 137.61 377.064 140.567 376.358 144.392C376.123 145.775 375.166 146.937 373.489 147.879C371.9 148.791 370.444 149.056 369.119 148.673C367.619 148.261 366.957 147.158 367.133 145.363C367.192 144.098 367.575 142.421 368.281 140.331C368.987 138.213 369.531 136.624 369.914 135.564C370.297 134.476 370.561 133.652 370.708 133.093L372.209 127.664ZM386.751 132.431C386.78 131.224 386.692 130.238 386.486 129.473C386.28 128.708 386.28 128.076 386.486 127.575C386.721 127.046 387.075 126.678 387.545 126.472C388.046 126.266 388.619 126.207 389.267 126.295C389.944 126.354 390.606 126.546 391.253 126.869C392.813 127.575 393.901 128.576 394.519 129.871C394.666 130.518 394.607 131.327 394.343 132.298C394.107 133.24 393.828 134.226 393.504 135.255C393.18 136.256 392.871 137.242 392.577 138.213C392.283 139.154 392.165 139.949 392.224 140.596C392.989 140.125 393.651 139.419 394.21 138.478C394.799 137.536 395.328 136.535 395.799 135.476C396.299 134.387 396.756 133.313 397.167 132.254C397.609 131.195 398.021 130.356 398.403 129.738C398.815 129.12 399.139 128.635 399.374 128.282C399.61 127.899 399.845 127.561 400.081 127.267C400.463 126.766 400.963 126.281 401.581 125.81C401.758 125.663 402.287 125.692 403.17 125.898C404.082 126.075 404.744 126.207 405.156 126.295C405.598 126.354 405.892 126.325 406.039 126.207L406.657 125.766C407.481 125.354 408.452 125.369 409.57 125.81C410.659 126.281 411.233 127.002 411.292 127.973C411.262 128.002 411.247 128.061 411.247 128.149L411.38 128.193L411.071 128.458C410.865 128.841 410.703 129.106 410.585 129.253C410.497 129.37 410.291 129.562 409.967 129.827C407.967 131.975 405.671 135.962 403.082 141.788C402.435 143.23 401.846 144.524 401.316 145.672C402.111 146.172 402.714 146.82 403.126 147.614C403.538 148.409 403.538 149.277 403.126 150.218C400.684 152.16 399.316 153.985 399.021 155.691C398.874 156.751 398.683 157.501 398.447 157.942C398.241 158.384 397.903 158.81 397.432 159.222C395.843 160.399 393.975 160.105 391.827 158.34C390.297 156.81 390.223 154.897 391.606 152.602C391.959 151.984 392.298 151.336 392.621 150.66C393.092 149.659 393.842 148.173 394.872 146.202C392.342 147.673 390.017 147.644 387.898 146.113C386.398 144.966 385.868 142.362 386.31 138.301C386.604 135.594 386.751 133.637 386.751 132.431Z" fill="white"/>
<path d="M263 234.94C258.033 234.94 254.006 238.967 254.006 243.934C254.006 248.902 258.033 252.928 263 252.928C267.967 252.928 271.994 248.901 271.994 243.934C271.994 238.967 267.967 234.94 263 234.94ZM269.897 247.423C269.731 248.046 269.243 248.537 268.624 248.704C267.501 249.007 262.999 249.007 262.999 249.007C262.999 249.007 258.497 249.007 257.374 248.704C256.755 248.537 256.267 248.046 256.101 247.423C255.8 246.293 255.8 243.935 255.8 243.935C255.8 243.935 255.8 241.577 256.101 240.447C256.267 239.824 256.754 239.333 257.374 239.166C258.497 238.863 262.999 238.863 262.999 238.863C262.999 238.863 267.501 238.863 268.624 239.166C269.243 239.333 269.731 239.824 269.897 240.447C270.198 241.577 270.198 243.935 270.198 243.935C270.198 243.935 270.198 246.292 269.897 247.423Z" fill="white"/>
<path d="M261.527 246.075L265.29 243.935L261.527 241.794V246.075Z" fill="white"/>
<path d="M237.523 234.94C232.556 234.94 228.529 238.967 228.529 243.934C228.529 248.901 232.556 252.928 237.523 252.928C242.49 252.928 246.517 248.901 246.517 243.934C246.517 238.967 242.49 234.94 237.523 234.94ZM241.334 241.98C241.458 244.746 239.396 247.829 235.745 247.829C234.635 247.829 233.601 247.503 232.731 246.945C233.774 247.068 234.816 246.779 235.642 246.131C234.782 246.115 234.055 245.547 233.805 244.765C234.113 244.824 234.416 244.807 234.693 244.732C233.747 244.542 233.095 243.69 233.116 242.779C233.381 242.926 233.684 243.015 234.007 243.025C233.131 242.44 232.883 241.284 233.398 240.399C234.368 241.589 235.817 242.372 237.451 242.454C237.165 241.224 238.097 240.04 239.366 240.04C239.932 240.04 240.443 240.279 240.802 240.661C241.25 240.573 241.67 240.409 242.05 240.184C241.903 240.644 241.591 241.029 241.186 241.272C241.584 241.225 241.963 241.119 242.315 240.963C242.051 241.357 241.718 241.703 241.334 241.98Z" fill="white"/>
<path d="M187.214 234.94C182.247 234.94 178.22 238.967 178.22 243.934C178.22 248.901 182.247 252.928 187.214 252.928C192.181 252.928 196.208 248.901 196.208 243.934C196.209 238.967 192.182 234.94 187.214 234.94ZM189.723 240.403C189.723 240.403 188.875 240.403 188.538 240.403C188.119 240.403 188.032 240.574 188.032 241.007C188.032 241.367 188.032 242.053 188.032 242.053H189.722L189.559 243.889H188.031V249.372H185.842V243.912H184.703V242.053H185.842C185.842 242.053 185.842 241.786 185.842 240.589C185.842 239.216 186.577 238.498 188.206 238.498C188.473 238.498 189.722 238.498 189.722 238.498V240.403H189.723Z" fill="white"/>
<path d="M212.045 242.291C211.137 242.291 210.401 243.027 210.401 243.935C210.401 244.843 211.137 245.579 212.045 245.579C212.953 245.579 213.689 244.843 213.689 243.935C213.689 243.027 212.953 242.291 212.045 242.291Z" fill="white"/>
<path d="M212.045 234.94C207.078 234.94 203.051 238.967 203.051 243.934C203.051 248.901 207.078 252.928 212.045 252.928C217.012 252.928 221.039 248.901 221.039 243.934C221.04 238.967 217.013 234.94 212.045 234.94ZM216.947 245.968C216.923 246.493 216.84 246.851 216.718 247.165C216.592 247.489 216.423 247.764 216.149 248.039C215.875 248.313 215.6 248.482 215.275 248.608C214.961 248.73 214.603 248.813 214.078 248.837C213.552 248.861 213.384 248.866 212.045 248.866C210.706 248.866 210.538 248.861 210.012 248.837C209.487 248.813 209.129 248.73 208.815 248.608C208.491 248.482 208.216 248.313 207.941 248.039C207.667 247.765 207.498 247.49 207.372 247.165C207.25 246.851 207.167 246.493 207.143 245.968C207.119 245.442 207.113 245.274 207.113 243.935C207.113 242.596 207.119 242.428 207.143 241.902C207.167 241.377 207.25 241.019 207.372 240.705C207.498 240.381 207.667 240.106 207.941 239.831C208.215 239.557 208.49 239.388 208.815 239.262C209.129 239.14 209.487 239.057 210.012 239.033C210.538 239.009 210.706 239.003 212.045 239.003C213.384 239.003 213.552 239.009 214.078 239.033C214.603 239.057 214.961 239.14 215.275 239.262C215.599 239.388 215.875 239.557 216.149 239.831C216.423 240.105 216.592 240.38 216.718 240.705C216.84 241.019 216.923 241.377 216.947 241.902C216.971 242.428 216.976 242.596 216.976 243.935C216.977 245.274 216.971 245.442 216.947 245.968Z" fill="white"/>
<path d="M215.89 241.026C215.8 240.796 215.694 240.632 215.521 240.459C215.348 240.286 215.184 240.18 214.954 240.09C214.78 240.022 214.519 239.942 214.038 239.92C213.518 239.896 213.362 239.891 212.045 239.891C210.728 239.891 210.572 239.896 210.052 239.92C209.571 239.942 209.31 240.022 209.137 240.09C208.907 240.179 208.742 240.286 208.57 240.459C208.397 240.632 208.291 240.796 208.201 241.026C208.134 241.2 208.053 241.461 208.031 241.942C208.007 242.462 208.002 242.618 208.002 243.935C208.002 245.252 208.007 245.408 208.031 245.928C208.053 246.409 208.133 246.67 208.201 246.844C208.291 247.074 208.398 247.239 208.57 247.411C208.743 247.584 208.907 247.69 209.137 247.78C209.311 247.848 209.572 247.928 210.052 247.95C210.572 247.974 210.728 247.979 212.045 247.979C213.362 247.979 213.518 247.974 214.038 247.95C214.519 247.928 214.78 247.848 214.954 247.78C215.184 247.691 215.348 247.584 215.521 247.411C215.694 247.238 215.8 247.074 215.89 246.844C215.957 246.67 216.038 246.409 216.06 245.928C216.084 245.408 216.089 245.252 216.089 243.935C216.089 242.618 216.084 242.462 216.06 241.942C216.038 241.461 215.957 241.2 215.89 241.026ZM212.045 246.467C210.647 246.467 209.513 245.333 209.513 243.934C209.513 242.535 210.647 241.402 212.045 241.402C213.444 241.402 214.577 242.536 214.577 243.934C214.578 245.333 213.444 246.467 212.045 246.467ZM214.678 241.894C214.351 241.894 214.086 241.629 214.086 241.302C214.086 240.975 214.351 240.71 214.678 240.71C215.005 240.71 215.27 240.975 215.27 241.302C215.27 241.629 215.005 241.894 214.678 241.894Z" fill="white"/>
<path d="M288.465 248.624C287.849 248.624 287.287 248.524 286.777 248.322C286.268 248.121 285.83 247.84 285.463 247.478C285.095 247.117 284.811 246.691 284.61 246.199C284.408 245.702 284.308 245.16 284.308 244.573C284.308 243.987 284.408 243.448 284.61 242.957C284.811 242.465 285.095 242.039 285.463 241.677C285.836 241.316 286.28 241.038 286.795 240.842C287.31 240.647 287.879 240.549 288.501 240.549C289.111 240.549 289.667 240.644 290.171 240.833C290.674 241.023 291.11 241.292 291.477 241.642C291.85 241.985 292.137 242.397 292.338 242.877C292.54 243.35 292.64 243.875 292.64 244.449C292.64 244.952 292.578 245.385 292.454 245.746C292.33 246.107 292.149 246.389 291.912 246.59C291.681 246.785 291.397 246.883 291.059 246.883C290.728 246.883 290.461 246.782 290.26 246.581C290.064 246.38 289.967 246.093 289.967 245.719V245.115L290.011 244.573L289.931 243.552V242.37H290.704V245.568C290.704 245.805 290.751 245.971 290.846 246.066C290.947 246.161 291.068 246.208 291.21 246.208C291.382 246.208 291.53 246.14 291.654 246.004C291.785 245.867 291.879 245.669 291.939 245.408C292.004 245.142 292.036 244.825 292.036 244.458C292.036 243.96 291.951 243.51 291.779 243.108C291.613 242.699 291.37 242.347 291.05 242.051C290.736 241.754 290.363 241.529 289.931 241.375C289.505 241.215 289.028 241.136 288.501 241.136C287.974 241.136 287.491 241.221 287.053 241.393C286.62 241.559 286.247 241.796 285.933 242.104C285.62 242.406 285.377 242.767 285.205 243.188C285.039 243.608 284.956 244.07 284.956 244.573C284.956 245.083 285.039 245.551 285.205 245.977C285.371 246.398 285.608 246.759 285.916 247.061C286.23 247.369 286.6 247.606 287.026 247.771C287.458 247.943 287.938 248.029 288.465 248.029C288.738 248.029 289.025 247.997 289.327 247.931C289.629 247.872 289.913 247.774 290.18 247.638L290.375 248.207C290.103 248.343 289.795 248.447 289.451 248.518C289.108 248.589 288.779 248.624 288.465 248.624ZM288.305 246.883C287.885 246.883 287.512 246.785 287.186 246.59C286.86 246.389 286.603 246.116 286.413 245.773C286.224 245.429 286.129 245.038 286.129 244.6C286.129 244.156 286.224 243.765 286.413 243.427C286.603 243.084 286.86 242.817 287.186 242.628C287.512 242.433 287.885 242.335 288.305 242.335C288.714 242.335 289.072 242.424 289.38 242.601C289.688 242.773 289.928 243.028 290.1 243.365C290.277 243.703 290.366 244.114 290.366 244.6C290.366 245.086 290.28 245.497 290.109 245.835C289.937 246.172 289.697 246.433 289.389 246.617C289.081 246.794 288.72 246.883 288.305 246.883ZM288.43 246.19C288.72 246.19 288.978 246.128 289.203 246.004C289.434 245.873 289.614 245.69 289.744 245.453C289.881 245.21 289.949 244.926 289.949 244.6C289.949 244.268 289.881 243.984 289.744 243.747C289.614 243.51 289.434 243.33 289.203 243.205C288.978 243.081 288.72 243.019 288.43 243.019C288.134 243.019 287.87 243.084 287.639 243.214C287.414 243.339 287.236 243.519 287.106 243.756C286.982 243.993 286.92 244.274 286.92 244.6C286.92 244.92 286.982 245.198 287.106 245.435C287.236 245.672 287.414 245.859 287.639 245.995C287.87 246.125 288.134 246.19 288.43 246.19ZM296.8 246.83V245.835L296.755 245.648V243.952C296.755 243.59 296.649 243.312 296.435 243.117C296.228 242.915 295.914 242.814 295.494 242.814C295.215 242.814 294.943 242.862 294.676 242.957C294.41 243.045 294.185 243.167 294.001 243.321L293.646 242.681C293.889 242.486 294.179 242.338 294.516 242.237C294.86 242.13 295.218 242.077 295.591 242.077C296.237 242.077 296.734 242.234 297.084 242.548C297.433 242.862 297.608 243.342 297.608 243.987V246.83H296.8ZM295.254 246.883C294.904 246.883 294.596 246.824 294.33 246.705C294.069 246.587 293.868 246.424 293.726 246.217C293.584 246.004 293.513 245.764 293.513 245.497C293.513 245.243 293.572 245.012 293.69 244.804C293.815 244.597 294.013 244.431 294.286 244.307C294.564 244.183 294.937 244.12 295.405 244.12H296.897V244.733H295.44C295.014 244.733 294.727 244.804 294.579 244.947C294.431 245.089 294.357 245.26 294.357 245.462C294.357 245.693 294.448 245.879 294.632 246.021C294.816 246.158 295.07 246.226 295.396 246.226C295.716 246.226 295.994 246.155 296.231 246.013C296.474 245.87 296.649 245.663 296.755 245.391L296.924 245.977C296.811 246.255 296.613 246.477 296.329 246.643C296.044 246.803 295.686 246.883 295.254 246.883ZM299.304 248.607C299.079 248.607 298.86 248.568 298.646 248.491C298.433 248.42 298.25 248.313 298.096 248.171L298.46 247.532C298.578 247.644 298.709 247.73 298.851 247.789C298.993 247.848 299.144 247.878 299.304 247.878C299.511 247.878 299.683 247.825 299.819 247.718C299.955 247.612 300.083 247.422 300.201 247.15L300.494 246.501L300.583 246.395L302.431 242.122H303.266L300.983 247.301C300.846 247.632 300.693 247.893 300.521 248.082C300.355 248.272 300.171 248.405 299.97 248.482C299.769 248.565 299.547 248.607 299.304 248.607ZM300.423 246.981L298.273 242.122H299.162L300.992 246.315L300.423 246.981ZM305.948 246.883C305.474 246.883 305.054 246.779 304.687 246.572C304.319 246.365 304.029 246.081 303.816 245.719C303.603 245.352 303.496 244.938 303.496 244.476C303.496 244.008 303.603 243.593 303.816 243.232C304.029 242.871 304.319 242.589 304.687 242.388C305.054 242.181 305.474 242.077 305.948 242.077C306.416 242.077 306.833 242.181 307.201 242.388C307.574 242.589 307.864 242.871 308.071 243.232C308.284 243.587 308.391 244.002 308.391 244.476C308.391 244.944 308.284 245.358 308.071 245.719C307.864 246.081 307.574 246.365 307.201 246.572C306.833 246.779 306.416 246.883 305.948 246.883ZM305.948 246.137C306.25 246.137 306.52 246.069 306.756 245.933C306.999 245.796 307.189 245.604 307.325 245.355C307.461 245.101 307.529 244.807 307.529 244.476C307.529 244.138 307.461 243.848 307.325 243.605C307.189 243.356 306.999 243.164 306.756 243.028C306.52 242.891 306.25 242.823 305.948 242.823C305.646 242.823 305.377 242.891 305.14 243.028C304.903 243.164 304.713 243.356 304.571 243.605C304.429 243.848 304.358 244.138 304.358 244.476C304.358 244.807 304.429 245.101 304.571 245.355C304.713 245.604 304.903 245.796 305.14 245.933C305.377 246.069 305.646 246.137 305.948 246.137ZM310.263 245.693L310.281 244.6L312.991 242.122H314.021L311.942 244.165L311.48 244.556L310.263 245.693ZM309.57 246.83V240.238H310.423V246.83H309.57ZM313.168 246.83L311.321 244.538L311.871 243.854L314.217 246.83H313.168ZM316.95 246.883C316.447 246.883 316.003 246.779 315.618 246.572C315.239 246.365 314.943 246.081 314.729 245.719C314.522 245.358 314.418 244.944 314.418 244.476C314.418 244.008 314.519 243.593 314.72 243.232C314.928 242.871 315.209 242.589 315.564 242.388C315.926 242.181 316.331 242.077 316.781 242.077C317.237 242.077 317.64 242.178 317.99 242.379C318.339 242.581 318.611 242.865 318.807 243.232C319.008 243.593 319.109 244.017 319.109 244.502C319.109 244.538 319.106 244.579 319.1 244.627C319.1 244.674 319.097 244.719 319.091 244.76H315.085V244.147H318.647L318.301 244.36C318.306 244.058 318.244 243.789 318.114 243.552C317.984 243.315 317.803 243.131 317.572 243.001C317.347 242.865 317.083 242.797 316.781 242.797C316.485 242.797 316.222 242.865 315.991 243.001C315.76 243.131 315.579 243.318 315.449 243.561C315.319 243.798 315.253 244.07 315.253 244.378V244.52C315.253 244.834 315.325 245.115 315.467 245.364C315.615 245.607 315.819 245.796 316.08 245.933C316.34 246.069 316.639 246.137 316.977 246.137C317.255 246.137 317.507 246.09 317.732 245.995C317.963 245.9 318.164 245.758 318.336 245.568L318.807 246.119C318.594 246.368 318.327 246.557 318.007 246.688C317.693 246.818 317.341 246.883 316.95 246.883ZM321.643 246.883C321.253 246.883 320.879 246.83 320.524 246.723C320.175 246.617 319.899 246.486 319.698 246.332L320.053 245.657C320.255 245.793 320.503 245.909 320.8 246.004C321.096 246.098 321.398 246.146 321.706 246.146C322.102 246.146 322.387 246.09 322.558 245.977C322.736 245.864 322.825 245.708 322.825 245.506C322.825 245.358 322.772 245.243 322.665 245.16C322.558 245.077 322.416 245.015 322.239 244.973C322.067 244.932 321.874 244.896 321.661 244.867C321.448 244.831 321.235 244.79 321.022 244.742C320.808 244.689 320.613 244.618 320.435 244.529C320.258 244.434 320.115 244.307 320.009 244.147C319.902 243.981 319.849 243.762 319.849 243.49C319.849 243.205 319.929 242.957 320.089 242.743C320.249 242.53 320.474 242.367 320.764 242.255C321.06 242.136 321.41 242.077 321.812 242.077C322.12 242.077 322.431 242.116 322.745 242.193C323.065 242.264 323.325 242.367 323.527 242.504L323.163 243.179C322.949 243.037 322.727 242.939 322.496 242.886C322.265 242.832 322.034 242.806 321.803 242.806C321.43 242.806 321.152 242.868 320.968 242.992C320.785 243.111 320.693 243.265 320.693 243.454C320.693 243.614 320.746 243.738 320.853 243.827C320.965 243.91 321.107 243.975 321.279 244.023C321.457 244.07 321.652 244.111 321.866 244.147C322.079 244.177 322.292 244.218 322.505 244.271C322.718 244.319 322.911 244.387 323.083 244.476C323.26 244.565 323.402 244.689 323.509 244.849C323.621 245.009 323.678 245.222 323.678 245.488C323.678 245.773 323.595 246.018 323.429 246.226C323.263 246.433 323.029 246.596 322.727 246.714C322.425 246.827 322.064 246.883 321.643 246.883ZM324.744 246.83V242.122H325.596V246.83H324.744ZM325.17 241.215C325.004 241.215 324.865 241.162 324.752 241.056C324.646 240.949 324.593 240.819 324.593 240.665C324.593 240.505 324.646 240.372 324.752 240.265C324.865 240.158 325.004 240.105 325.17 240.105C325.336 240.105 325.472 240.158 325.579 240.265C325.691 240.366 325.747 240.493 325.747 240.647C325.747 240.807 325.694 240.943 325.588 241.056C325.481 241.162 325.342 241.215 325.17 241.215ZM328.842 246.883C328.368 246.883 328.001 246.756 327.74 246.501C327.479 246.246 327.349 245.882 327.349 245.408V241.091H328.202V245.373C328.202 245.628 328.264 245.823 328.388 245.959C328.519 246.095 328.702 246.164 328.939 246.164C329.206 246.164 329.428 246.09 329.605 245.941L329.872 246.554C329.742 246.667 329.585 246.75 329.401 246.803C329.223 246.856 329.037 246.883 328.842 246.883ZM326.55 242.823V242.122H329.552V242.823H326.55ZM332.884 246.883C332.481 246.883 332.126 246.809 331.818 246.661C331.516 246.513 331.279 246.288 331.107 245.986C330.942 245.678 330.859 245.293 330.859 244.831V242.122H331.711V244.733C331.711 245.195 331.821 245.542 332.04 245.773C332.265 246.004 332.579 246.119 332.982 246.119C333.278 246.119 333.536 246.06 333.755 245.941C333.974 245.817 334.143 245.639 334.261 245.408C334.379 245.172 334.439 244.887 334.439 244.556V242.122H335.291V246.83H334.483V245.559L334.616 245.897C334.462 246.211 334.231 246.454 333.923 246.626C333.615 246.797 333.269 246.883 332.884 246.883Z" fill="white"/>
<path d="M294.276 92.244L296.182 91.149L296.594 85.039L298.112 84.167C298.533 83.925 298.679 83.3881 298.437 82.966C298.195 82.545 297.658 82.4 297.236 82.641L296.736 82.928L297.141 76.922L299.344 75.782C301.202 74.821 302.79 73.41 303.963 71.678C304.476 70.92 303.893 69.903 302.979 69.965C300.892 70.106 298.873 70.766 297.106 71.886L295.012 73.214L289.62 70.537L290.12 70.25C290.541 70.008 290.686 69.471 290.445 69.049C290.203 68.628 289.666 68.483 289.245 68.724L287.727 69.596L282.242 66.873L280.336 67.968L288.888 77.099L285.105 79.498L280.31 77.195L278.912 77.998L282.119 81.392L281.88 81.544C281.221 81.962 281.008 82.824 281.397 83.501C281.786 84.177 282.638 84.428 283.331 84.07L283.583 83.94L284.898 88.42L286.296 87.617L286.723 82.315L290.701 80.257L294.276 92.244Z" fill="white"/>
<path d="M217.577 81.4451C225.529 87.4381 237.263 91.0051 249.748 91.4181C260.711 91.7781 271.234 89.6601 279.445 85.8521L277.486 82.3351C270.583 85.9341 261.217 88.3841 250.91 88.7031C239.113 89.0711 226.901 86.6311 217.577 81.4451Z" fill="white"/>
</g>
<defs>
<clipPath id="clip0_245_4067">
<rect width="820" height="312" rx="20" fill="white"/>
</clipPath>
</defs>
</svg>
